<?xml version="1.0" standalone="no"?>
<!DOCTYPE svg PUBLIC "-//W3C//DTD SVG 1.1//EN" "http://www.w3.org/Graphics/SVG/1.1/DTD/svg11.dtd" >
<svg xmlns="http://www.w3.org/2000/svg" xmlns:xlink="http://www.w3.org/1999/xlink" version="1.1">
<metadata>
Created by FontForge 20161116 at Tue May 16 17:58:08 2000
 By Jimmy Warting
Copyright (c) 2000 Adobe Systems Incorporated. All Rights Reserved.Myriad is a registered trademark of Adobe Systems Incorporated.
</metadata>
<defs>
<font id="MyriadPro-LightIt" horiz-adv-x="375" >
  <font-face 
    font-family="Myriad Pro"
    font-weight="300"
    font-style="italic"
    font-stretch="normal"
    units-per-em="1000"
    panose-1="2 11 4 3 3 4 3 9 2 4"
    ascent="750"
    descent="-250"
    x-height="480"
    cap-height="674"
    bbox="-121 -250 1007 863"
    underline-thickness="50"
    underline-position="-100"
    slope="-11"
    stemh="37"
    stemv="48"
    unicode-range="U+0020-FB04"
  />
<missing-glyph horiz-adv-x="500" 
d="M0 0v700h500v-700h-500zM250 395l170 255h-340zM280 350l170 -255v510zM80 50h340l-170 255zM50 605v-510l170 255z" />
    <glyph glyph-name="fi" unicode="fi" horiz-adv-x="460" 
d="M91 0h-45l84 443h-65l7 37h66l5 28c24 130 92 213 206 213c38 0 81 -12 94 -24l-18 -38c-19 11 -52 22 -89 22c-89 0 -133 -79 -149 -177l-4 -24h245l-92 -480h-45l84 443h-200z" />
    <glyph glyph-name="fl" unicode="fl" horiz-adv-x="460" 
d="M91 0h-45l84 443h-65l8 37h65l4 21c14 75 39 136 92 177c34 27 82 43 129 43c43 0 86 -11 106 -25l-133 -696h-45l128 667c-15 8 -32 14 -71 14c-94 0 -141 -73 -159 -171l-6 -30h113l-7 -37h-114z" />
    <glyph glyph-name="ff" unicode="ff" horiz-adv-x="518" 
d="M644 708l-14 -37c-13 7 -31 10 -50 10c-78 0 -112 -79 -129 -178l-4 -23h115l-8 -37h-115l-85 -443h-44l84 443h-219l-84 -443h-45l84 443h-65l8 37h65l4 23c11 60 33 125 74 166c26 25 58 41 100 41c22 0 41 -7 56 -15l-17 -36c-10 6 -28 11 -44 11
c-77 0 -108 -81 -124 -170l-4 -20h219l5 26c13 73 37 136 77 175c25 23 61 40 99 40c33 0 52 -7 61 -13z" />
    <glyph glyph-name="ffi" unicode="ffi" horiz-adv-x="723" 
d="M707 697l-18 -38c-19 11 -52 22 -89 22c-89 0 -133 -79 -149 -177l-4 -24h245l-92 -480h-45l84 443h-200l-84 -443h-45l84 443h-219l-84 -443h-45l84 443h-65l7 37h66l5 26c9 56 32 118 73 159c27 27 63 45 109 45c31 0 55 -11 70 -21l-19 -37c-16 10 -37 18 -58 18
c-30 0 -55 -10 -74 -29c-29 -29 -46 -78 -57 -138l-4 -23h219l5 28c22 129 92 213 206 213c38 0 81 -12 94 -24z" />
    <glyph glyph-name="ffl" unicode="ffl" horiz-adv-x="723" 
d="M399 690l-20 -36c-17 10 -38 16 -58 16c-32 0 -56 -12 -75 -31c-33 -33 -50 -85 -59 -136l-4 -23h218l4 21c13 75 39 136 92 177c34 27 82 43 129 43c43 0 86 -11 106 -25l-133 -696h-45l128 667c-15 8 -32 14 -71 14c-94 0 -141 -73 -159 -171l-6 -30h113l-7 -37h-114
l-84 -443h-45l84 443h-218l-84 -443h-45l84 443h-65l7 37h66l5 26c9 57 33 118 73 158c29 28 65 46 111 46c31 0 57 -11 72 -20z" />
    <glyph glyph-name="f_j" unicode="fj" horiz-adv-x="430" 
d="M443 697l-18 -38c-19 11 -52 22 -89 22c-89 0 -133 -79 -149 -177l-4 -24h245l-93 -487c-15 -79 -31 -128 -58 -158c-26 -29 -61 -44 -97 -44c-20 0 -34 1 -46 5l6 38c8 -2 23 -4 42 -4c47 0 83 31 103 138l91 475h-201l-84 -443h-45l84 443h-65l7 37h66l5 28
c22 129 92 213 206 213c38 0 81 -12 94 -24z" />
    <glyph glyph-name="f_f_j" unicode="ffj" horiz-adv-x="693" 
d="M707 697l-18 -38c-19 11 -52 22 -89 22c-89 0 -133 -79 -149 -177l-4 -24h245l-93 -487c-15 -79 -31 -128 -58 -158c-26 -29 -61 -44 -97 -44c-20 0 -34 1 -47 5l6 38c8 -2 23 -4 42 -4c48 0 83 31 104 138l90 475h-201l-84 -443h-45l84 443h-218l-84 -443h-45l84 443
h-65l7 37h66l5 26c9 56 32 118 73 159c27 27 63 45 109 45c31 0 54 -11 69 -21l-18 -37c-16 10 -37 18 -58 18c-30 0 -55 -10 -74 -29c-29 -29 -46 -78 -57 -138l-4 -23h219l5 28c22 129 92 213 206 213c38 0 81 -12 94 -24z" />
    <glyph glyph-name=".notdef" horiz-adv-x="500" 
d="M0 0v700h500v-700h-500zM250 395l170 255h-340zM280 350l170 -255v510zM80 50h340l-170 255zM50 605v-510l170 255z" />
    <glyph glyph-name="space" unicode=" " horiz-adv-x="180" 
 />
    <glyph glyph-name="space" unicode="&#xa0;" horiz-adv-x="180" 
 />
    <glyph glyph-name="exclam" unicode="!" horiz-adv-x="215" 
d="M117 177h-39l88 497h56zM68 -11h-1c-22 0 -38 20 -38 44c0 26 18 46 42 46c25 0 39 -20 39 -44s-16 -46 -42 -46z" />
    <glyph glyph-name="quotedbl" unicode="&#x22;" horiz-adv-x="253" 
d="M126 692h57l-55 -221h-32zM249 692h57l-55 -221h-32z" />
    <glyph glyph-name="numbersign" unicode="#" horiz-adv-x="462" 
d="M176 244h92l51 167h-93zM100 0h-40l64 207h-83l7 37h88l50 167h-87l7 37h92l63 202h39l-62 -202h92l63 202h39l-62 -202h83l-7 -37h-87l-51 -167h88l-6 -37h-94l-64 -207h-40l64 207h-92z" />
    <glyph glyph-name="dollar" unicode="$" horiz-adv-x="462" 
d="M186 -85h-39l20 104c-41 1 -92 19 -117 39l17 36c29 -20 67 -38 118 -38c80 0 148 54 148 136c0 50 -21 92 -85 128c-86 46 -119 94 -119 153c0 82 70 156 161 163l20 103h40l-20 -103c45 -2 82 -19 96 -31l-17 -35c-18 9 -47 29 -101 29c-82 0 -133 -53 -133 -120
c0 -53 22 -81 96 -122c76 -44 107 -93 107 -152c0 -103 -70 -174 -172 -186z" />
    <glyph glyph-name="percent" unicode="%" horiz-adv-x="714" 
d="M245 661h1c76 0 103 -68 103 -127c0 -142 -66 -271 -168 -271c-71 0 -107 59 -107 140c0 118 64 258 171 258zM238 627h-1c-72 0 -121 -120 -121 -226c0 -51 14 -104 72 -104c71 0 119 124 119 228c0 43 -12 102 -69 102zM148 -13h-44l496 676h44zM574 393h1
c76 0 103 -68 103 -128c0 -142 -66 -270 -168 -270c-71 0 -107 58 -107 139c0 118 64 259 171 259zM567 359h-1c-72 0 -121 -121 -121 -227c0 -51 14 -103 72 -103c71 0 119 123 119 228c0 42 -12 102 -69 102z" />
    <glyph glyph-name="ampersand" unicode="&#x26;" horiz-adv-x="542" 
d="M486 0h-54c-18 23 -33 44 -52 72c-65 -62 -126 -83 -194 -83c-112 0 -168 78 -168 163c0 107 89 183 171 223v3c-25 48 -37 88 -37 128c0 95 67 179 158 179c82 0 114 -61 114 -121c0 -82 -56 -148 -176 -203v-3c44 -76 100 -165 140 -223c40 52 74 121 107 221h45
c-38 -111 -78 -193 -131 -253c23 -32 46 -65 77 -103zM195 27h1c64 0 120 30 163 77c-30 49 -95 143 -152 241c-53 -30 -143 -87 -143 -188c0 -74 48 -130 131 -130zM305 648h-1c-60 0 -108 -58 -108 -136c0 -41 10 -79 33 -122c100 49 150 98 150 170c0 44 -18 88 -74 88z
" />
    <glyph glyph-name="quoteright" unicode="&#x2019;" horiz-adv-x="156" 
d="M156 682l59 10c-32 -75 -94 -189 -116 -217l-34 -5c24 42 71 150 91 212z" />
    <glyph glyph-name="parenleft" unicode="(" horiz-adv-x="265" 
d="M291 692h47c-106 -114 -221 -294 -221 -535c0 -87 18 -179 64 -277h-39c-45 85 -69 171 -69 283c0 243 127 429 218 529z" />
    <glyph glyph-name="parenright" unicode=")" horiz-adv-x="265" 
d="M-3 -120h-47c106 115 221 296 221 536c0 87 -18 180 -64 276h39c45 -83 69 -169 69 -282c0 -243 -127 -428 -218 -530z" />
    <glyph glyph-name="asterisk" unicode="*" horiz-adv-x="391" 
d="M332 685l40 -25l-101 -122v-2l145 11l-10 -45l-139 11v-2l75 -118l-46 -26l-52 131h-2l-83 -132l-36 26l101 120v2l-142 -12l9 45l136 -10v2l-72 120l45 25l53 -130h2z" />
    <glyph glyph-name="plus" unicode="+" horiz-adv-x="596" 
d="M289 532h40v-246h227v-38h-227v-248h-40v248h-227v38h227v246z" />
    <glyph glyph-name="comma" unicode="," horiz-adv-x="181" 
d="M5 -121l-39 -5c23 42 70 150 88 212l64 10c-30 -75 -93 -189 -113 -217z" />
    <glyph glyph-name="hyphen" unicode="-" horiz-adv-x="298" 
d="M50 296h227l-8 -42h-227z" />
    <glyph glyph-name="hyphen" unicode="&#xad;" horiz-adv-x="298" 
d="M50 296h227l-8 -42h-227z" />
    <glyph glyph-name="period" unicode="." horiz-adv-x="181" 
d="M62 -11h-1c-22 0 -38 20 -38 44c0 26 18 46 42 46c25 0 39 -20 39 -44s-16 -46 -42 -46z" />
    <glyph glyph-name="slash" unicode="/" horiz-adv-x="327" 
d="M-17 -40h-45l434 725h48z" />
    <glyph glyph-name="zero" unicode="0" horiz-adv-x="462" 
d="M193 -11h-1c-109 0 -147 96 -147 216c0 223 118 456 272 456c114 0 145 -102 145 -193c0 -217 -102 -479 -269 -479zM199 28h1c136 0 215 275 215 433c0 56 -8 161 -102 161c-124 0 -221 -223 -221 -421c0 -79 17 -173 107 -173z" />
    <glyph glyph-name="one" unicode="1" horiz-adv-x="462" 
d="M181 0l114 598h-2l-101 -55l-12 36l128 71h41l-124 -650h-44z" />
    <glyph glyph-name="two" unicode="2" horiz-adv-x="462" 
d="M362 0h-361l7 32l70 63c201 173 314 290 314 415c0 48 -22 111 -108 111c-58 0 -104 -31 -131 -53l-17 34c41 35 103 59 155 59c117 0 149 -84 149 -147c0 -142 -139 -279 -319 -432l-48 -41v-2h296z" />
    <glyph glyph-name="three" unicode="3" horiz-adv-x="462" 
d="M21 29l18 35c24 -15 60 -35 115 -35c129 0 182 98 182 174c0 95 -72 132 -143 132h-37l7 37h39c58 0 172 48 172 152c0 61 -33 97 -100 97c-44 0 -87 -16 -116 -39l-17 35c37 24 86 44 139 44c108 0 142 -73 142 -132c0 -89 -72 -153 -143 -174v-2
c73 -18 106 -84 106 -149c0 -114 -94 -215 -235 -215c-62 0 -111 21 -129 40z" />
    <glyph glyph-name="four" unicode="4" horiz-adv-x="462" 
d="M301 0h-43l36 192h-282l7 31l369 427h37l-80 -419h96l-8 -39h-96zM77 231h225l50 263c6 31 13 61 20 90l-3 1c-26 -38 -40 -64 -65 -95l-227 -257v-2z" />
    <glyph glyph-name="five" unicode="5" horiz-adv-x="462" 
d="M459 650l-8 -41h-218l-64 -204c11 2 22 3 34 3c23 0 67 -7 101 -26c58 -29 81 -90 81 -142c0 -155 -120 -251 -246 -251c-54 0 -104 20 -122 34l18 36c21 -14 64 -30 114 -30c107 0 189 94 189 198c0 77 -35 141 -155 141c-23 0 -43 -2 -68 -4l88 286h256z" />
    <glyph glyph-name="six" unicode="6" horiz-adv-x="462" 
d="M444 661l-5 -43c-17 0 -39 -1 -64 -7c-116 -26 -226 -131 -276 -288h2c40 60 113 101 176 101c107 0 152 -80 152 -173c0 -121 -94 -262 -226 -262c-111 0 -166 84 -166 204c0 153 86 297 166 366c60 54 125 84 184 95c22 5 43 7 57 7zM208 28h1c96 0 173 112 173 223
c0 88 -42 133 -117 133c-58 0 -123 -40 -165 -107c-5 -9 -10 -19 -12 -30c-3 -16 -5 -37 -5 -62c0 -93 41 -157 125 -157z" />
    <glyph glyph-name="seven" unicode="7" horiz-adv-x="462" 
d="M143 650h357l-6 -34c-129 -205 -258 -411 -390 -616h-50c131 203 260 406 388 608l-1 3h-306z" />
    <glyph glyph-name="eight" unicode="8" horiz-adv-x="462" 
d="M302 661h1c88 0 147 -58 147 -140c0 -81 -56 -141 -134 -178v-3c73 -39 101 -99 101 -161c0 -119 -104 -190 -209 -190c-111 0 -180 68 -180 158c0 105 78 171 160 203v4c-55 39 -74 83 -74 130c0 96 81 177 188 177zM208 26h1c93 0 161 62 161 150
c0 73 -38 120 -133 153c-79 -20 -162 -77 -162 -178c0 -63 42 -125 133 -125zM294 624h-1c-77 0 -135 -63 -135 -135c0 -57 30 -100 107 -127c78 25 138 81 138 153c0 47 -21 109 -109 109z" />
    <glyph glyph-name="nine" unicode="9" horiz-adv-x="462" 
d="M61 -11l5 42c18 0 41 1 62 6c47 9 98 34 145 79c48 43 95 110 129 205h-4c-46 -57 -108 -86 -165 -86c-109 0 -148 91 -148 165c0 127 100 261 226 261c112 0 154 -91 154 -191c0 -167 -99 -324 -170 -387c-50 -44 -108 -73 -163 -86c-22 -5 -49 -8 -71 -8zM306 622h-1
c-95 0 -173 -105 -173 -219c0 -72 34 -128 111 -128c62 0 119 37 156 94c5 9 10 17 13 28c4 19 7 46 7 76c0 86 -30 149 -113 149z" />
    <glyph glyph-name="colon" unicode=":" horiz-adv-x="181" 
d="M133 361h-1c-22 0 -38 20 -38 44c0 26 18 46 42 46c25 0 39 -20 39 -44s-16 -46 -42 -46zM62 -11h-1c-22 0 -38 20 -38 44c0 26 18 46 42 46c25 0 39 -20 39 -44s-16 -46 -42 -46z" />
    <glyph glyph-name="semicolon" unicode=";" horiz-adv-x="181" 
d="M5 -121l-39 -5c24 42 70 150 89 212l63 10c-30 -75 -92 -189 -113 -217zM138 361h-1c-22 0 -38 20 -38 44c0 26 18 46 42 46c25 0 39 -20 39 -44s-16 -46 -42 -46z" />
    <glyph glyph-name="less" unicode="&#x3c;" horiz-adv-x="596" 
d="M95 248v34l431 249v-45l-385 -220v-2l385 -219v-45z" />
    <glyph glyph-name="equal" unicode="=" horiz-adv-x="596" 
d="M558 347h-494v38h494v-38zM558 155h-494v38h494v-38z" />
    <glyph glyph-name="greater" unicode="&#x3e;" horiz-adv-x="596" 
d="M534 282v-34l-431 -248v45l385 219v2l-385 220v45z" />
    <glyph glyph-name="question" unicode="?" horiz-adv-x="351" 
d="M169 175h-44c1 9 2 18 2 26c3 54 33 121 101 192c49 51 92 101 92 168c0 40 -20 83 -87 83c-34 0 -65 -9 -94 -27l-14 36c39 22 78 33 117 33c97 0 126 -71 126 -119c0 -77 -46 -137 -109 -202c-56 -57 -81 -105 -86 -160c-1 -10 -2 -20 -4 -30zM118 -11h-1
c-22 0 -38 20 -38 44c0 26 18 46 42 46c25 0 39 -20 39 -44s-16 -46 -42 -46z" />
    <glyph glyph-name="at" unicode="@" horiz-adv-x="702" 
d="M445 258l25 124c-11 5 -32 10 -62 10c-102 0 -186 -95 -186 -205c0 -48 27 -84 78 -84c70 0 133 91 145 155zM488 -27l15 -35c-51 -32 -111 -43 -170 -43c-175 0 -301 121 -301 312c0 207 138 386 359 386c173 0 283 -123 283 -289c0 -153 -85 -238 -170 -238
c-35 0 -74 27 -67 94h-3c-39 -64 -86 -94 -150 -94c-54 0 -106 46 -106 122c0 126 104 241 239 241c42 0 74 -8 100 -19l-36 -179c-18 -87 -4 -127 33 -127c56 -2 116 75 116 191c0 155 -90 261 -246 261c-169 0 -308 -135 -308 -346c0 -166 104 -276 263 -276
c53 0 109 14 149 39z" />
    <glyph glyph-name="A" unicode="A" horiz-adv-x="537" 
d="M401 237h-256l-125 -237h-46l360 674h45l102 -674h-44zM167 276h228l-34 225c-5 34 -11 81 -14 119h-2c-19 -39 -34 -75 -56 -117z" />
    <glyph glyph-name="B" unicode="B" horiz-adv-x="480" 
d="M40 3l126 663c37 8 77 13 124 13c69 0 119 -17 149 -52c23 -27 30 -59 30 -94c0 -86 -73 -155 -151 -174v-3c58 -16 114 -65 113 -151c0 -67 -35 -123 -74 -154c-51 -41 -118 -56 -196 -56c-46 0 -90 3 -121 8zM205 635l-49 -258h70c108 0 195 60 195 158
c0 75 -55 107 -139 107c-34 0 -63 -2 -77 -7zM149 340l-57 -301c24 -4 52 -5 76 -5c111 -1 216 47 216 175c0 87 -73 131 -154 131h-81z" />
    <glyph glyph-name="C" unicode="C" horiz-adv-x="538" 
d="M470 62l10 -38c-39 -18 -101 -34 -173 -34c-164 0 -259 107 -259 276c0 111 42 234 128 316c70 66 158 102 258 102c76 0 130 -20 145 -35l-19 -35c-28 18 -77 31 -138 31c-78 0 -159 -33 -217 -90c-68 -67 -110 -174 -110 -281c0 -128 52 -245 221 -245
c53 0 114 11 154 33z" />
    <glyph glyph-name="D" unicode="D" horiz-adv-x="626" 
d="M39 2l126 664c48 8 100 13 156 13c116 0 204 -37 249 -100c25 -33 47 -89 48 -166c0 -117 -45 -243 -134 -322c-78 -67 -176 -96 -295 -96c-45 0 -100 1 -150 7zM203 633l-112 -594c38 -5 77 -5 102 -5c125 0 208 34 272 97c70 68 105 173 105 277
c0 127 -58 233 -256 233c-33 0 -81 -2 -111 -8z" />
    <glyph glyph-name="E" unicode="E" horiz-adv-x="441" 
d="M404 375l-8 -39h-248l-56 -297h280l-8 -39h-325l129 674h309l-8 -39h-264l-49 -260h248z" />
    <glyph glyph-name="F" unicode="F" horiz-adv-x="437" 
d="M39 0l129 674h309l-8 -39h-264l-51 -270h240l-7 -39h-241l-62 -326h-45z" />
    <glyph glyph-name="G" unicode="G" horiz-adv-x="592" 
d="M554 333l-57 -306c-31 -14 -97 -34 -172 -34c-97 0 -170 29 -218 90c-50 62 -58 135 -58 190c0 103 42 226 128 307c70 64 162 101 265 101c80 0 130 -20 147 -31l-17 -38c-37 20 -80 30 -141 30c-87 0 -169 -36 -232 -99c-66 -67 -103 -174 -103 -265
c0 -141 64 -246 241 -246c44 0 91 10 120 23l45 239h-156l7 39h201z" />
    <glyph glyph-name="H" unicode="H" horiz-adv-x="603" 
d="M167 674h46l-58 -297h351l57 297h45l-129 -674h-45l64 338h-350l-64 -338h-45z" />
    <glyph glyph-name="I" unicode="I" horiz-adv-x="208" 
d="M168 674h45l-129 -674h-45z" />
    <glyph glyph-name="J" unicode="J" horiz-adv-x="342" 
d="M220 203l89 471h45l-90 -475c-28 -150 -89 -210 -199 -210c-39 0 -79 10 -93 18l12 39c22 -11 50 -16 87 -16c76 0 124 41 149 173z" />
    <glyph glyph-name="K" unicode="K" horiz-adv-x="469" 
d="M39 0l129 674h45l-66 -344l5 1c25 28 49 52 71 74l268 269h57l-290 -289l183 -385h-49l-169 354l-86 -79l-53 -275h-45z" />
    <glyph glyph-name="L" unicode="L" horiz-adv-x="414" 
d="M39 0l129 674h45l-122 -635h280l-8 -39h-324z" />
    <glyph glyph-name="M" unicode="M" horiz-adv-x="754" 
d="M649 0h-44l52 417c8 59 23 161 32 206h-4c-27 -56 -62 -128 -99 -194l-239 -429h-33l-66 418c-13 80 -20 149 -26 205h-2c-11 -45 -33 -147 -48 -207l-107 -416h-45l178 674h52l73 -467c9 -54 17 -106 19 -141h3c16 35 41 84 71 137l260 471h55z" />
    <glyph glyph-name="N" unicode="N" horiz-adv-x="611" 
d="M83 0h-44l128 674h43l195 -458c31 -71 44 -114 57 -162l2 1c4 56 10 101 27 192l81 427h44l-128 -674h-41l-190 450c-35 79 -48 118 -61 170l-3 -1c-7 -62 -15 -112 -30 -195z" />
    <glyph glyph-name="O" unicode="O" horiz-adv-x="645" 
d="M294 -11h-1c-174 0 -245 135 -245 270c0 117 48 255 131 338c55 54 137 88 214 88c184 0 245 -139 245 -273c0 -114 -43 -248 -125 -331c-57 -58 -132 -92 -219 -92zM299 28h1c67 0 130 29 180 79c70 70 111 198 111 302c0 102 -32 237 -205 237c-69 0 -130 -30 -178 -78
c-71 -72 -113 -199 -113 -301c0 -119 52 -239 204 -239z" />
    <glyph glyph-name="P" unicode="P" horiz-adv-x="476" 
d="M39 0l127 666c35 8 80 13 128 13c68 0 126 -19 157 -56c23 -29 34 -63 34 -109c0 -70 -36 -133 -74 -167c-51 -45 -126 -66 -198 -66c-26 0 -49 1 -74 6l-55 -287h-45zM204 632l-58 -305c29 -6 50 -7 74 -7c131 0 219 80 219 192c0 91 -64 129 -154 129
c-36 0 -64 -3 -81 -9z" />
    <glyph glyph-name="Q" unicode="Q" horiz-adv-x="645" 
d="M563 -36l-20 -42c-86 18 -203 48 -223 56c-31 9 -41 11 -46 11c-125 6 -226 103 -226 270c0 116 47 253 129 336c55 55 138 90 216 90c185 0 245 -139 245 -273c0 -107 -41 -245 -122 -326c-41 -41 -100 -75 -148 -85v-3c70 -14 139 -27 195 -34zM294 28h1
c72 0 135 29 182 76c74 74 114 206 114 306c0 95 -30 236 -205 236c-68 0 -128 -29 -175 -75c-73 -73 -116 -203 -116 -305c0 -115 48 -238 199 -238z" />
    <glyph glyph-name="R" unicode="R" horiz-adv-x="486" 
d="M39 0l127 666c38 9 86 13 126 13c70 0 122 -20 151 -55c24 -27 35 -64 35 -99c0 -97 -81 -178 -165 -198v-2c51 -14 76 -69 80 -143c7 -105 12 -155 19 -182h-48c-3 12 -10 90 -13 165c-5 100 -43 146 -116 146h-92l-59 -311h-45zM205 633l-54 -285h83
c122 0 196 82 196 173c0 83 -60 121 -147 121c-37 0 -61 -3 -78 -9z" />
    <glyph glyph-name="S" unicode="S" horiz-adv-x="438" 
d="M19 35l19 37c34 -25 81 -43 133 -43c89 0 170 57 170 156c0 57 -27 102 -103 145c-95 51 -131 106 -131 169c0 111 94 185 204 185c56 0 105 -20 125 -36l-20 -36c-20 13 -59 33 -111 33c-93 0 -153 -68 -153 -135c0 -64 30 -99 109 -142c83 -46 125 -98 125 -182
c0 -96 -71 -196 -224 -196c-51 0 -117 20 -143 45z" />
    <glyph glyph-name="T" unicode="T" horiz-adv-x="441" 
d="M152 0l121 635h-209l8 39h462l-8 -39h-208l-121 -635h-45z" />
    <glyph glyph-name="U" unicode="U" horiz-adv-x="600" 
d="M168 674h45l-77 -407c-6 -30 -9 -61 -9 -87c0 -106 60 -151 142 -151c102 0 180 70 212 237l78 408h46l-80 -415c-39 -200 -145 -270 -264 -270c-94 0 -180 53 -180 189c0 29 3 61 9 92z" />
    <glyph glyph-name="V" unicode="V" horiz-adv-x="495" 
d="M213 0h-45l-83 674h45l61 -500c8 -68 12 -90 11 -119h3c12 27 26 64 64 135l254 484h49z" />
    <glyph glyph-name="W" unicode="W" horiz-adv-x="807" 
d="M183 0h-45l-38 674h45l23 -468c5 -91 3 -118 3 -149h2c11 30 23 59 63 143l228 474h46l24 -441c5 -92 6 -145 6 -176h2c18 51 35 93 61 148l222 469h47l-323 -674h-45l-25 450c-5 77 -5 97 -1 175h-3c-21 -60 -35 -98 -59 -146z" />
    <glyph glyph-name="X" unicode="X" horiz-adv-x="492" 
d="M435 0h-48l-75 187c-21 46 -37 88 -48 119h-2c-20 -28 -48 -66 -85 -114l-146 -192h-54l269 342l-131 332h48l78 -200c16 -40 28 -70 36 -97h2c19 26 46 63 71 96l160 201h55l-269 -330z" />
    <glyph glyph-name="Y" unicode="Y" horiz-adv-x="484" 
d="M212 0h-45l54 283l-129 391h48l79 -247c20 -62 26 -86 30 -107h2c14 22 39 61 74 111l173 243h51l-284 -392z" />
    <glyph glyph-name="Z" unicode="Z" horiz-adv-x="504" 
d="M-16 0l6 31l498 601l-1 3h-349l8 39h410l-7 -32l-497 -600l2 -3h386l-8 -39h-448z" />
    <glyph glyph-name="bracketleft" unicode="[" horiz-adv-x="265" 
d="M191 -112h-159l152 798h159l-7 -36h-117l-138 -726h117z" />
    <glyph glyph-name="backslash" unicode="\" horiz-adv-x="324" 
d="M307 -40h-44l-197 725h43z" />
    <glyph glyph-name="bracketright" unicode="]" horiz-adv-x="265" 
d="M99 686h159l-152 -798h-159l7 36h117l138 726h-117z" />
    <glyph glyph-name="asciicircum" unicode="^" horiz-adv-x="596" 
d="M528 196h-43l-175 408h-2l-175 -408h-43l199 454l41 -1z" />
    <glyph glyph-name="underscore" unicode="_" horiz-adv-x="500" 
d="M-45 -75h500l-10 -50h-500z" />
    <glyph glyph-name="quoteleft" unicode="&#x2018;" horiz-adv-x="156" 
d="M137 480l-59 -10c32 75 94 189 116 217l34 5c-24 -42 -71 -150 -91 -212z" />
    <glyph glyph-name="a" unicode="a" horiz-adv-x="503" 
d="M403 0h-44c-1 30 5 83 14 143h-2c-57 -113 -127 -154 -202 -154c-85 0 -134 68 -134 153c0 171 133 349 325 349c40 0 83 -6 112 -14l-48 -250c-19 -97 -24 -178 -21 -227zM389 277l32 167c-12 4 -33 8 -69 8c-146 0 -269 -140 -270 -302c-1 -57 18 -122 97 -122
c86 0 185 115 210 249z" />
    <glyph glyph-name="b" unicode="b" horiz-adv-x="503" 
d="M166 710h45l-68 -335l2 -1c48 79 115 117 183 117c108 0 146 -90 146 -174c0 -143 -110 -328 -289 -328c-66 0 -133 27 -133 118c0 19 4 46 7 66zM116 234l-13 -59c-3 -16 -6 -36 -6 -65c0 -53 30 -82 93 -82c151 0 237 169 237 290c0 67 -30 134 -110 134
c-84 0 -172 -88 -201 -218z" />
    <glyph glyph-name="c" unicode="c" horiz-adv-x="416" 
d="M341 60l13 -38c-21 -11 -72 -32 -142 -32c-127 0 -174 90 -174 178c0 160 117 323 283 323c47 0 91 -17 101 -26l-16 -38c-21 11 -51 22 -92 22c-140 0 -229 -146 -229 -274c0 -85 40 -146 135 -146c54 0 97 18 121 31z" />
    <glyph glyph-name="d" unicode="d" horiz-adv-x="503" 
d="M471 710h45l-110 -579c-8 -43 -16 -91 -19 -131h-42l17 106h-2c-45 -71 -106 -117 -183 -117c-100 0 -141 84 -141 171c0 173 131 331 294 331c37 0 76 -8 97 -19zM382 237l36 192c-19 13 -51 23 -92 23c-135 0 -243 -138 -243 -288c0 -58 16 -136 106 -136
c77 0 171 91 193 209z" />
    <glyph glyph-name="e" unicode="e" horiz-adv-x="423" 
d="M336 64l14 -36c-25 -16 -75 -38 -146 -38c-122 0 -168 93 -168 187c0 143 109 314 252 314c87 0 124 -54 124 -110c0 -128 -156 -154 -325 -152c-7 -25 -5 -85 6 -118c20 -55 62 -82 117 -82c60 0 102 20 126 35zM366 378v1c0 48 -36 73 -86 73c-87 0 -160 -90 -186 -185
c142 -2 272 17 272 111z" />
    <glyph glyph-name="f" unicode="f" horiz-adv-x="255" 
d="M91 0h-45l84 443h-65l7 37h66l5 26c12 73 37 136 77 175c25 23 61 40 99 40c33 0 52 -7 61 -13l-14 -37c-13 7 -31 10 -50 10c-78 0 -112 -79 -129 -178l-4 -23h115l-8 -37h-115z" />
    <glyph glyph-name="g" unicode="g" horiz-adv-x="503" 
d="M8 -173l17 38c30 -21 72 -35 128 -35c88 0 158 47 192 198l20 92h-3c-45 -82 -113 -122 -185 -122c-97 0 -142 84 -142 164c0 166 124 329 295 329c48 0 109 -17 139 -33l-74 -398c-21 -110 -49 -175 -95 -216c-45 -42 -107 -53 -156 -53c-55 0 -108 15 -136 36zM384 251
l35 180c-18 9 -54 21 -98 21c-142 0 -238 -145 -239 -281c-1 -56 17 -134 109 -134c86 0 174 113 193 214z" />
    <glyph glyph-name="h" unicode="h" horiz-adv-x="516" 
d="M83 0h-45l135 710h46l-65 -329h2c43 68 105 110 184 110c42 0 118 -24 118 -128c0 -27 -3 -55 -7 -78l-54 -285h-45l54 287c4 16 7 40 7 70c0 52 -26 94 -91 94c-73 0 -171 -83 -192 -197z" />
    <glyph glyph-name="i" unicode="i" horiz-adv-x="206" 
d="M83 0h-45l92 480h45zM176 577h-1c-21 0 -33 19 -33 40c1 22 16 41 38 41s35 -18 35 -41c-2 -21 -15 -40 -39 -40z" />
    <glyph glyph-name="j" unicode="j" horiz-adv-x="197" 
d="M129 480h45l-93 -487c-15 -79 -31 -128 -58 -158c-26 -29 -61 -44 -97 -44c-20 0 -34 1 -46 5l6 38c8 -2 23 -4 42 -4c47 0 83 31 103 139zM171 577h-1c-21 0 -33 19 -33 40c1 22 16 41 38 41s35 -18 35 -41c-2 -21 -15 -40 -39 -40z" />
    <glyph glyph-name="k" unicode="k" horiz-adv-x="411" 
d="M83 0h-45l135 710h45l-87 -458h2c14 16 34 34 46 45l198 183h56l-213 -197l150 -283h-49l-135 256l-66 -56z" />
    <glyph glyph-name="l" unicode="l" horiz-adv-x="206" 
d="M83 0h-45l136 710h45z" />
    <glyph glyph-name="m" unicode="m" horiz-adv-x="794" 
d="M83 0h-45l67 351c9 48 15 91 20 129h42l-15 -97h3c45 70 107 108 172 108c71 0 108 -45 111 -117c43 74 104 115 183 117c44 0 116 -28 116 -124c0 -23 -3 -52 -8 -81l-54 -286h-45l54 286c3 18 7 44 7 65c0 62 -22 100 -88 100c-68 0 -154 -73 -175 -187l-49 -264h-45
l57 293c4 23 6 41 6 61c0 45 -12 97 -89 97c-67 0 -158 -87 -177 -194z" />
    <glyph glyph-name="n" unicode="n" horiz-adv-x="516" 
d="M83 0h-45l66 351c10 48 16 91 21 129h42l-15 -103h2c42 70 110 114 185 114c43 0 120 -23 120 -134c0 -22 -4 -49 -9 -76l-53 -281h-45l54 285c3 20 7 44 7 66c0 57 -23 100 -92 100c-68 0 -170 -78 -193 -205z" />
    <glyph glyph-name="o" unicode="o" horiz-adv-x="500" 
d="M217 -11h-1c-119 0 -178 96 -178 196c0 154 107 306 254 306c129 0 178 -104 178 -201c0 -131 -96 -301 -253 -301zM221 28h1c109 0 201 133 201 263c0 63 -30 161 -135 161c-117 0 -203 -131 -203 -263c0 -92 53 -161 136 -161z" />
    <glyph glyph-name="p" unicode="p" horiz-adv-x="503" 
d="M36 -198h-45l99 518c11 58 19 112 26 160h43l-16 -103h2c46 71 113 114 184 114c104 0 144 -86 144 -168c0 -170 -128 -334 -283 -334c-59 0 -93 12 -113 23h-2zM113 209l-28 -152c24 -19 62 -29 108 -29c126 0 233 147 233 292c0 58 -26 132 -111 132
c-72 0 -172 -83 -202 -243z" />
    <glyph glyph-name="q" unicode="q" horiz-adv-x="503" 
d="M343 -198h-45l58 297h-2c-42 -69 -114 -110 -178 -110c-100 0 -140 86 -140 170c0 165 128 332 293 332c60 0 112 -16 138 -33zM382 242l36 189c-17 11 -52 21 -96 21c-124 0 -238 -126 -239 -288c-1 -85 38 -136 97 -136c96 0 183 108 202 214z" />
    <glyph glyph-name="r" unicode="r" horiz-adv-x="287" 
d="M83 0h-45l62 324c10 56 18 109 24 156h41c-5 -34 -9 -68 -16 -108h3c30 67 80 119 143 119c7 0 17 -1 22 -2l-9 -46c-5 1 -12 2 -22 2c-60 0 -137 -90 -159 -212z" />
    <glyph glyph-name="s" unicode="s" horiz-adv-x="346" 
d="M17 20l16 37c20 -14 55 -28 90 -28c65 0 110 46 110 100c0 46 -18 74 -71 106c-55 33 -77 76 -77 119c0 74 64 137 150 137c36 0 71 -12 86 -23l-17 -38c-14 9 -42 22 -74 22c-58 0 -100 -41 -100 -91c0 -45 25 -69 70 -97c54 -33 79 -77 79 -123
c0 -95 -75 -151 -160 -151c-46 0 -85 16 -102 30z" />
    <glyph glyph-name="t" unicode="t" horiz-adv-x="292" 
d="M164 568l49 18l-20 -106h122l-7 -37h-123l-52 -277c-6 -32 -10 -57 -10 -87c0 -32 16 -50 48 -50c16 0 29 1 39 5l4 -36c-13 -5 -32 -8 -52 -8c-65 0 -86 45 -86 87c0 29 4 57 11 91l53 275h-73l7 37h74z" />
    <glyph glyph-name="u" unicode="u" horiz-adv-x="506" 
d="M428 480h45l-67 -351c-9 -48 -15 -91 -19 -129h-42l15 99h-2c-39 -63 -105 -110 -172 -110c-53 0 -129 21 -129 142c0 21 3 45 9 76l52 273h45l-52 -274c-6 -30 -9 -52 -9 -75c0 -61 25 -101 94 -101c68 0 161 78 182 189z" />
    <glyph glyph-name="v" unicode="v" horiz-adv-x="420" 
d="M55 480h45l53 -313c9 -52 16 -90 17 -110h3c9 20 21 48 50 100l177 323h48l-267 -480h-42z" />
    <glyph glyph-name="w" unicode="w" horiz-adv-x="691" 
d="M67 480h43l27 -312c6 -62 6 -84 6 -114h3c8 19 23 56 49 103l173 323h45l42 -319c6 -50 10 -88 11 -107h2c11 29 22 60 41 100l160 326h47l-240 -480h-41l-43 319c-6 41 -10 79 -9 112h-2c-17 -33 -32 -70 -55 -112l-173 -319h-42z" />
    <glyph glyph-name="x" unicode="x" horiz-adv-x="405" 
d="M72 480h48l58 -125c13 -27 22 -50 33 -75h3c19 27 28 41 53 70l111 130h53l-203 -234l115 -246h-49l-59 128c-18 37 -24 52 -37 85h-3c-14 -24 -29 -45 -50 -69l-122 -144h-53l213 246z" />
    <glyph glyph-name="y" unicode="y" horiz-adv-x="406" 
d="M50 480h47l59 -289c12 -59 19 -95 25 -134h3c14 31 30 67 56 121l146 302h48l-186 -378c-44 -89 -87 -172 -153 -239c-52 -54 -106 -77 -131 -83l-13 39c20 7 57 22 92 51c33 27 72 72 103 128c4 9 3 14 2 21z" />
    <glyph glyph-name="z" unicode="z" horiz-adv-x="393" 
d="M-19 0l5 29l282 318c41 46 65 68 89 92v4h-272l8 37h326l-7 -32l-279 -315c-43 -48 -65 -70 -88 -93v-3h292l-8 -37h-348z" />
    <glyph glyph-name="braceleft" unicode="{" horiz-adv-x="265" 
d="M34 271l6 34c69 -2 88 39 95 79c11 58 4 114 15 173c17 91 76 129 152 129h15l-7 -36h-19c-57 0 -87 -34 -99 -96c-11 -55 -3 -108 -13 -161c-10 -61 -41 -94 -82 -105v-2c36 -11 46 -41 46 -68c0 -37 -13 -79 -28 -118c-15 -38 -29 -75 -29 -104c0 -39 18 -71 68 -72h17
l-6 -36h-12c-65 0 -109 38 -109 100c0 40 15 81 30 120c14 39 28 76 28 107c0 13 1 58 -68 56z" />
    <glyph glyph-name="bar" unicode="|" horiz-adv-x="203" 
d="M100 750h40v-1000h-40v1000z" />
    <glyph glyph-name="braceright" unicode="}" horiz-adv-x="265" 
d="M245 303l-6 -34c-69 2 -88 -39 -95 -79c-11 -58 -4 -114 -15 -173c-17 -91 -76 -129 -152 -129h-15l7 36h19c57 0 87 35 99 96c11 55 3 108 13 161c10 60 41 94 82 105v2c-36 12 -46 43 -46 70c0 34 15 75 28 114c14 40 28 78 28 105c0 40 -17 72 -67 73h-18l7 36h11
c65 0 109 -38 109 -100c0 -43 -14 -84 -29 -122c-14 -38 -28 -73 -28 -105c0 -13 -1 -58 68 -56z" />
    <glyph glyph-name="asciitilde" unicode="~" horiz-adv-x="596" 
d="M111 224h-38c-5 76 46 124 106 124c30 0 70 -10 132 -40c51 -25 95 -43 139 -43s64 32 63 82h37c5 -90 -49 -124 -104 -124c-29 0 -73 10 -136 40c-46 23 -91 43 -136 43c-35 0 -63 -28 -63 -82z" />
    <glyph glyph-name="exclamdown" unicode="&#xa1;" horiz-adv-x="215" 
d="M55 -198h-57l104 494h39zM151 485h1c22 0 38 -20 38 -44c0 -26 -18 -46 -42 -46c-25 0 -39 20 -39 44s16 46 42 46z" />
    <glyph glyph-name="cent" unicode="&#xa2;" horiz-adv-x="462" 
d="M244 -16h-39l20 105c-54 8 -89 33 -113 67c-23 33 -32 76 -32 115c0 150 109 285 242 299l19 104h39l-19 -103c34 0 78 -14 93 -28l-19 -35c-24 14 -56 26 -103 26c-98 0 -205 -113 -205 -263c0 -79 41 -145 133 -145c49 0 86 14 111 25l9 -35c-18 -12 -69 -27 -116 -27z
" />
    <glyph glyph-name="sterling" unicode="&#xa3;" horiz-adv-x="462" 
d="M407 0h-376l6 33c72 36 121 108 135 185c5 27 6 60 8 95h-88l7 37h83c1 33 2 82 11 132c20 112 88 179 190 179c35 0 67 -11 82 -21l-17 -36c-18 10 -46 18 -76 18c-77 0 -122 -56 -136 -141c-8 -50 -9 -93 -10 -131h155l-7 -37h-150c-1 -28 -3 -58 -9 -92
c-14 -70 -49 -131 -109 -178v-3h308z" />
    <glyph glyph-name="fraction" unicode="&#x2044;" horiz-adv-x="389" 
d="M-7 -11h-45l486 672h45z" />
    <glyph glyph-name="fraction" unicode="&#x2215;" horiz-adv-x="389" 
d="M-7 -11h-45l486 672h45z" />
    <glyph glyph-name="yen" unicode="&#xa5;" horiz-adv-x="462" 
d="M203 0h-43l35 186h-144l7 35h144l15 79h-144l7 35h127l-101 315h44l73 -234c9 -32 17 -53 24 -81h3c14 25 33 54 54 84l167 231h49l-233 -315h125l-7 -35h-145l-15 -79h145l-7 -35h-145z" />
    <glyph glyph-name="florin" unicode="&#x192;" horiz-adv-x="462" 
d="M131 358l7 37h96l15 55c34 128 79 211 187 211c31 -2 47 -7 59 -15l-15 -36c-16 7 -33 12 -57 12c-74 0 -110 -81 -135 -185l-10 -42h125l-7 -37h-126l-56 -220c-35 -134 -77 -218 -173 -218c-26 0 -55 8 -68 16l13 34c15 -9 38 -13 60 -13c61 0 95 72 121 173l59 228
h-95z" />
    <glyph glyph-name="section" unicode="&#xa7;" horiz-adv-x="468" 
d="M134 360v-2c0 -39 13 -67 88 -106c42 -21 67 -38 88 -56c38 25 65 64 65 105c0 31 -9 66 -86 108c-27 14 -59 32 -84 51c-46 -25 -71 -64 -71 -100zM439 653l-18 -34c-21 15 -53 30 -100 30c-59 0 -116 -39 -116 -96c0 -52 38 -74 104 -107c68 -35 108 -71 108 -134
c0 -66 -37 -107 -84 -140c13 -19 20 -45 20 -70c0 -103 -85 -153 -175 -152c-54 0 -104 18 -124 35l17 36c23 -14 57 -35 113 -35c72 0 128 43 128 109c0 39 -17 73 -101 116c-78 39 -121 78 -121 137c0 50 33 98 93 136c-12 17 -21 37 -21 62c0 80 74 139 167 139
c49 0 93 -18 110 -32z" />
    <glyph glyph-name="currency" unicode="&#xa4;" horiz-adv-x="462" 
d="M252 524h1c46 0 90 -17 116 -43l66 68l30 -32l-70 -64c22 -28 36 -74 36 -121c0 -52 -15 -97 -35 -123l69 -66l-31 -32l-65 69c-31 -30 -77 -44 -117 -44c-42 0 -88 15 -113 40l-62 -65l-32 32l65 63c-21 27 -37 70 -37 120c0 52 17 97 41 127l-69 64l32 32l63 -68
c27 27 70 43 112 43zM252 487h-1c-87 0 -135 -76 -135 -158c0 -113 77 -156 136 -156c67 -1 136 42 136 158c0 76 -42 156 -136 156z" />
    <glyph glyph-name="quotesingle" unicode="'" horiz-adv-x="147" 
d="M134 692h57l-55 -221h-32z" />
    <glyph glyph-name="quotedblleft" unicode="&#x201c;" horiz-adv-x="277" 
d="M137 480l-59 -10c32 75 95 189 116 217l35 5c-24 -42 -71 -150 -92 -212zM257 480l-59 -10c32 75 95 189 116 217l35 5c-24 -42 -71 -150 -92 -212z" />
    <glyph glyph-name="guillemotleft" unicode="&#xab;" horiz-adv-x="377" 
d="M244 432l-157 -181l106 -179h-46l-108 180l156 180h49zM390 432l-157 -181l106 -179h-46l-108 180l155 180h50z" />
    <glyph glyph-name="guilsinglleft" unicode="&#x2039;" horiz-adv-x="231" 
d="M244 432l-157 -181l106 -179h-46l-108 180l156 180h49z" />
    <glyph glyph-name="guilsinglright" unicode="&#x203a;" horiz-adv-x="231" 
d="M166 254l-106 178h46l108 -180l-156 -180h-49z" />
    <glyph glyph-name="endash" unicode="&#x2013;" horiz-adv-x="500" 
d="M41 274h440l-8 -39h-440z" />
    <glyph glyph-name="dagger" unicode="&#x2020;" horiz-adv-x="460" 
d="M293 674h46l-46 -217l165 4l-9 -43l-163 4l-86 -471h-46l95 471l-164 -4l8 43l163 -4z" />
    <glyph glyph-name="daggerdbl" unicode="&#x2021;" horiz-adv-x="460" 
d="M293 674h46l-44 -210l164 4l-8 -43l-163 4l-44 -231l164 4l-8 -43l-163 4l-37 -213h-46l45 213l-164 -4l9 43l162 -4l44 231l-164 -4l8 43l163 -4z" />
    <glyph glyph-name="periodcentered" unicode="&#xb7;" horiz-adv-x="181" 
d="M96 218h-1c-22 0 -38 20 -38 44c0 26 18 46 42 46c25 0 39 -20 39 -44s-16 -46 -42 -46z" />
    <glyph glyph-name="periodcentered" unicode="&#x2219;" horiz-adv-x="181" 
d="M96 218h-1c-22 0 -38 20 -38 44c0 26 18 46 42 46c25 0 39 -20 39 -44s-16 -46 -42 -46z" />
    <glyph glyph-name="paragraph" unicode="&#xb6;" horiz-adv-x="468" 
d="M209 -51h-39l60 315h-8c-53 1 -145 52 -145 175s100 235 295 235c40 0 70 -3 88 -7l-138 -718h-40l131 686h-72z" />
    <glyph glyph-name="bullet" unicode="&#x2022;" horiz-adv-x="240" 
d="M129 178h-1c-48 0 -88 39 -88 89c-1 49 40 89 89 89c50 0 90 -40 90 -89s-40 -89 -90 -89z" />
    <glyph glyph-name="quotesinglbase" unicode="&#x201a;" horiz-adv-x="156" 
d="M-17 -121l-35 -5c24 42 72 150 91 212l59 10c-31 -75 -94 -189 -115 -217z" />
    <glyph glyph-name="quotedblbase" unicode="&#x201e;" horiz-adv-x="277" 
d="M-17 -121l-35 -5c24 42 71 150 91 212l59 10c-31 -75 -95 -189 -115 -217zM103 -121l-35 -5c24 42 72 150 91 212l59 10c-31 -75 -94 -189 -115 -217z" />
    <glyph glyph-name="quotedblright" unicode="&#x201d;" horiz-adv-x="277" 
d="M157 682l59 10c-32 -75 -95 -189 -116 -217l-35 -5c24 42 72 150 92 212zM277 682l59 10c-32 -75 -95 -189 -116 -217l-35 -5c24 42 72 150 92 212z" />
    <glyph glyph-name="guillemotright" unicode="&#xbb;" horiz-adv-x="377" 
d="M166 254l-106 178h46l108 -180l-156 -180h-49zM312 254l-106 178h46l108 -180l-156 -180h-49z" />
    <glyph glyph-name="ellipsis" unicode="&#x2026;" horiz-adv-x="1000" 
d="M128 -11h-1c-22 0 -38 20 -38 44c0 26 18 46 42 46c25 0 39 -20 39 -44s-16 -46 -42 -46zM461 -11h-1c-22 0 -38 20 -38 44c0 26 18 46 42 46c25 0 39 -20 39 -44s-16 -46 -42 -46zM794 -11h-1c-22 0 -38 20 -38 44c0 26 18 46 42 46c25 0 39 -20 39 -44s-16 -46 -42 -46
z" />
    <glyph glyph-name="perthousand" unicode="&#x2030;" horiz-adv-x="1040" 
d="M246 661h1c77 0 104 -68 104 -127c0 -143 -66 -271 -169 -271c-71 0 -107 58 -107 139c0 119 64 259 171 259zM240 627h-1c-72 0 -122 -120 -122 -226c0 -52 14 -104 72 -104c72 0 120 123 120 228c0 42 -12 102 -69 102zM149 -13h-44l496 676h44zM574 393h1
c76 0 103 -68 103 -127c0 -143 -66 -271 -168 -271c-71 0 -107 58 -107 139c0 119 64 259 171 259zM567 359h-1c-72 0 -121 -120 -121 -226c0 -52 14 -104 72 -104c71 0 119 123 119 228c0 42 -12 102 -69 102zM903 393h1c76 0 103 -68 103 -127c0 -143 -66 -271 -168 -271
c-71 0 -107 58 -107 139c0 119 64 259 171 259zM896 359h-1c-72 0 -121 -120 -121 -226c0 -52 14 -104 72 -104c71 0 119 123 119 228c0 42 -12 102 -69 102z" />
    <glyph glyph-name="questiondown" unicode="&#xbf;" horiz-adv-x="351" 
d="M203 299h44c0 -9 -1 -17 -2 -26c-2 -55 -35 -121 -104 -192c-48 -50 -88 -104 -88 -167c0 -43 21 -85 87 -85c32 0 64 9 94 27l14 -38c-38 -20 -79 -31 -114 -31c-103 0 -129 76 -129 127c0 66 45 131 107 195c56 57 82 105 87 159zM252 485h1c22 0 38 -20 38 -44
c0 -26 -18 -46 -42 -46c-25 0 -39 20 -39 44s16 46 42 46z" />
    <glyph glyph-name="grave" unicode="`" 
d="M160 678h66l61 -138h-33z" />
    <glyph glyph-name="acute" unicode="&#xb4;" 
d="M317 678h74l-135 -138h-40z" />
    <glyph glyph-name="circumflex" unicode="&#x2c6;" 
d="M255 678h35l65 -138h-43l-44 99h-2l-78 -99h-46z" />
    <glyph glyph-name="tilde" unicode="&#x2dc;" 
d="M181 574h-34c4 44 26 84 65 84c25 0 37 -10 61 -23c14 -9 27 -16 41 -16c16 0 24 9 28 41h33c-5 -46 -21 -80 -63 -80c-22 0 -41 10 -57 21c-13 8 -27 18 -44 18c-20 0 -26 -18 -30 -45z" />
    <glyph glyph-name="macron" unicode="&#xaf;" 
d="M168 635h202l-7 -38h-202z" />
    <glyph glyph-name="macron" unicode="&#x2c9;" 
d="M168 635h202l-7 -38h-202z" />
    <glyph glyph-name="breve" unicode="&#x2d8;" 
d="M164 678h36c-4 -41 19 -75 60 -75c53 0 79 40 89 75h38c-12 -70 -66 -114 -125 -114c-87 0 -106 62 -98 114z" />
    <glyph glyph-name="dotaccent" unicode="&#x2d9;" 
d="M261 580h-1c-21 0 -34 18 -34 38c0 21 17 40 38 40c22 0 35 -18 35 -38c0 -21 -13 -40 -38 -40z" />
    <glyph glyph-name="dieresis" unicode="&#xa8;" 
d="M178 580h-1c-22 0 -35 18 -35 38c0 21 17 40 38 40c22 0 36 -18 36 -38s-14 -40 -38 -40zM347 580h-1c-21 0 -34 18 -34 38c0 21 16 40 38 40s35 -18 35 -38s-13 -40 -38 -40z" />
    <glyph glyph-name="ring" unicode="&#x2da;" horiz-adv-x="377" 
d="M266 710h1c51 0 88 -37 88 -89c0 -53 -46 -89 -91 -89c-52 0 -90 38 -90 86c0 52 40 92 92 92zM265 680h-1c-30 0 -52 -26 -52 -61c0 -30 21 -57 51 -57c31 0 54 26 54 63c0 30 -21 55 -52 55z" />
    <glyph glyph-name="cedilla" unicode="&#xb8;" 
d="M139 2h37l-42 -56c30 -7 50 -31 50 -63c0 -46 -42 -81 -99 -81c-24 0 -47 7 -58 15l15 35c14 -9 32 -13 51 -13c26 0 48 15 48 41c0 23 -26 36 -63 40z" />
    <glyph glyph-name="hungarumlaut" unicode="&#x2dd;" 
d="M276 678h67l-129 -138h-37zM403 678h66l-129 -138h-37z" />
    <glyph glyph-name="ogonek" unicode="&#x2db;" 
d="M145 1h48c-42 -29 -91 -83 -91 -127c0 -22 14 -35 35 -35c15 0 29 3 43 10l9 -29c-22 -13 -42 -18 -66 -18c-41 0 -67 26 -67 63c0 62 61 115 89 136z" />
    <glyph glyph-name="caron" unicode="&#x2c7;" 
d="M268 540h-36l-66 138h43l45 -100h3l79 100h46z" />
    <glyph glyph-name="emdash" unicode="&#x2014;" horiz-adv-x="1000" 
d="M41 274h940l-8 -39h-940z" />
    <glyph glyph-name="AE" unicode="&#xc6;" horiz-adv-x="728" 
d="M-5 0h-48l469 674h317l-8 -39h-248l-31 -261h236l-8 -39h-233l-34 -296h259l-8 -39h-298l30 271h-207zM210 309h186l25 213c4 33 10 82 15 116h-4c-19 -31 -44 -71 -71 -110z" />
    <glyph glyph-name="ordfeminine" unicode="&#xaa;" horiz-adv-x="319" 
d="M299 266h-37c0 19 1 46 6 72l-2 -1c-28 -48 -72 -76 -118 -76c-59 0 -91 49 -91 113c0 109 77 217 205 217c24 0 63 -6 82 -13l-37 -210c-6 -37 -8 -74 -8 -102zM280 431l23 119c-13 4 -30 7 -53 7c-78 0 -152 -71 -152 -178c-1 -40 12 -83 61 -83c52 0 109 61 121 135z
" />
    <glyph glyph-name="Lslash" unicode="&#x141;" horiz-adv-x="417" 
d="M365 0h-323l55 291l-102 -68l9 44l101 67l65 340h45l-58 -305l144 97l-9 -45l-144 -97l-54 -285h279z" />
    <glyph glyph-name="Oslash" unicode="&#xd8;" horiz-adv-x="645" 
d="M40 -28l-25 24l81 89c-33 52 -48 102 -48 177c0 116 45 242 120 322c61 64 146 101 227 101c76 0 131 -22 171 -66l78 83l27 -23l-82 -89c36 -53 48 -113 48 -173c0 -116 -45 -249 -120 -330c-57 -62 -140 -98 -223 -98c-74 0 -132 23 -176 68zM130 123l408 462
c-32 38 -76 61 -152 61c-125 0 -233 -107 -272 -249c-25 -89 -27 -190 14 -274h2zM556 549l-407 -460c35 -39 80 -61 156 -61c111 0 218 96 262 236c26 84 36 194 -9 285h-2z" />
    <glyph glyph-name="OE" unicode="&#x152;" horiz-adv-x="841" 
d="M770 39l-7 -39h-304c-21 0 -43 -1 -67 -3c-19 -2 -39 -3 -66 -3c-197 0 -277 136 -277 284c0 194 129 402 406 402c24 0 44 0 70 -3c27 -2 44 -3 67 -3h283l-7 -39h-276l-49 -261h259l-7 -39h-260l-56 -296h291zM435 41l111 593c-22 5 -41 7 -95 7
c-237 0 -355 -177 -355 -359c0 -130 58 -249 248 -249c34 0 60 2 91 8z" />
    <glyph glyph-name="ordmasculine" unicode="&#xba;" horiz-adv-x="322" 
d="M220 591h1c93 0 128 -67 128 -133c0 -107 -75 -197 -171 -197c-89 0 -127 69 -127 131c0 112 81 199 169 199zM216 557h-1c-65 0 -122 -71 -122 -162c0 -65 38 -100 87 -100c62 0 126 62 126 165c0 41 -16 97 -90 97z" />
    <glyph glyph-name="ae" unicode="&#xe6;" horiz-adv-x="691" 
d="M602 62l14 -34c-23 -15 -70 -39 -145 -39c-81 0 -139 43 -156 120h-2c-37 -77 -108 -120 -184 -120c-82 0 -121 55 -122 117c0 118 116 192 316 183l4 23c10 59 -9 139 -100 139c-45 0 -80 -11 -120 -37l-14 34c56 36 107 43 139 43c81 0 129 -43 135 -117h2
c43 81 120 117 189 117c81 0 121 -50 121 -105c0 -130 -153 -140 -321 -135c-10 -49 -14 -99 2 -144c19 -53 63 -79 117 -79c67 0 101 20 125 34zM304 191l11 60c-102 6 -261 -17 -261 -142c0 -50 32 -81 82 -81c72 0 148 54 168 163zM633 384v1c0 35 -29 67 -80 67
c-99 0 -166 -95 -186 -163c140 -3 266 1 266 95z" />
    <glyph glyph-name="dotlessi" unicode="&#x131;" horiz-adv-x="206" 
d="M83 0h-45l92 480h45z" />
    <glyph glyph-name="lslash" unicode="&#x142;" horiz-adv-x="212" 
d="M87 0h-45l60 318l-77 -55l8 42l77 56l67 349h45l-59 -312l78 57l-8 -43l-78 -57z" />
    <glyph glyph-name="oslash" unicode="&#xf8;" horiz-adv-x="501" 
d="M49 -27l-25 23l54 62c-31 39 -40 87 -40 135c0 148 108 298 252 298c54 0 93 -17 118 -40l50 55l26 -21l-52 -61c30 -42 39 -91 39 -130c0 -158 -116 -305 -248 -305c-57 0 -95 17 -123 44zM112 95l267 322c-19 21 -51 35 -93 35c-120 0 -201 -137 -201 -257
c0 -43 6 -71 25 -101zM400 386l-271 -320c22 -24 55 -38 97 -38c97 0 198 124 198 260c0 37 -8 69 -22 98h-2z" />
    <glyph glyph-name="oe" unicode="&#x153;" horiz-adv-x="784" 
d="M697 65l14 -36c-23 -16 -77 -40 -143 -40c-83 0 -144 45 -159 131h-2c-44 -86 -120 -131 -198 -131c-110 0 -171 93 -171 196c0 151 102 306 254 306c90 0 145 -58 157 -136h2c47 90 132 136 203 136c95 0 120 -62 120 -105c0 -134 -163 -146 -323 -149
c-9 -41 -7 -91 6 -127c18 -49 56 -81 118 -81c56 0 98 21 122 36zM218 28h1c116 0 195 154 195 268c0 75 -28 156 -127 156c-121 0 -202 -135 -202 -262c0 -95 52 -162 133 -162zM728 383v1c0 41 -34 68 -83 68c-93 0 -161 -91 -187 -178c131 2 270 10 270 109z" />
    <glyph glyph-name="germandbls" unicode="&#xdf;" horiz-adv-x="513" 
d="M83 0h-45l89 468c25 132 82 253 223 253c91 0 137 -61 137 -131c0 -45 -23 -92 -40 -110c-52 -16 -97 -49 -97 -100c0 -36 16 -58 42 -91c33 -41 55 -81 55 -130c0 -100 -85 -170 -188 -170c-34 0 -68 8 -92 24l15 36c26 -14 57 -21 81 -21c76 0 137 51 137 128
c0 31 -9 65 -43 103c-39 46 -54 79 -54 110c0 68 51 115 113 139c11 11 25 41 25 81c0 45 -25 93 -99 93c-84 0 -142 -71 -167 -198z" />
    <glyph glyph-name="onesuperior" unicode="&#xb9;" horiz-adv-x="200" 
d="M172 406h-39l67 350h-2l-68 -33l-5 32l86 41h35z" />
    <glyph glyph-name="logicalnot" unicode="&#xac;" horiz-adv-x="596" 
d="M59 384h494v-255h-42v217h-452v38z" />
    <glyph glyph-name="mu" unicode="&#xb5;" horiz-adv-x="505" 
d="M165 480l-55 -293c-16 -87 8 -157 98 -157c60 0 117 61 148 118c12 23 22 48 26 73l49 259h45l-67 -353c-13 -73 -6 -96 27 -98l-12 -39c-9 -1 -6 -1 -14 -1c-32 0 -58 22 -48 106h-3c-30 -54 -90 -105 -160 -105c-50 0 -96 25 -114 75l-14 -77
c-10 -54 -24 -144 -20 -186h-41c-5 31 1 99 16 180l95 498h44z" />
    <glyph glyph-name="trademark" unicode="&#x2122;" horiz-adv-x="651" 
d="M104 674h220v-31h-92v-241h-36v241h-92v31zM657 402h-38l-13 185c-1 16 -2 36 -3 58h-2c-6 -16 -15 -44 -22 -65l-63 -174h-41l-64 179c-5 17 -14 43 -20 60h-2c0 -18 -1 -37 -2 -58l-13 -185h-36l22 272h53l64 -174c8 -20 13 -39 19 -57h2c6 19 13 41 18 55l64 176h53z
" />
    <glyph glyph-name="Eth" unicode="&#xd0;" horiz-adv-x="629" 
d="M16 336l9 39h88l55 291c53 8 109 13 163 13c109 0 197 -37 242 -100c25 -33 47 -89 48 -164c0 -113 -49 -243 -140 -321c-74 -64 -175 -97 -289 -97c-45 0 -100 1 -150 7l63 332h-89zM346 375l-8 -39h-188l-56 -295c38 -5 77 -5 107 -5c107 0 197 35 261 97
c72 68 111 177 111 279c0 123 -57 229 -256 229c-33 0 -74 0 -110 -6l-49 -260h188z" />
    <glyph glyph-name="onehalf" unicode="&#xbd;" horiz-adv-x="705" 
d="M166 266h-40l67 350h-2l-68 -33l-5 32l86 41h36zM110 -11h-45l486 672h45zM612 0h-238l5 28l72 59c99 83 165 141 165 211c0 29 -14 62 -66 62c-34 0 -66 -19 -83 -32l-14 28c28 22 67 39 106 39c71 0 100 -49 100 -97c0 -79 -85 -151 -179 -227l-42 -34v-2h181z" />
    <glyph glyph-name="plusminus" unicode="&#xb1;" horiz-adv-x="596" 
d="M296 567h40v-208h227v-38h-227v-216h-40v216h-227v38h227v208zM69 38h494v-38h-494v38z" />
    <glyph glyph-name="Thorn" unicode="&#xde;" horiz-adv-x="475" 
d="M39 0l129 674h44l-26 -138c26 6 56 9 87 9c69 0 120 -18 151 -54c24 -28 35 -64 35 -103c0 -139 -126 -222 -264 -222c-24 0 -53 1 -79 6l-33 -172h-44zM178 497l-54 -285c28 -6 55 -7 77 -7c111 0 212 70 212 178c0 87 -63 124 -150 124c-33 0 -69 -5 -85 -10z" />
    <glyph glyph-name="onequarter" unicode="&#xbc;" horiz-adv-x="705" 
d="M570 0h-40l21 111h-192l5 24l245 260h36l-48 -251h61l-6 -33h-61zM557 144l27 145c5 23 9 41 14 56h-2c-16 -20 -26 -35 -39 -51l-140 -149l-1 -1h141zM168 266h-40l67 350h-2l-68 -33l-5 32l86 41h36zM127 -11h-45l486 672h45z" />
    <glyph glyph-name="divide" unicode="&#xf7;" horiz-adv-x="596" 
d="M310 399h-1c-24 0 -41 20 -40 44c0 26 17 45 41 45c25 0 41 -19 41 -45c0 -24 -16 -44 -41 -44zM556 249h-493v38h493v-38zM310 48h-1c-24 0 -41 20 -40 44c0 26 17 45 41 45c25 0 41 -19 41 -45c0 -24 -16 -44 -41 -44z" />
    <glyph glyph-name="brokenbar" unicode="&#xa6;" horiz-adv-x="203" 
d="M100 174h40v-350h-40v350zM100 674h40v-350h-40v350z" />
    <glyph glyph-name="degree" unicode="&#xb0;" horiz-adv-x="294" 
d="M219 686h1c73 0 114 -57 114 -116c0 -77 -62 -125 -120 -125c-68 0 -114 55 -114 118c0 69 55 123 119 123zM217 653h-1c-52 0 -78 -51 -78 -89c0 -48 35 -86 77 -86c45 0 81 39 81 91c0 32 -20 84 -79 84z" />
    <glyph glyph-name="thorn" unicode="&#xfe;" horiz-adv-x="503" 
d="M-9 -198l164 863h45l-56 -288h2c48 73 114 114 183 114c102 0 144 -82 144 -169c0 -173 -132 -333 -284 -333c-37 0 -83 7 -110 23h-4l-39 -210h-45zM114 213l-30 -157c24 -19 68 -28 110 -28c125 0 232 148 232 290c0 61 -26 134 -108 134c-71 0 -173 -77 -204 -239z
" />
    <glyph glyph-name="threequarters" unicode="&#xbe;" horiz-adv-x="705" 
d="M163 -11h-45l486 672h45zM131 599l-11 29c21 17 60 33 95 33c71 0 96 -42 96 -83c0 -46 -37 -82 -87 -99l-1 -2c43 -12 67 -51 67 -91c-2 -71 -57 -125 -150 -125c-41 0 -78 13 -93 26l15 31c15 -10 44 -24 82 -24c70 0 105 45 105 90c0 55 -50 76 -95 76h-21l6 31h23
c48 0 107 34 107 82c0 31 -16 54 -63 54c-27 0 -57 -14 -75 -28zM581 0h-40l21 111h-191l4 24l245 260h36l-48 -251h61l-6 -33h-61zM568 144l28 145c4 23 9 41 13 56h-2c-15 -20 -25 -36 -39 -52l-140 -148v-1h140z" />
    <glyph glyph-name="twosuperior" unicode="&#xb2;" horiz-adv-x="273" 
d="M286 406h-238l5 28l72 59c99 82 165 141 165 211c0 29 -14 62 -66 62c-34 0 -66 -19 -83 -32l-14 28c28 22 67 39 106 39c71 0 100 -49 100 -97c0 -79 -84 -151 -179 -227l-42 -34v-2h181z" />
    <glyph glyph-name="registered" unicode="&#xae;" horiz-adv-x="386" 
d="M219 505v-70h-31v167c17 3 35 5 58 5c28 0 42 -5 52 -13c10 -7 17 -20 17 -36c0 -20 -15 -33 -32 -39v-2c14 -6 22 -19 27 -41c5 -25 9 -35 13 -41h-32c-5 6 -9 21 -14 43c-4 19 -15 27 -38 27h-20zM219 581v-52h21c22 0 43 7 43 26c0 16 -11 28 -40 28
c-12 0 -19 -1 -24 -2zM248 682h1c90 0 160 -70 160 -159c0 -91 -70 -161 -161 -161s-163 70 -163 161c0 89 72 159 163 159zM248 654h-1c-72 0 -127 -59 -127 -131c0 -74 55 -132 129 -132c71 -1 125 58 125 131s-54 132 -126 132z" />
    <glyph glyph-name="minus" unicode="&#x2212;" horiz-adv-x="596" 
d="M63 286h494v-38h-494v38z" />
    <glyph glyph-name="eth" unicode="&#xf0;" horiz-adv-x="491" 
d="M212 28h1c112 0 201 139 202 288c0 24 -2 54 -20 80c-20 31 -53 56 -107 56c-122 0 -204 -140 -204 -270c0 -83 42 -154 128 -154zM173 525l-14 32l131 62c-25 28 -58 51 -92 70l23 32c44 -24 72 -50 107 -82l125 60l16 -33l-114 -54c67 -76 106 -161 106 -272
c0 -222 -133 -351 -250 -351c-129 0 -174 101 -174 189c0 164 112 313 253 313c36 0 89 -11 121 -63h4c-21 65 -52 116 -101 165z" />
    <glyph glyph-name="multiply" unicode="&#xd7;" horiz-adv-x="596" 
d="M81 496l30 30l211 -236l214 236l29 -29l-216 -234l216 -233l-30 -30l-214 236l-214 -236l-26 31l212 232z" />
    <glyph glyph-name="threesuperior" unicode="&#xb3;" horiz-adv-x="263" 
d="M141 739l-12 29c21 17 60 33 95 33c71 0 96 -42 96 -83c0 -46 -37 -82 -86 -99l-1 -2c43 -12 68 -51 67 -91c-1 -71 -57 -125 -150 -125c-41 0 -78 13 -93 26l15 30c15 -9 44 -23 82 -23c70 0 105 44 105 90c0 55 -50 76 -95 76h-22l6 31h23c48 0 107 34 107 82
c0 31 -16 54 -63 54c-27 0 -57 -14 -74 -28z" />
    <glyph glyph-name="copyright" unicode="&#xa9;" horiz-adv-x="677" 
d="M372 648h1c167 0 296 -138 296 -308c0 -172 -129 -310 -297 -310c-169 0 -300 138 -300 310c0 170 131 308 300 308zM372 616h-1c-147 0 -259 -120 -259 -280c0 -155 112 -274 260 -274c145 -2 257 119 257 278c0 156 -112 276 -257 276zM506 493l-10 -31
c-14 9 -49 25 -99 25c-103 0 -149 -68 -149 -150s49 -151 151 -151c41 0 79 11 103 28l10 -29c-35 -25 -82 -32 -123 -32c-115 0 -182 79 -182 181c0 113 89 186 189 186c54 0 96 -15 110 -27z" />
    <glyph glyph-name="Aacute" unicode="&#xc1;" horiz-adv-x="537" 
d="M401 237h-256l-125 -237h-46l360 674h45l102 -674h-44zM167 276h228l-34 225c-5 34 -11 81 -14 119h-2c-19 -39 -34 -75 -56 -117zM427 823h77l-140 -113h-44z" />
    <glyph glyph-name="Acircumflex" unicode="&#xc2;" horiz-adv-x="537" 
d="M401 237h-256l-125 -237h-46l360 674h45l102 -674h-44zM167 276h228l-34 225c-5 34 -11 81 -14 119h-2c-19 -39 -34 -75 -56 -117zM354 823h37l80 -113h-47l-55 79h-2l-81 -79h-51z" />
    <glyph glyph-name="Adieresis" unicode="&#xc4;" horiz-adv-x="537" 
d="M401 237h-256l-125 -237h-46l360 674h45l102 -674h-44zM167 276h228l-34 225c-5 34 -11 81 -14 119h-2c-19 -39 -34 -75 -56 -117zM280 726h-1c-20 0 -35 19 -35 39c0 19 17 40 39 40s36 -21 36 -39c0 -19 -16 -40 -39 -40zM450 726h-1c-20 0 -35 19 -35 39
c0 19 17 40 39 40s36 -21 36 -39c0 -19 -16 -40 -39 -40z" />
    <glyph glyph-name="Agrave" unicode="&#xc0;" horiz-adv-x="537" 
d="M401 237h-256l-125 -237h-46l360 674h45l102 -674h-44zM167 276h228l-34 225c-5 34 -11 81 -14 119h-2c-19 -39 -34 -75 -56 -117zM239 823h70l73 -113h-37z" />
    <glyph glyph-name="Aring" unicode="&#xc5;" horiz-adv-x="537" 
d="M401 237h-256l-125 -237h-46l360 674h45l102 -674h-44zM167 276h228l-34 225c-5 34 -11 81 -14 119h-2c-19 -39 -34 -75 -56 -117zM367 863h1c52 0 86 -36 86 -84c0 -50 -42 -85 -90 -85c-51 0 -87 36 -87 81c0 49 38 88 90 88zM366 835h-1c-28 0 -48 -25 -48 -59
c0 -29 19 -53 47 -53c29 0 50 24 50 57c0 31 -18 55 -48 55z" />
    <glyph glyph-name="Atilde" unicode="&#xc3;" horiz-adv-x="537" 
d="M401 237h-256l-125 -237h-46l360 674h45l102 -674h-44zM167 276h228l-34 225c-5 34 -11 81 -14 119h-2c-19 -39 -34 -75 -56 -117zM274 716h-32c8 44 34 85 71 85c27 0 40 -8 59 -21c15 -10 29 -17 46 -17c16 0 27 13 34 38h32c-9 -47 -31 -80 -72 -80
c-24 0 -36 7 -58 20c-17 10 -27 19 -44 18c-18 -1 -29 -18 -36 -43z" />
    <glyph glyph-name="Ccedilla" unicode="&#xc7;" horiz-adv-x="541" 
d="M470 62l10 -38c-35 -16 -91 -31 -151 -33l-35 -45c33 -7 50 -33 50 -62c0 -50 -45 -82 -97 -82c-25 0 -48 7 -60 16l15 34c14 -8 30 -13 48 -13c26 0 49 14 49 39s-24 38 -61 42l53 71c-154 7 -243 112 -243 275c0 110 42 235 128 317c71 65 159 101 259 101
c76 0 129 -20 145 -35l-19 -35c-29 18 -78 31 -139 31c-78 0 -159 -33 -217 -90c-69 -66 -110 -176 -110 -280c0 -129 52 -246 220 -246c54 0 115 11 155 33z" />
    <glyph glyph-name="Eacute" unicode="&#xc9;" horiz-adv-x="441" 
d="M404 375l-8 -39h-248l-56 -297h280l-8 -39h-325l129 674h309l-8 -39h-264l-49 -260h248zM398 823h77l-140 -113h-44z" />
    <glyph glyph-name="Ecircumflex" unicode="&#xca;" horiz-adv-x="441" 
d="M404 375l-8 -39h-248l-56 -297h280l-8 -39h-325l129 674h309l-8 -39h-264l-49 -260h248zM326 823h37l80 -113h-47l-55 79h-2l-81 -79h-51z" />
    <glyph glyph-name="Edieresis" unicode="&#xcb;" horiz-adv-x="441" 
d="M404 375l-8 -39h-248l-56 -297h280l-8 -39h-325l129 674h309l-8 -39h-264l-49 -260h248zM252 726h-1c-20 0 -35 19 -35 39c0 19 17 40 39 40s36 -21 36 -39c0 -19 -16 -40 -39 -40zM422 726h-1c-20 0 -35 19 -35 39c0 19 17 40 39 40s36 -21 36 -39
c0 -19 -16 -40 -39 -40z" />
    <glyph glyph-name="Egrave" unicode="&#xc8;" horiz-adv-x="441" 
d="M404 375l-8 -39h-248l-56 -297h280l-8 -39h-325l129 674h309l-8 -39h-264l-49 -260h248zM226 823h70l73 -113h-37z" />
    <glyph glyph-name="Iacute" unicode="&#xcd;" horiz-adv-x="208" 
d="M168 674h45l-129 -674h-45zM257 823h77l-140 -113h-44z" />
    <glyph glyph-name="Icircumflex" unicode="&#xce;" horiz-adv-x="208" 
d="M168 674h45l-129 -674h-45zM188 823h37l80 -113h-47l-55 79h-2l-81 -79h-51z" />
    <glyph glyph-name="Idieresis" unicode="&#xcf;" horiz-adv-x="208" 
d="M168 674h45l-129 -674h-45zM121 726h-1c-20 0 -35 19 -35 39c0 19 17 40 39 40s36 -21 36 -39c0 -19 -16 -40 -39 -40zM291 726h-1c-20 0 -35 19 -35 39c0 19 17 40 39 40s36 -21 36 -39c0 -19 -16 -40 -39 -40z" />
    <glyph glyph-name="Igrave" unicode="&#xcc;" horiz-adv-x="208" 
d="M168 674h45l-129 -674h-45zM91 823h70l73 -113h-37z" />
    <glyph glyph-name="Ntilde" unicode="&#xd1;" horiz-adv-x="611" 
d="M83 0h-44l128 674h43l195 -458c31 -71 44 -114 57 -162l2 1c4 56 10 101 27 192l81 427h44l-128 -674h-41l-190 450c-35 79 -48 118 -61 170l-3 -1c-7 -62 -15 -112 -30 -195zM318 716h-32c8 44 34 85 71 85c27 0 40 -8 59 -21c15 -10 29 -17 46 -17c16 0 27 13 34 38h32
c-9 -47 -31 -80 -72 -80c-24 0 -36 7 -58 20c-17 10 -27 19 -44 18c-18 -1 -29 -18 -36 -43z" />
    <glyph glyph-name="Oacute" unicode="&#xd3;" horiz-adv-x="645" 
d="M294 -11h-1c-174 0 -245 135 -245 270c0 117 48 255 131 338c55 54 137 88 214 88c184 0 245 -139 245 -273c0 -114 -43 -248 -125 -331c-57 -58 -132 -92 -219 -92zM299 28h1c67 0 130 29 180 79c70 70 111 198 111 302c0 102 -32 237 -205 237c-69 0 -130 -30 -178 -78
c-71 -72 -113 -199 -113 -301c0 -119 52 -239 204 -239zM480 823h77l-140 -113h-44z" />
    <glyph glyph-name="Ocircumflex" unicode="&#xd4;" horiz-adv-x="645" 
d="M294 -11h-1c-174 0 -245 135 -245 270c0 117 48 255 131 338c55 54 137 88 214 88c184 0 245 -139 245 -273c0 -114 -43 -248 -125 -331c-57 -58 -132 -92 -219 -92zM299 28h1c67 0 130 29 180 79c70 70 111 198 111 302c0 102 -32 237 -205 237c-69 0 -130 -30 -178 -78
c-71 -72 -113 -199 -113 -301c0 -119 52 -239 204 -239zM407 823h37l80 -113h-47l-55 79h-2l-81 -79h-51z" />
    <glyph glyph-name="Odieresis" unicode="&#xd6;" horiz-adv-x="645" 
d="M294 -11h-1c-174 0 -245 135 -245 270c0 117 48 255 131 338c55 54 137 88 214 88c184 0 245 -139 245 -273c0 -114 -43 -248 -125 -331c-57 -58 -132 -92 -219 -92zM299 28h1c67 0 130 29 180 79c70 70 111 198 111 302c0 102 -32 237 -205 237c-69 0 -130 -30 -178 -78
c-71 -72 -113 -199 -113 -301c0 -119 52 -239 204 -239zM336 726h-1c-20 0 -35 19 -35 39c0 19 17 40 39 40s36 -21 36 -39c0 -19 -16 -40 -39 -40zM506 726h-1c-20 0 -35 19 -35 39c0 19 17 40 39 40s36 -21 36 -39c0 -19 -16 -40 -39 -40z" />
    <glyph glyph-name="Ograve" unicode="&#xd2;" horiz-adv-x="645" 
d="M294 -11h-1c-174 0 -245 135 -245 270c0 117 48 255 131 338c55 54 137 88 214 88c184 0 245 -139 245 -273c0 -114 -43 -248 -125 -331c-57 -58 -132 -92 -219 -92zM299 28h1c67 0 130 29 180 79c70 70 111 198 111 302c0 102 -32 237 -205 237c-69 0 -130 -30 -178 -78
c-71 -72 -113 -199 -113 -301c0 -119 52 -239 204 -239zM302 823h70l73 -113h-37z" />
    <glyph glyph-name="Otilde" unicode="&#xd5;" horiz-adv-x="645" 
d="M294 -11h-1c-174 0 -245 135 -245 270c0 117 48 255 131 338c55 54 137 88 214 88c184 0 245 -139 245 -273c0 -114 -43 -248 -125 -331c-57 -58 -132 -92 -219 -92zM299 28h1c67 0 130 29 180 79c70 70 111 198 111 302c0 102 -32 237 -205 237c-69 0 -130 -30 -178 -78
c-71 -72 -113 -199 -113 -301c0 -119 52 -239 204 -239zM334 716h-32c8 44 34 85 71 85c27 0 40 -8 59 -21c15 -10 29 -17 46 -17c16 0 27 13 34 38h32c-9 -47 -31 -80 -72 -80c-24 0 -36 7 -58 20c-17 10 -27 19 -44 18c-18 -1 -29 -18 -36 -43z" />
    <glyph glyph-name="Scaron" unicode="&#x160;" horiz-adv-x="438" 
d="M19 35l19 37c34 -25 81 -43 133 -43c89 0 170 57 170 156c0 57 -27 102 -103 145c-95 51 -131 106 -131 169c0 111 94 185 204 185c56 0 105 -20 125 -36l-20 -36c-20 13 -59 33 -111 33c-93 0 -153 -68 -153 -135c0 -64 30 -99 109 -142c83 -46 125 -98 125 -182
c0 -96 -71 -196 -224 -196c-51 0 -117 20 -143 45zM322 710h-37l-80 112h50l51 -77h4l80 77h51z" />
    <glyph glyph-name="Uacute" unicode="&#xda;" horiz-adv-x="600" 
d="M168 674h45l-77 -407c-6 -30 -9 -61 -9 -87c0 -106 60 -151 142 -151c102 0 180 70 212 237l78 408h46l-80 -415c-39 -200 -145 -270 -264 -270c-94 0 -180 53 -180 189c0 29 3 61 9 92zM442 823h77l-140 -113h-44z" />
    <glyph glyph-name="Ucircumflex" unicode="&#xdb;" horiz-adv-x="600" 
d="M168 674h45l-77 -407c-6 -30 -9 -61 -9 -87c0 -106 60 -151 142 -151c102 0 180 70 212 237l78 408h46l-80 -415c-39 -200 -145 -270 -264 -270c-94 0 -180 53 -180 189c0 29 3 61 9 92zM397 823h37l80 -113h-47l-55 79h-2l-81 -79h-51z" />
    <glyph glyph-name="Udieresis" unicode="&#xdc;" horiz-adv-x="600" 
d="M168 674h45l-77 -407c-6 -30 -9 -61 -9 -87c0 -106 60 -151 142 -151c102 0 180 70 212 237l78 408h46l-80 -415c-39 -200 -145 -270 -264 -270c-94 0 -180 53 -180 189c0 29 3 61 9 92zM311 726h-1c-20 0 -35 19 -35 39c0 19 17 40 39 40s36 -21 36 -39
c0 -19 -16 -40 -39 -40zM481 726h-1c-20 0 -35 19 -35 39c0 19 17 40 39 40s36 -21 36 -39c0 -19 -16 -40 -39 -40z" />
    <glyph glyph-name="Ugrave" unicode="&#xd9;" horiz-adv-x="600" 
d="M168 674h45l-77 -407c-6 -30 -9 -61 -9 -87c0 -106 60 -151 142 -151c102 0 180 70 212 237l78 408h46l-80 -415c-39 -200 -145 -270 -264 -270c-94 0 -180 53 -180 189c0 29 3 61 9 92zM287 823h70l73 -113h-37z" />
    <glyph glyph-name="Yacute" unicode="&#xdd;" horiz-adv-x="484" 
d="M212 0h-45l54 283l-129 391h48l79 -247c20 -62 26 -86 30 -107h2c14 22 39 61 74 111l173 243h51l-284 -392zM392 823h77l-140 -113h-44z" />
    <glyph glyph-name="Ydieresis" unicode="&#x178;" horiz-adv-x="484" 
d="M212 0h-45l54 283l-129 391h48l79 -247c20 -62 26 -86 30 -107h2c14 22 39 61 74 111l173 243h51l-284 -392zM249 726h-1c-20 0 -35 19 -35 39c0 19 17 40 39 40s36 -21 36 -39c0 -19 -16 -40 -39 -40zM419 726h-1c-20 0 -35 19 -35 39c0 19 17 40 39 40s36 -21 36 -39
c0 -19 -16 -40 -39 -40z" />
    <glyph glyph-name="Zcaron" unicode="&#x17d;" horiz-adv-x="504" 
d="M-16 0l6 31l498 601l-1 3h-349l8 39h410l-7 -32l-497 -600l2 -3h386l-8 -39h-448zM375 710h-37l-80 112h50l51 -77h4l80 77h51z" />
    <glyph glyph-name="aacute" unicode="&#xe1;" horiz-adv-x="503" 
d="M403 0h-44c-1 30 5 83 14 143h-2c-57 -113 -127 -154 -202 -154c-85 0 -134 68 -134 153c0 171 133 349 325 349c40 0 83 -6 112 -14l-48 -250c-19 -97 -24 -178 -21 -227zM389 277l32 167c-12 4 -33 8 -69 8c-146 0 -269 -140 -270 -302c-1 -57 18 -122 97 -122
c86 0 185 115 210 249zM399 678h74l-135 -138h-40z" />
    <glyph glyph-name="acircumflex" unicode="&#xe2;" horiz-adv-x="503" 
d="M403 0h-44c-1 30 5 83 14 143h-2c-57 -113 -127 -154 -202 -154c-85 0 -134 68 -134 153c0 171 133 349 325 349c40 0 83 -6 112 -14l-48 -250c-19 -97 -24 -178 -21 -227zM389 277l32 167c-12 4 -33 8 -69 8c-146 0 -269 -140 -270 -302c-1 -57 18 -122 97 -122
c86 0 185 115 210 249zM330 678h35l65 -138h-43l-44 99h-2l-78 -99h-46z" />
    <glyph glyph-name="adieresis" unicode="&#xe4;" horiz-adv-x="503" 
d="M403 0h-44c-1 30 5 83 14 143h-2c-57 -113 -127 -154 -202 -154c-85 0 -134 68 -134 153c0 171 133 349 325 349c40 0 83 -6 112 -14l-48 -250c-19 -97 -24 -178 -21 -227zM389 277l32 167c-12 4 -33 8 -69 8c-146 0 -269 -140 -270 -302c-1 -57 18 -122 97 -122
c86 0 185 115 210 249zM247 580h-1c-22 0 -35 18 -35 38c0 21 17 40 38 40c22 0 36 -18 36 -38s-14 -40 -38 -40zM416 580h-1c-21 0 -34 18 -34 38c0 21 16 40 38 40s35 -18 35 -38s-13 -40 -38 -40z" />
    <glyph glyph-name="agrave" unicode="&#xe0;" horiz-adv-x="503" 
d="M403 0h-44c-1 30 5 83 14 143h-2c-57 -113 -127 -154 -202 -154c-85 0 -134 68 -134 153c0 171 133 349 325 349c40 0 83 -6 112 -14l-48 -250c-19 -97 -24 -178 -21 -227zM389 277l32 167c-12 4 -33 8 -69 8c-146 0 -269 -140 -270 -302c-1 -57 18 -122 97 -122
c86 0 185 115 210 249zM243 678h66l61 -138h-33z" />
    <glyph glyph-name="aring" unicode="&#xe5;" horiz-adv-x="503" 
d="M403 0h-44c-1 30 5 83 14 143h-2c-57 -113 -127 -154 -202 -154c-85 0 -134 68 -134 153c0 171 133 349 325 349c40 0 83 -6 112 -14l-48 -250c-19 -97 -24 -178 -21 -227zM389 277l32 167c-12 4 -33 8 -69 8c-146 0 -269 -140 -270 -302c-1 -57 18 -122 97 -122
c86 0 185 115 210 249zM333 710h1c51 0 88 -37 88 -89c0 -53 -46 -89 -91 -89c-52 0 -90 38 -90 86c0 52 40 92 92 92zM332 680h-1c-30 0 -52 -26 -52 -61c0 -30 21 -57 51 -57c31 0 54 26 54 63c0 30 -21 55 -52 55z" />
    <glyph glyph-name="atilde" unicode="&#xe3;" horiz-adv-x="503" 
d="M403 0h-44c-1 30 5 83 14 143h-2c-57 -113 -127 -154 -202 -154c-85 0 -134 68 -134 153c0 171 133 349 325 349c40 0 83 -6 112 -14l-48 -250c-19 -97 -24 -178 -21 -227zM389 277l32 167c-12 4 -33 8 -69 8c-146 0 -269 -140 -270 -302c-1 -57 18 -122 97 -122
c86 0 185 115 210 249zM249 574h-34c4 44 26 84 65 84c25 0 37 -10 61 -23c14 -9 27 -16 41 -16c16 0 24 9 28 41h33c-5 -46 -21 -80 -63 -80c-22 0 -41 10 -57 21c-13 8 -27 18 -44 18c-20 0 -26 -18 -30 -45z" />
    <glyph glyph-name="ccedilla" unicode="&#xe7;" horiz-adv-x="416" 
d="M341 60l12 -36c-18 -9 -58 -29 -113 -32l-35 -46c30 -7 50 -31 50 -63c0 -46 -42 -81 -99 -81c-23 0 -46 7 -57 15l15 35c14 -9 31 -13 50 -13c26 0 48 15 48 41c0 23 -25 36 -62 40l51 70c-118 4 -163 94 -163 178c0 159 116 323 283 323c47 0 91 -17 101 -26l-17 -38
c-21 11 -51 22 -92 22c-139 0 -228 -145 -228 -275c0 -82 39 -145 134 -145c57 0 97 19 122 31z" />
    <glyph glyph-name="eacute" unicode="&#xe9;" horiz-adv-x="423" 
d="M336 64l14 -36c-25 -16 -75 -38 -146 -38c-122 0 -168 93 -168 187c0 143 109 314 252 314c87 0 124 -54 124 -110c0 -128 -156 -154 -325 -152c-7 -25 -5 -85 6 -118c20 -55 62 -82 117 -82c60 0 102 20 126 35zM366 378v1c0 48 -36 73 -86 73c-87 0 -160 -90 -186 -185
c142 -2 272 17 272 111zM350 678h74l-135 -138h-40z" />
    <glyph glyph-name="ecircumflex" unicode="&#xea;" horiz-adv-x="423" 
d="M336 64l14 -36c-25 -16 -75 -38 -146 -38c-122 0 -168 93 -168 187c0 143 109 314 252 314c87 0 124 -54 124 -110c0 -128 -156 -154 -325 -152c-7 -25 -5 -85 6 -118c20 -55 62 -82 117 -82c60 0 102 20 126 35zM366 378v1c0 48 -36 73 -86 73c-87 0 -160 -90 -186 -185
c142 -2 272 17 272 111zM300 678h35l65 -138h-43l-44 99h-2l-78 -99h-46z" />
    <glyph glyph-name="edieresis" unicode="&#xeb;" horiz-adv-x="423" 
d="M336 64l14 -36c-25 -16 -75 -38 -146 -38c-122 0 -168 93 -168 187c0 143 109 314 252 314c87 0 124 -54 124 -110c0 -128 -156 -154 -325 -152c-7 -25 -5 -85 6 -118c20 -55 62 -82 117 -82c60 0 102 20 126 35zM366 378v1c0 48 -36 73 -86 73c-87 0 -160 -90 -186 -185
c142 -2 272 17 272 111zM221 580h-1c-22 0 -35 18 -35 38c0 21 17 40 38 40c22 0 36 -18 36 -38s-14 -40 -38 -40zM390 580h-1c-21 0 -34 18 -34 38c0 21 16 40 38 40s35 -18 35 -38s-13 -40 -38 -40z" />
    <glyph glyph-name="egrave" unicode="&#xe8;" horiz-adv-x="423" 
d="M336 64l14 -36c-25 -16 -75 -38 -146 -38c-122 0 -168 93 -168 187c0 143 109 314 252 314c87 0 124 -54 124 -110c0 -128 -156 -154 -325 -152c-7 -25 -5 -85 6 -118c20 -55 62 -82 117 -82c60 0 102 20 126 35zM366 378v1c0 48 -36 73 -86 73c-87 0 -160 -90 -186 -185
c142 -2 272 17 272 111zM204 678h66l61 -138h-33z" />
    <glyph glyph-name="iacute" unicode="&#xed;" horiz-adv-x="206" 
d="M83 0h-45l92 480h45zM224 678h74l-135 -138h-40z" />
    <glyph glyph-name="icircumflex" unicode="&#xee;" horiz-adv-x="206" 
d="M83 0h-45l92 480h45zM161 678h35l65 -138h-43l-44 99h-2l-78 -99h-46z" />
    <glyph glyph-name="idieresis" unicode="&#xef;" horiz-adv-x="206" 
d="M83 0h-45l92 480h45zM85 580h-1c-22 0 -35 18 -35 38c0 21 17 40 38 40c22 0 36 -18 36 -38s-14 -40 -38 -40zM254 580h-1c-21 0 -34 18 -34 38c0 21 16 40 38 40s35 -18 35 -38s-13 -40 -38 -40z" />
    <glyph glyph-name="igrave" unicode="&#xec;" horiz-adv-x="206" 
d="M83 0h-45l92 480h45zM61 678h66l61 -138h-33z" />
    <glyph glyph-name="ntilde" unicode="&#xf1;" horiz-adv-x="516" 
d="M83 0h-45l66 351c10 48 16 91 21 129h42l-15 -103h2c42 70 110 114 185 114c43 0 120 -23 120 -134c0 -22 -4 -49 -9 -76l-53 -281h-45l54 285c3 20 7 44 7 66c0 57 -23 100 -92 100c-68 0 -170 -78 -193 -205zM242 574h-34c4 44 26 84 65 84c25 0 37 -10 61 -23
c14 -9 27 -16 41 -16c16 0 24 9 28 41h33c-5 -46 -21 -80 -63 -80c-22 0 -41 10 -57 21c-13 8 -27 18 -44 18c-20 0 -26 -18 -30 -45z" />
    <glyph glyph-name="oacute" unicode="&#xf3;" horiz-adv-x="500" 
d="M217 -11h-1c-119 0 -178 96 -178 196c0 154 107 306 254 306c129 0 178 -104 178 -201c0 -131 -96 -301 -253 -301zM221 28h1c109 0 201 133 201 263c0 63 -30 161 -135 161c-117 0 -203 -131 -203 -263c0 -92 53 -161 136 -161zM370 678h74l-135 -138h-40z" />
    <glyph glyph-name="ocircumflex" unicode="&#xf4;" horiz-adv-x="500" 
d="M217 -11h-1c-119 0 -178 96 -178 196c0 154 107 306 254 306c129 0 178 -104 178 -201c0 -131 -96 -301 -253 -301zM221 28h1c109 0 201 133 201 263c0 63 -30 161 -135 161c-117 0 -203 -131 -203 -263c0 -92 53 -161 136 -161zM318 678h35l65 -138h-43l-44 99h-2
l-78 -99h-46z" />
    <glyph glyph-name="odieresis" unicode="&#xf6;" horiz-adv-x="500" 
d="M217 -11h-1c-119 0 -178 96 -178 196c0 154 107 306 254 306c129 0 178 -104 178 -201c0 -131 -96 -301 -253 -301zM221 28h1c109 0 201 133 201 263c0 63 -30 161 -135 161c-117 0 -203 -131 -203 -263c0 -92 53 -161 136 -161zM241 580h-1c-22 0 -35 18 -35 38
c0 21 17 40 38 40c22 0 36 -18 36 -38s-14 -40 -38 -40zM410 580h-1c-21 0 -34 18 -34 38c0 21 16 40 38 40s35 -18 35 -38s-13 -40 -38 -40z" />
    <glyph glyph-name="ograve" unicode="&#xf2;" horiz-adv-x="500" 
d="M217 -11h-1c-119 0 -178 96 -178 196c0 154 107 306 254 306c129 0 178 -104 178 -201c0 -131 -96 -301 -253 -301zM221 28h1c109 0 201 133 201 263c0 63 -30 161 -135 161c-117 0 -203 -131 -203 -263c0 -92 53 -161 136 -161zM208 678h66l61 -138h-33z" />
    <glyph glyph-name="otilde" unicode="&#xf5;" horiz-adv-x="500" 
d="M217 -11h-1c-119 0 -178 96 -178 196c0 154 107 306 254 306c129 0 178 -104 178 -201c0 -131 -96 -301 -253 -301zM221 28h1c109 0 201 133 201 263c0 63 -30 161 -135 161c-117 0 -203 -131 -203 -263c0 -92 53 -161 136 -161zM226 574h-34c4 44 26 84 65 84
c25 0 37 -10 61 -23c14 -9 27 -16 41 -16c16 0 24 9 28 41h33c-5 -46 -21 -80 -63 -80c-22 0 -41 10 -57 21c-13 8 -27 18 -44 18c-20 0 -26 -18 -30 -45z" />
    <glyph glyph-name="scaron" unicode="&#x161;" horiz-adv-x="346" 
d="M17 20l16 37c20 -14 55 -28 90 -28c65 0 110 46 110 100c0 46 -18 74 -71 106c-55 33 -77 76 -77 119c0 74 64 137 150 137c36 0 71 -12 86 -23l-17 -38c-14 9 -42 22 -74 22c-58 0 -100 -41 -100 -91c0 -45 25 -69 70 -97c54 -33 79 -77 79 -123
c0 -95 -75 -151 -160 -151c-46 0 -85 16 -102 30zM250 540h-36l-66 138h43l45 -100h3l79 100h46z" />
    <glyph glyph-name="uacute" unicode="&#xfa;" horiz-adv-x="506" 
d="M428 480h45l-67 -351c-9 -48 -15 -91 -19 -129h-42l15 99h-2c-39 -63 -105 -110 -172 -110c-53 0 -129 21 -129 142c0 21 3 45 9 76l52 273h45l-52 -274c-6 -30 -9 -52 -9 -75c0 -61 25 -101 94 -101c68 0 161 78 182 189zM361 678h74l-135 -138h-40z" />
    <glyph glyph-name="ucircumflex" unicode="&#xfb;" horiz-adv-x="506" 
d="M428 480h45l-67 -351c-9 -48 -15 -91 -19 -129h-42l15 99h-2c-39 -63 -105 -110 -172 -110c-53 0 -129 21 -129 142c0 21 3 45 9 76l52 273h45l-52 -274c-6 -30 -9 -52 -9 -75c0 -61 25 -101 94 -101c68 0 161 78 182 189zM318 678h35l65 -138h-43l-44 99h-2l-78 -99h-46
z" />
    <glyph glyph-name="udieresis" unicode="&#xfc;" horiz-adv-x="506" 
d="M428 480h45l-67 -351c-9 -48 -15 -91 -19 -129h-42l15 99h-2c-39 -63 -105 -110 -172 -110c-53 0 -129 21 -129 142c0 21 3 45 9 76l52 273h45l-52 -274c-6 -30 -9 -52 -9 -75c0 -61 25 -101 94 -101c68 0 161 78 182 189zM237 580h-1c-22 0 -35 18 -35 38
c0 21 17 40 38 40c22 0 36 -18 36 -38s-14 -40 -38 -40zM406 580h-1c-21 0 -34 18 -34 38c0 21 16 40 38 40s35 -18 35 -38s-13 -40 -38 -40z" />
    <glyph glyph-name="ugrave" unicode="&#xf9;" horiz-adv-x="506" 
d="M428 480h45l-67 -351c-9 -48 -15 -91 -19 -129h-42l15 99h-2c-39 -63 -105 -110 -172 -110c-53 0 -129 21 -129 142c0 21 3 45 9 76l52 273h45l-52 -274c-6 -30 -9 -52 -9 -75c0 -61 25 -101 94 -101c68 0 161 78 182 189zM206 678h66l61 -138h-33z" />
    <glyph glyph-name="yacute" unicode="&#xfd;" horiz-adv-x="406" 
d="M50 480h47l59 -289c12 -59 19 -95 25 -134h3c14 31 30 67 56 121l146 302h48l-186 -378c-44 -89 -87 -172 -153 -239c-52 -54 -106 -77 -131 -83l-13 39c20 7 57 22 92 51c33 27 72 72 103 128c4 9 3 14 2 21zM314 678h74l-135 -138h-40z" />
    <glyph glyph-name="ydieresis" unicode="&#xff;" horiz-adv-x="406" 
d="M50 480h47l59 -289c12 -59 19 -95 25 -134h3c14 31 30 67 56 121l146 302h48l-186 -378c-44 -89 -87 -172 -153 -239c-52 -54 -106 -77 -131 -83l-13 39c20 7 57 22 92 51c33 27 72 72 103 128c4 9 3 14 2 21zM184 580h-1c-22 0 -35 18 -35 38c0 21 17 40 38 40
c22 0 36 -18 36 -38s-14 -40 -38 -40zM353 580h-1c-21 0 -34 18 -34 38c0 21 16 40 38 40s35 -18 35 -38s-13 -40 -38 -40z" />
    <glyph glyph-name="zcaron" unicode="&#x17e;" horiz-adv-x="393" 
d="M-19 0l5 29l282 318c41 46 65 68 89 92v4h-272l8 37h326l-7 -32l-279 -315c-43 -48 -65 -70 -88 -93v-3h292l-8 -37h-348zM284 540h-36l-66 138h43l45 -100h3l79 100h46z" />
    <glyph glyph-name="dollarsuperior" unicode="&#xf6e4;" horiz-adv-x="252" 
d="M169 355h-32l12 61c-27 1 -60 13 -77 26l14 32c19 -14 45 -25 78 -25c46 0 86 29 86 74c0 26 -13 50 -53 69c-55 27 -78 57 -78 94c0 53 45 98 105 103l13 61h31l-12 -61c29 -1 54 -12 64 -20l-14 -31c-12 7 -31 19 -68 19c-47 0 -77 -30 -77 -66c0 -27 14 -43 61 -67
c49 -25 71 -55 71 -94c0 -64 -47 -106 -112 -114z" />
    <glyph glyph-name="parenleftsuperior" unicode="&#x207d;" horiz-adv-x="168" 
d="M239 831h36c-61 -67 -130 -176 -130 -322c0 -50 10 -104 37 -164h-32c-26 50 -41 101 -41 167c0 149 74 260 130 319z" />
    <glyph glyph-name="parenrightsuperior" unicode="&#x207e;" horiz-adv-x="168" 
d="M77 345h-37c61 69 131 177 131 323c0 50 -11 104 -38 163h32c26 -49 42 -100 42 -166c0 -149 -75 -259 -130 -320z" />
    <glyph glyph-name="zerooldstyle" unicode="&#xf730;" horiz-adv-x="487" 
d="M208 -11h-1c-88 0 -167 70 -167 195c0 140 95 309 248 309c83 0 168 -71 168 -197c0 -141 -95 -307 -248 -307zM215 28h1c122 0 193 151 193 266c0 95 -50 160 -129 160c-124 0 -193 -152 -193 -267c0 -94 49 -159 128 -159z" />
    <glyph glyph-name="oneoldstyle" unicode="&#xf731;" horiz-adv-x="322" 
d="M267 484l-92 -484h-44l83 436h-2l-143 -71l-7 37l164 82h41z" />
    <glyph glyph-name="twooldstyle" unicode="&#xf732;" horiz-adv-x="419" 
d="M363 39l-7 -39h-370l5 26l112 78c159 112 217 177 217 253c0 69 -46 100 -100 100s-103 -31 -127 -48l-16 28c32 26 85 59 152 59c75 0 138 -48 138 -139c0 -86 -66 -157 -227 -271l-66 -47v-2c20 1 48 2 66 2h223z" />
    <glyph glyph-name="threeoldstyle" unicode="&#xf733;" horiz-adv-x="406" 
d="M-23 -82l12 35c26 -12 68 -21 106 -21c115 0 200 61 200 149c0 75 -64 112 -135 112c-27 0 -45 -1 -62 -2l5 37c5 1 11 1 16 1c87 7 192 57 192 146c0 52 -42 79 -98 79c-48 0 -87 -17 -111 -30l-14 29c27 19 80 40 137 40c64 0 133 -37 133 -119
c0 -76 -64 -130 -141 -152l-1 -3c72 -12 126 -58 126 -132c0 -128 -130 -194 -241 -194c-53 0 -102 12 -124 25z" />
    <glyph glyph-name="fouroldstyle" unicode="&#xf734;" horiz-adv-x="467" 
d="M318 62l-33 -169h-42l32 169h-274l7 31l353 399h37l-73 -391h95l-8 -39h-94zM282 101l45 239c6 30 12 61 20 87l-3 1c-20 -31 -42 -60 -62 -84l-216 -240l1 -3h215z" />
    <glyph glyph-name="fiveoldstyle" unicode="&#xf735;" horiz-adv-x="400" 
d="M-10 -87l12 37c24 -10 63 -18 98 -18c108 0 199 60 199 163c0 33 -12 62 -34 83c-45 44 -131 47 -200 41l84 263h247l-15 -39h-204l-60 -185c66 5 141 -9 186 -54c28 -27 43 -63 43 -105c0 -126 -114 -206 -246 -206c-46 0 -92 11 -110 20z" />
    <glyph glyph-name="sixoldstyle" unicode="&#xf736;" horiz-adv-x="486" 
d="M220 28h1c85 0 167 85 167 192c0 81 -52 126 -117 126c-75 0 -125 -41 -152 -85c-19 -26 -24 -53 -24 -81c0 -90 48 -152 125 -152zM457 597l5 -36c-120 -13 -200 -57 -253 -110c-47 -47 -76 -93 -93 -145h2c33 40 90 79 167 79s150 -59 150 -158
c0 -131 -100 -238 -221 -238c-88 0 -165 62 -165 199c0 73 34 194 122 281c67 66 157 117 286 128z" />
    <glyph glyph-name="sevenoldstyle" unicode="&#xf737;" horiz-adv-x="423" 
d="M422 482l-6 -32c-71 -147 -242 -399 -371 -557l-46 14c103 115 306 406 365 533l1 3h-294l6 39h345z" />
    <glyph glyph-name="eightoldstyle" unicode="&#xf738;" horiz-adv-x="487" 
d="M296 600h1c89 0 153 -59 153 -136c0 -70 -53 -113 -132 -152v-2c71 -38 111 -88 111 -149c0 -108 -105 -172 -207 -172c-107 0 -182 60 -182 154c0 86 82 138 161 175v2c-54 28 -87 71 -87 124c0 89 83 156 182 156zM288 563h-1c-67 0 -129 -41 -129 -110
c0 -59 46 -95 118 -124c73 31 128 70 128 134c0 51 -36 100 -116 100zM221 26h1c90 0 160 57 160 128c0 67 -51 107 -140 145c-71 -27 -155 -76 -155 -157c0 -70 56 -116 134 -116z" />
    <glyph glyph-name="nineoldstyle" unicode="&#xf739;" horiz-adv-x="486" 
d="M219 133h1c61 0 124 41 159 92c11 17 20 47 20 80c0 101 -57 149 -128 149c-86 0 -164 -87 -164 -192c0 -84 50 -129 112 -129zM45 -109l-5 37c28 2 54 5 78 10c163 35 233 142 266 241l-3 1c-32 -42 -98 -84 -170 -84c-87 0 -151 61 -151 159c0 126 102 238 226 238
c89 0 160 -72 160 -197c0 -165 -97 -356 -338 -399c-19 -3 -41 -6 -63 -6z" />
    <glyph glyph-name="commasuperior" unicode="&#xf6e2;" horiz-adv-x="120" 
d="M66 335l-32 -4c17 31 45 96 58 137l50 6c-20 -49 -58 -116 -76 -139z" />
    <glyph glyph-name="periodsuperior" unicode="&#xf6e8;" horiz-adv-x="120" 
d="M105 399h-1c-16 0 -28 14 -28 32c0 20 13 35 32 35s30 -13 30 -32c0 -20 -13 -35 -33 -35z" />
    <glyph glyph-name="centsuperior" unicode="&#xf6e0;" horiz-adv-x="267" 
d="M212 395h-32l13 63c-35 5 -57 19 -73 41c-15 21 -22 47 -22 73c0 94 71 169 153 178l11 62h31l-11 -61c21 0 49 -9 59 -17l-16 -31c-14 9 -33 16 -64 16c-57 0 -120 -59 -120 -144c0 -48 28 -85 82 -85c29 0 52 9 67 16l6 -32c-12 -7 -44 -16 -73 -16z" />
    <glyph glyph-name="parenleftinferior" unicode="&#x208d;" horiz-adv-x="168" 
d="M133 281h36c-61 -67 -130 -176 -130 -322c0 -50 10 -104 37 -164h-32c-26 50 -41 101 -41 167c0 149 74 260 130 319z" />
    <glyph glyph-name="parenrightinferior" unicode="&#x208e;" horiz-adv-x="168" 
d="M-29 -205h-37c61 69 131 177 131 323c0 50 -11 104 -38 163h32c26 -49 42 -100 42 -166c0 -149 -75 -259 -130 -320z" />
    <glyph glyph-name="hyphensuperior" unicode="&#xf6e6;" horiz-adv-x="183" 
d="M96 603h141l-7 -33h-140z" />
    <glyph glyph-name="hypheninferior" unicode="&#xf6e5;" horiz-adv-x="183" 
d="M-10 53h141l-7 -33h-140z" />
    <glyph glyph-name="zerosuperior" unicode="&#x2070;" horiz-adv-x="297" 
d="M189 399h-1c-71 0 -97 58 -97 135c0 138 73 269 171 269c73 0 96 -61 96 -121c0 -137 -66 -283 -169 -283zM194 432h1c77 0 122 155 122 244c0 33 -6 94 -60 94c-70 0 -125 -127 -125 -239c0 -43 10 -99 62 -99z" />
    <glyph glyph-name="foursuperior" unicode="&#x2074;" horiz-adv-x="289" 
d="M262 406h-39l22 112h-176l6 26l222 253h40l-47 -246h57l-7 -33h-57zM251 551l28 144c4 21 9 40 13 55l-2 1c-16 -21 -26 -39 -41 -57l-126 -142v-1h128z" />
    <glyph glyph-name="fivesuperior" unicode="&#x2075;" horiz-adv-x="269" 
d="M344 796l-8 -35h-138l-34 -109c8 1 14 2 22 2c15 0 43 -4 65 -16c36 -18 51 -55 51 -88c0 -96 -77 -151 -158 -151c-37 0 -71 13 -83 22l13 32c15 -10 43 -20 76 -20c59 0 110 49 110 107c0 41 -19 80 -97 80c-16 0 -28 -2 -45 -3l54 179h172z" />
    <glyph glyph-name="sixsuperior" unicode="&#x2076;" horiz-adv-x="297" 
d="M351 803l-6 -36c-10 0 -25 -1 -41 -5c-77 -17 -134 -74 -161 -155l1 -1c24 34 67 57 105 57c65 0 97 -48 97 -107c0 -77 -62 -157 -145 -157c-73 0 -110 53 -110 127c0 94 53 177 102 218c30 24 64 42 104 51c17 5 35 7 54 8zM205 432h1c54 0 98 60 98 122
c0 50 -25 76 -69 76c-34 0 -71 -23 -94 -60c-4 -6 -6 -13 -7 -20c-2 -7 -2 -19 -2 -30c0 -52 24 -88 73 -88z" />
    <glyph glyph-name="sevensuperior" unicode="&#x2077;" horiz-adv-x="261" 
d="M126 796h232l-5 -30c-55 -86 -168 -258 -235 -360h-45c71 106 173 262 233 353v2h-186z" />
    <glyph glyph-name="eightsuperior" unicode="&#x2078;" horiz-adv-x="298" 
d="M259 803h1c56 0 98 -33 98 -88c0 -46 -32 -81 -79 -103v-1c44 -23 60 -59 60 -94c0 -77 -70 -118 -135 -118c-74 0 -119 42 -119 97c0 60 44 100 95 119v2c-33 22 -44 49 -44 77c0 62 55 109 123 109zM204 430h1c51 0 92 33 92 83c0 41 -23 68 -78 85
c-45 -10 -92 -41 -92 -97c0 -35 25 -71 77 -71zM253 772h-1c-43 0 -77 -36 -77 -75c0 -32 18 -56 64 -70c43 12 78 42 78 83c0 26 -13 62 -64 62z" />
    <glyph glyph-name="ninesuperior" unicode="&#x2079;" horiz-adv-x="290" 
d="M91 399l5 35c11 0 25 1 39 3c29 5 60 19 89 44c28 25 55 61 75 112l-2 1c-28 -34 -66 -50 -99 -50c-67 0 -95 54 -95 102c0 80 64 157 144 157c74 0 104 -57 104 -122c0 -102 -61 -192 -105 -228c-33 -27 -72 -44 -110 -51c-16 -3 -32 -4 -45 -3zM243 770h-1
c-52 0 -98 -55 -98 -120c0 -38 20 -72 65 -72c36 0 68 21 89 52c4 5 6 10 8 16c2 10 4 26 4 40c0 48 -20 84 -67 84z" />
    <glyph glyph-name="zeroinferior" unicode="&#x2080;" horiz-adv-x="297" 
d="M83 -151h-1c-71 0 -97 58 -97 135c0 138 73 269 171 269c73 0 96 -61 96 -121c0 -137 -66 -283 -169 -283zM88 -118h1c77 0 122 155 122 244c0 33 -6 94 -60 94c-70 0 -125 -127 -125 -239c0 -43 10 -99 62 -99z" />
    <glyph glyph-name="oneinferior" unicode="&#x2081;" horiz-adv-x="200" 
d="M66 -144h-39l67 350h-2l-68 -33l-5 32l86 41h35z" />
    <glyph glyph-name="twoinferior" unicode="&#x2082;" horiz-adv-x="273" 
d="M180 -144h-238l5 28l72 59c99 82 165 141 165 211c0 29 -14 62 -66 62c-34 0 -66 -19 -83 -32l-14 28c28 22 67 39 106 39c71 0 100 -49 100 -97c0 -79 -84 -151 -179 -227l-42 -34v-2h181z" />
    <glyph glyph-name="threeinferior" unicode="&#x2083;" horiz-adv-x="263" 
d="M35 189l-12 29c21 17 60 33 95 33c71 0 96 -42 96 -83c0 -46 -37 -82 -86 -99l-1 -2c43 -12 68 -51 67 -91c-1 -71 -57 -125 -150 -125c-41 0 -78 13 -93 26l15 30c15 -9 44 -23 82 -23c70 0 105 44 105 90c0 55 -50 76 -95 76h-22l6 31h23c48 0 107 34 107 82
c0 31 -16 54 -63 54c-27 0 -57 -14 -74 -28z" />
    <glyph glyph-name="fourinferior" unicode="&#x2084;" horiz-adv-x="289" 
d="M156 -144h-39l22 112h-176l6 26l222 253h40l-47 -246h57l-7 -33h-57zM145 1l28 144c4 21 9 40 13 55l-2 1c-16 -21 -26 -39 -41 -57l-126 -142v-1h128z" />
    <glyph glyph-name="fiveinferior" unicode="&#x2085;" horiz-adv-x="269" 
d="M238 246l-8 -35h-138l-34 -109c8 1 14 2 22 2c15 0 43 -4 65 -16c36 -18 51 -55 51 -88c0 -96 -77 -151 -158 -151c-37 0 -71 13 -83 22l13 32c15 -10 43 -20 76 -20c59 0 110 49 110 107c0 41 -19 80 -97 80c-16 0 -28 -2 -45 -3l54 179h172z" />
    <glyph glyph-name="sixinferior" unicode="&#x2086;" horiz-adv-x="297" 
d="M245 253l-6 -36c-10 0 -25 -1 -41 -5c-77 -17 -134 -74 -161 -155l1 -1c24 34 67 57 105 57c65 0 97 -48 97 -107c0 -77 -62 -157 -145 -157c-73 0 -110 53 -110 127c0 94 53 177 102 218c30 24 64 42 104 51c17 5 35 7 54 8zM99 -118h1c54 0 98 60 98 122
c0 50 -25 76 -69 76c-34 0 -71 -23 -94 -60c-4 -6 -6 -13 -7 -20c-2 -7 -2 -19 -2 -30c0 -52 24 -88 73 -88z" />
    <glyph glyph-name="seveninferior" unicode="&#x2087;" horiz-adv-x="261" 
d="M20 246h232l-5 -30c-55 -86 -168 -258 -235 -360h-45c71 106 173 262 233 353v2h-186z" />
    <glyph glyph-name="eightinferior" unicode="&#x2088;" horiz-adv-x="298" 
d="M153 253h1c56 0 98 -33 98 -88c0 -46 -32 -81 -79 -103v-1c44 -23 60 -59 60 -94c0 -77 -70 -118 -135 -118c-74 0 -119 42 -119 97c0 60 44 100 95 119v2c-33 22 -44 49 -44 77c0 62 55 109 123 109zM98 -120h1c51 0 92 33 92 83c0 41 -23 68 -78 85
c-45 -10 -92 -41 -92 -97c0 -35 25 -71 77 -71zM147 222h-1c-43 0 -77 -36 -77 -75c0 -32 18 -56 64 -70c43 12 78 42 78 83c0 26 -13 62 -64 62z" />
    <glyph glyph-name="nineinferior" unicode="&#x2089;" horiz-adv-x="290" 
d="M-15 -151l5 35c11 0 25 1 39 3c29 5 60 19 89 44c28 25 55 61 75 112l-2 1c-28 -34 -66 -50 -99 -50c-67 0 -95 54 -95 102c0 80 64 157 144 157c74 0 104 -57 104 -122c0 -102 -61 -192 -105 -228c-33 -27 -72 -44 -110 -51c-16 -3 -32 -4 -45 -3zM137 220h-1
c-52 0 -98 -55 -98 -120c0 -38 20 -72 65 -72c36 0 68 21 89 52c4 5 6 10 8 16c2 10 4 26 4 40c0 48 -20 84 -67 84z" />
    <glyph glyph-name="centinferior" unicode="&#xf6df;" horiz-adv-x="267" 
d="M106 -155h-32l13 63c-35 5 -57 19 -73 41c-15 21 -22 47 -22 73c0 94 71 169 153 178l11 62h31l-11 -61c21 0 49 -9 59 -17l-16 -31c-14 9 -33 16 -64 16c-57 0 -120 -59 -120 -144c0 -48 28 -85 82 -85c29 0 52 9 67 16l6 -32c-12 -7 -44 -16 -73 -16z" />
    <glyph glyph-name="dollarinferior" unicode="&#xf6e3;" horiz-adv-x="252" 
d="M63 -195h-32l12 61c-27 1 -60 13 -77 26l14 32c19 -14 45 -25 78 -25c46 0 86 29 86 74c0 26 -13 50 -53 69c-55 27 -78 57 -78 94c0 53 45 98 105 103l13 61h31l-12 -61c29 -1 54 -12 64 -20l-14 -31c-12 7 -31 19 -68 19c-47 0 -77 -30 -77 -66c0 -27 14 -43 61 -67
c49 -25 71 -55 71 -94c0 -64 -47 -106 -112 -114z" />
    <glyph glyph-name="periodinferior" unicode="&#xf6e7;" horiz-adv-x="120" 
d="M-1 -151h-1c-16 0 -28 14 -28 32c0 20 13 35 32 35s30 -13 30 -32c0 -20 -13 -35 -33 -35z" />
    <glyph glyph-name="commainferior" unicode="&#xf6e1;" horiz-adv-x="120" 
d="M-40 -215l-32 -4c17 31 45 96 58 137l50 6c-20 -49 -58 -116 -76 -139z" />
    <glyph glyph-name="commaaccent" unicode="&#xf6c3;" 
d="M46 -209l-8 27c45 7 94 30 94 79c0 22 -12 40 -26 50l41 11c14 -9 29 -32 29 -56c0 -69 -67 -103 -130 -111z" />
    <glyph glyph-name="Abreve" unicode="&#x102;" horiz-adv-x="537" 
d="M401 237h-256l-125 -237h-46l360 674h45l102 -674h-44zM167 276h228l-34 225c-5 34 -11 81 -14 119h-2c-19 -39 -34 -75 -56 -117zM265 815h35c-1 -29 15 -56 66 -56c48 0 72 24 81 56h38c-9 -49 -49 -95 -120 -95c-79 0 -107 46 -100 95z" />
    <glyph glyph-name="Amacron" unicode="&#x100;" horiz-adv-x="537" 
d="M401 237h-256l-125 -237h-46l360 674h45l102 -674h-44zM167 276h228l-34 225c-5 34 -11 81 -14 119h-2c-19 -39 -34 -75 -56 -117zM261 772h217l-7 -39h-217z" />
    <glyph glyph-name="Aogonek" unicode="&#x104;" horiz-adv-x="537" 
d="M379 674l103 -674h-10c-36 -39 -64 -84 -64 -121c0 -25 16 -40 38 -40c13 0 27 3 41 11l10 -28c-19 -16 -44 -20 -66 -20c-44 0 -69 29 -69 70c0 54 57 114 74 134l-34 231h-257l-124 -237h-46l360 674h44zM168 276h228l-35 225c-4 34 -10 81 -13 119h-3
c-18 -39 -34 -75 -56 -117z" />
    <glyph glyph-name="AEacute" unicode="&#x1fc;" horiz-adv-x="728" 
d="M-5 0h-48l469 674h317l-8 -39h-248l-31 -261h236l-8 -39h-233l-34 -296h259l-8 -39h-298l30 271h-207zM210 309h186l25 213c4 33 10 82 15 116h-4c-19 -31 -44 -71 -71 -110zM601 823h77l-140 -113h-44z" />
    <glyph glyph-name="Cacute" unicode="&#x106;" horiz-adv-x="538" 
d="M470 62l10 -38c-39 -18 -101 -34 -173 -34c-164 0 -259 107 -259 276c0 111 42 234 128 316c70 66 158 102 258 102c76 0 130 -20 145 -35l-19 -35c-28 18 -77 31 -138 31c-78 0 -159 -33 -217 -90c-68 -67 -110 -174 -110 -281c0 -128 52 -245 221 -245
c53 0 114 11 154 33zM472 828h77l-140 -113h-44z" />
    <glyph glyph-name="Ccaron" unicode="&#x10c;" horiz-adv-x="538" 
d="M470 62l10 -38c-39 -18 -101 -34 -173 -34c-164 0 -259 107 -259 276c0 111 42 234 128 316c70 66 158 102 258 102c76 0 130 -20 145 -35l-19 -35c-28 18 -77 31 -138 31c-78 0 -159 -33 -217 -90c-68 -67 -110 -174 -110 -281c0 -128 52 -245 221 -245
c53 0 114 11 154 33zM429 715h-37l-80 112h50l51 -77h4l80 77h51z" />
    <glyph glyph-name="Ccircumflex" unicode="&#x108;" horiz-adv-x="538" 
d="M470 62l10 -38c-39 -18 -101 -34 -173 -34c-164 0 -259 107 -259 276c0 111 42 234 128 316c70 66 158 102 258 102c76 0 130 -20 145 -35l-19 -35c-28 18 -77 31 -138 31c-78 0 -159 -33 -217 -90c-68 -67 -110 -174 -110 -281c0 -128 52 -245 221 -245
c53 0 114 11 154 33zM408 823h37l80 -113h-47l-55 79h-2l-81 -79h-51z" />
    <glyph glyph-name="Cdotaccent" unicode="&#x10a;" horiz-adv-x="538" 
d="M470 62l10 -38c-39 -18 -101 -34 -173 -34c-164 0 -259 107 -259 276c0 111 42 234 128 316c70 66 158 102 258 102c76 0 130 -20 145 -35l-19 -35c-28 18 -77 31 -138 31c-78 0 -159 -33 -217 -90c-68 -67 -110 -174 -110 -281c0 -128 52 -245 221 -245
c53 0 114 11 154 33zM426 726h-1c-20 0 -35 19 -35 39c0 19 17 40 39 40s36 -21 36 -39c0 -19 -16 -40 -39 -40z" />
    <glyph glyph-name="Dcaron" unicode="&#x10e;" horiz-adv-x="626" 
d="M39 2l126 664c48 8 100 13 156 13c116 0 204 -37 249 -100c25 -33 47 -89 48 -166c0 -117 -45 -243 -134 -322c-78 -67 -176 -96 -295 -96c-45 0 -100 1 -150 7zM203 633l-112 -594c38 -5 77 -5 102 -5c125 0 208 34 272 97c70 68 105 173 105 277
c0 127 -58 233 -256 233c-33 0 -81 -2 -111 -8zM386 710h-37l-80 112h50l51 -77h4l80 77h51z" />
    <glyph glyph-name="Dcroat" unicode="&#x110;" horiz-adv-x="629" 
d="M16 336l9 39h88l55 291c53 8 109 13 163 13c109 0 197 -37 242 -100c25 -33 47 -89 48 -164c0 -113 -49 -243 -140 -321c-74 -64 -175 -97 -289 -97c-45 0 -100 1 -150 7l63 332h-89zM346 375l-8 -39h-188l-56 -295c38 -5 77 -5 107 -5c107 0 197 35 261 97
c72 68 111 177 111 279c0 123 -57 229 -256 229c-33 0 -74 0 -110 -6l-49 -260h188z" />
    <glyph glyph-name="Ebreve" unicode="&#x114;" horiz-adv-x="441" 
d="M404 375l-8 -39h-248l-56 -297h280l-8 -39h-325l129 674h309l-8 -39h-264l-49 -260h248zM227 824h35c-1 -29 15 -56 66 -56c48 0 72 24 81 56h38c-9 -49 -49 -95 -120 -95c-79 0 -107 46 -100 95z" />
    <glyph glyph-name="Ecaron" unicode="&#x11a;" horiz-adv-x="441" 
d="M404 375l-8 -39h-248l-56 -297h280l-8 -39h-325l129 674h309l-8 -39h-264l-49 -260h248zM336 710h-37l-80 112h50l51 -77h4l80 77h51z" />
    <glyph glyph-name="Edotaccent" unicode="&#x116;" horiz-adv-x="441" 
d="M404 375l-8 -39h-248l-56 -297h280l-8 -39h-325l129 674h309l-8 -39h-264l-49 -260h248zM330 726h-1c-20 0 -35 19 -35 39c0 19 17 40 39 40s36 -21 36 -39c0 -19 -16 -40 -39 -40z" />
    <glyph glyph-name="Emacron" unicode="&#x112;" horiz-adv-x="441" 
d="M404 375l-8 -39h-248l-56 -297h280l-8 -39h-325l129 674h309l-8 -39h-264l-49 -260h248zM225 772h217l-7 -39h-217z" />
    <glyph glyph-name="Eng" unicode="&#x14a;" horiz-adv-x="611" 
d="M293 -186v37c81 6 128 42 153 152l-189 447c-35 79 -48 118 -61 170l-3 -1c-7 -62 -15 -112 -30 -195l-80 -424h-44l128 674h43l195 -458c31 -71 44 -114 57 -162l2 1c4 56 9 101 27 192l81 427h44l-125 -659c-31 -164 -106 -198 -198 -201z" />
    <glyph glyph-name="Eogonek" unicode="&#x118;" horiz-adv-x="441" 
d="M39 0l128 674h310l-8 -39h-264l-50 -260h249l-8 -39h-249l-56 -297h281l-8 -39h-15c-47 -30 -95 -84 -95 -128c0 -22 13 -35 34 -35c15 0 30 3 44 10l10 -29c-22 -13 -42 -18 -67 -18c-41 0 -67 26 -67 63c0 63 65 117 94 137h-263z" />
    <glyph glyph-name="Gbreve" unicode="&#x11e;" horiz-adv-x="592" 
d="M554 333l-57 -306c-31 -14 -97 -34 -172 -34c-97 0 -170 29 -218 90c-50 62 -58 135 -58 190c0 103 42 226 128 307c70 64 162 101 265 101c80 0 130 -20 147 -31l-17 -38c-37 20 -80 30 -141 30c-87 0 -169 -36 -232 -99c-66 -67 -103 -174 -103 -265
c0 -141 64 -246 241 -246c44 0 91 10 120 23l45 239h-156l7 39h201zM312 823h35c-1 -29 15 -56 66 -56c48 0 72 24 81 56h38c-9 -49 -49 -95 -120 -95c-79 0 -107 46 -100 95z" />
    <glyph glyph-name="Gcircumflex" unicode="&#x11c;" horiz-adv-x="592" 
d="M554 333l-57 -306c-31 -14 -97 -34 -172 -34c-97 0 -170 29 -218 90c-50 62 -58 135 -58 190c0 103 42 226 128 307c70 64 162 101 265 101c80 0 130 -20 147 -31l-17 -38c-37 20 -80 30 -141 30c-87 0 -169 -36 -232 -99c-66 -67 -103 -174 -103 -265
c0 -141 64 -246 241 -246c44 0 91 10 120 23l45 239h-156l7 39h201zM420 823h37l80 -113h-47l-55 79h-2l-81 -79h-51z" />
    <glyph glyph-name="Gcommaaccent" unicode="&#x122;" horiz-adv-x="592" 
d="M554 333l-57 -306c-31 -14 -97 -34 -172 -34c-97 0 -170 29 -218 90c-50 62 -58 135 -58 190c0 103 42 226 128 307c70 64 162 101 265 101c80 0 130 -20 147 -31l-17 -38c-37 20 -80 30 -141 30c-87 0 -169 -36 -232 -99c-66 -67 -103 -174 -103 -265
c0 -141 64 -246 241 -246c44 0 91 10 120 23l45 239h-156l7 39h201zM170 -209l-8 27c45 7 94 30 94 79c0 22 -12 40 -26 50l41 11c14 -9 29 -32 29 -56c0 -69 -67 -103 -130 -111z" />
    <glyph glyph-name="Gdotaccent" unicode="&#x120;" horiz-adv-x="592" 
d="M554 333l-57 -306c-31 -14 -97 -34 -172 -34c-97 0 -170 29 -218 90c-50 62 -58 135 -58 190c0 103 42 226 128 307c70 64 162 101 265 101c80 0 130 -20 147 -31l-17 -38c-37 20 -80 30 -141 30c-87 0 -169 -36 -232 -99c-66 -67 -103 -174 -103 -265
c0 -141 64 -246 241 -246c44 0 91 10 120 23l45 239h-156l7 39h201zM430 726h-1c-20 0 -35 19 -35 39c0 19 17 40 39 40s36 -21 36 -39c0 -19 -16 -40 -39 -40z" />
    <glyph glyph-name="Hbar" unicode="&#x126;" horiz-adv-x="603" 
d="M526 485h-350l-22 -114h350zM69 521h70l29 153h45l-29 -153h350l29 153h45l-29 -153h61l-7 -36h-61l-93 -485h-45l63 332h-351l-62 -332h-45l93 485h-70z" />
    <glyph glyph-name="Hcircumflex" unicode="&#x124;" horiz-adv-x="603" 
d="M167 674h46l-58 -297h351l57 297h45l-129 -674h-45l64 338h-350l-64 -338h-45zM395 823h37l80 -113h-47l-55 79h-2l-81 -79h-51z" />
    <glyph glyph-name="Ibreve" unicode="&#x12c;" horiz-adv-x="208" 
d="M168 674h45l-129 -674h-45zM109 825h35c-1 -29 15 -56 66 -56c48 0 72 24 81 56h38c-9 -49 -49 -95 -120 -95c-79 0 -107 46 -100 95z" />
    <glyph glyph-name="IJ" unicode="&#x132;" horiz-adv-x="550" 
d="M168 674h45l-129 -674h-45zM428 203l89 471h45l-90 -475c-28 -150 -89 -210 -199 -210c-39 0 -79 10 -93 18l12 39c22 -11 50 -16 87 -16c76 0 124 41 149 173z" />
    <glyph glyph-name="Imacron" unicode="&#x12a;" horiz-adv-x="208" 
d="M168 674h45l-129 -674h-45zM101 772h217l-7 -39h-217z" />
    <glyph glyph-name="Iogonek" unicode="&#x12e;" horiz-adv-x="208" 
d="M213 674l-129 -674h-8c-36 -39 -64 -84 -64 -121c0 -25 16 -40 38 -40c13 0 27 3 41 11l10 -28c-19 -16 -44 -20 -66 -20c-44 0 -69 29 -69 70c0 54 57 114 74 134l127 668h46z" />
    <glyph glyph-name="Itilde" unicode="&#x128;" horiz-adv-x="208" 
d="M168 674h45l-129 -674h-45zM119 716h-32c8 44 34 85 71 85c27 0 40 -8 59 -21c15 -10 29 -17 46 -17c16 0 27 13 34 38h32c-9 -47 -31 -80 -72 -80c-24 0 -36 7 -58 20c-17 10 -27 19 -44 18c-18 -1 -29 -18 -36 -43z" />
    <glyph glyph-name="Jcircumflex" unicode="&#x134;" horiz-adv-x="342" 
d="M220 203l89 471h45l-90 -475c-28 -150 -89 -210 -199 -210c-39 0 -79 10 -93 18l12 39c22 -11 50 -16 87 -16c76 0 124 41 149 173zM340 823h37l80 -113h-47l-55 79h-2l-81 -79h-51z" />
    <glyph glyph-name="Kcommaaccent" unicode="&#x136;" horiz-adv-x="469" 
d="M39 0l129 674h45l-66 -344l5 1c25 28 49 52 71 74l268 269h57l-290 -289l183 -385h-49l-169 354l-86 -79l-53 -275h-45zM93 -209l-8 27c45 7 94 30 94 79c0 22 -12 40 -26 50l41 11c14 -9 29 -32 29 -56c0 -69 -67 -103 -130 -111z" />
    <glyph glyph-name="Lacute" unicode="&#x139;" horiz-adv-x="414" 
d="M39 0l129 674h45l-122 -635h280l-8 -39h-324zM287 823h77l-140 -113h-44z" />
    <glyph glyph-name="Lcaron" unicode="&#x13d;" horiz-adv-x="414" 
d="M39 0l129 674h45l-122 -635h280l-8 -39h-324zM261 511l-8 27c45 7 94 30 94 79c0 22 -12 40 -26 50l41 11c14 -9 29 -32 29 -56c0 -69 -67 -103 -130 -111z" />
    <glyph glyph-name="Lcommaaccent" unicode="&#x13b;" horiz-adv-x="414" 
d="M39 0l129 674h45l-122 -635h280l-8 -39h-324zM85 -209l-8 27c45 7 94 30 94 79c0 22 -12 40 -26 50l41 11c14 -9 29 -32 29 -56c0 -69 -67 -103 -130 -111z" />
    <glyph glyph-name="Ldot" unicode="&#x13f;" horiz-adv-x="414" 
d="M39 0l129 674h45l-122 -635h280l-8 -39h-324zM306 320h-1c-20 0 -35 19 -35 39c0 19 17 40 39 40s36 -21 36 -39c0 -19 -16 -40 -39 -40z" />
    <glyph glyph-name="Nacute" unicode="&#x143;" horiz-adv-x="611" 
d="M83 0h-44l128 674h43l195 -458c31 -71 44 -114 57 -162l2 1c4 56 10 101 27 192l81 427h44l-128 -674h-41l-190 450c-35 79 -48 118 -61 170l-3 -1c-7 -62 -15 -112 -30 -195zM459 823h77l-140 -113h-44z" />
    <glyph glyph-name="Ncaron" unicode="&#x147;" horiz-adv-x="611" 
d="M83 0h-44l128 674h43l195 -458c31 -71 44 -114 57 -162l2 1c4 56 10 101 27 192l81 427h44l-128 -674h-41l-190 450c-35 79 -48 118 -61 170l-3 -1c-7 -62 -15 -112 -30 -195zM415 710h-37l-80 112h50l51 -77h4l80 77h51z" />
    <glyph glyph-name="Ncommaaccent" unicode="&#x145;" horiz-adv-x="611" 
d="M83 0h-44l128 674h43l195 -458c31 -71 44 -114 57 -162l2 1c4 56 10 101 27 192l81 427h44l-128 -674h-41l-190 450c-35 79 -48 118 -61 170l-3 -1c-7 -62 -15 -112 -30 -195zM175 -209l-8 27c45 7 94 30 94 79c0 22 -12 40 -26 50l41 11c14 -9 29 -32 29 -56
c0 -69 -67 -103 -130 -111z" />
    <glyph glyph-name="Obreve" unicode="&#x14e;" horiz-adv-x="645" 
d="M294 -11h-1c-174 0 -245 135 -245 270c0 117 48 255 131 338c55 54 137 88 214 88c184 0 245 -139 245 -273c0 -114 -43 -248 -125 -331c-57 -58 -132 -92 -219 -92zM299 28h1c67 0 130 29 180 79c70 70 111 198 111 302c0 102 -32 237 -205 237c-69 0 -130 -30 -178 -78
c-71 -72 -113 -199 -113 -301c0 -119 52 -239 204 -239zM327 828h35c-1 -29 15 -56 66 -56c48 0 72 24 81 56h38c-9 -49 -49 -95 -120 -95c-79 0 -107 46 -100 95z" />
    <glyph glyph-name="Ohungarumlaut" unicode="&#x150;" horiz-adv-x="645" 
d="M294 -11h-1c-174 0 -245 135 -245 270c0 117 48 255 131 338c55 54 137 88 214 88c184 0 245 -139 245 -273c0 -114 -43 -248 -125 -331c-57 -58 -132 -92 -219 -92zM299 28h1c67 0 130 29 180 79c70 70 111 198 111 302c0 102 -32 237 -205 237c-69 0 -130 -30 -178 -78
c-71 -72 -113 -199 -113 -301c0 -119 52 -239 204 -239zM416 822h68l-131 -109h-39zM542 822h68l-131 -109h-39z" />
    <glyph glyph-name="Omacron" unicode="&#x14c;" horiz-adv-x="645" 
d="M294 -11h-1c-174 0 -245 135 -245 270c0 117 48 255 131 338c55 54 137 88 214 88c184 0 245 -139 245 -273c0 -114 -43 -248 -125 -331c-57 -58 -132 -92 -219 -92zM299 28h1c67 0 130 29 180 79c70 70 111 198 111 302c0 102 -32 237 -205 237c-69 0 -130 -30 -178 -78
c-71 -72 -113 -199 -113 -301c0 -119 52 -239 204 -239zM319 772h217l-7 -39h-217z" />
    <glyph glyph-name="Oslashacute" unicode="&#x1fe;" horiz-adv-x="645" 
d="M40 -28l-25 24l81 89c-33 52 -48 102 -48 177c0 116 45 242 120 322c61 64 146 101 227 101c76 0 131 -22 171 -66l78 83l27 -23l-82 -89c36 -53 48 -113 48 -173c0 -116 -45 -249 -120 -330c-57 -62 -140 -98 -223 -98c-74 0 -132 23 -176 68zM130 123l408 462
c-32 38 -76 61 -152 61c-125 0 -233 -107 -272 -249c-25 -89 -27 -190 14 -274h2zM556 549l-407 -460c35 -39 80 -61 156 -61c111 0 218 96 262 236c26 84 36 194 -9 285h-2zM480 828h77l-140 -113h-44z" />
    <glyph glyph-name="Racute" unicode="&#x154;" horiz-adv-x="486" 
d="M39 0l127 666c38 9 86 13 126 13c70 0 122 -20 151 -55c24 -27 35 -64 35 -99c0 -97 -81 -178 -165 -198v-2c51 -14 76 -69 80 -143c7 -105 12 -155 19 -182h-48c-3 12 -10 90 -13 165c-5 100 -43 146 -116 146h-92l-59 -311h-45zM205 633l-54 -285h83
c122 0 196 82 196 173c0 83 -60 121 -147 121c-37 0 -61 -3 -78 -9zM381 823h77l-140 -113h-44z" />
    <glyph glyph-name="Rcaron" unicode="&#x158;" horiz-adv-x="486" 
d="M39 0l127 666c38 9 86 13 126 13c70 0 122 -20 151 -55c24 -27 35 -64 35 -99c0 -97 -81 -178 -165 -198v-2c51 -14 76 -69 80 -143c7 -105 12 -155 19 -182h-48c-3 12 -10 90 -13 165c-5 100 -43 146 -116 146h-92l-59 -311h-45zM205 633l-54 -285h83
c122 0 196 82 196 173c0 83 -60 121 -147 121c-37 0 -61 -3 -78 -9zM323 710h-37l-80 112h50l51 -77h4l80 77h51z" />
    <glyph glyph-name="Rcommaaccent" unicode="&#x156;" horiz-adv-x="486" 
d="M39 0l127 666c38 9 86 13 126 13c70 0 122 -20 151 -55c24 -27 35 -64 35 -99c0 -97 -81 -178 -165 -198v-2c51 -14 76 -69 80 -143c7 -105 12 -155 19 -182h-48c-3 12 -10 90 -13 165c-5 100 -43 146 -116 146h-92l-59 -311h-45zM205 633l-54 -285h83
c122 0 196 82 196 173c0 83 -60 121 -147 121c-37 0 -61 -3 -78 -9zM102 -209l-8 27c45 7 94 30 94 79c0 22 -12 40 -26 50l41 11c14 -9 29 -32 29 -56c0 -69 -67 -103 -130 -111z" />
    <glyph glyph-name="Sacute" unicode="&#x15a;" horiz-adv-x="438" 
d="M19 35l19 37c34 -25 81 -43 133 -43c89 0 170 57 170 156c0 57 -27 102 -103 145c-95 51 -131 106 -131 169c0 111 94 185 204 185c56 0 105 -20 125 -36l-20 -36c-20 13 -59 33 -111 33c-93 0 -153 -68 -153 -135c0 -64 30 -99 109 -142c83 -46 125 -98 125 -182
c0 -96 -71 -196 -224 -196c-51 0 -117 20 -143 45zM373 824h77l-140 -113h-44z" />
    <glyph glyph-name="Scedilla" unicode="&#x15e;" horiz-adv-x="438" 
d="M436 648l-20 -36c-20 13 -59 33 -111 33c-93 0 -153 -68 -153 -135c0 -64 30 -99 108 -142c84 -46 126 -98 126 -182c0 -82 -53 -168 -164 -190l-38 -50c30 -7 50 -31 50 -63c0 -46 -42 -81 -99 -81c-24 0 -47 7 -58 15l15 35c14 -9 32 -13 51 -13c26 0 48 15 48 41
c0 23 -26 36 -62 40l52 71c-7 0 -13 -1 -19 -1c-51 0 -117 20 -143 45l19 37c34 -25 81 -43 133 -43c88 0 170 57 170 156c0 57 -27 102 -103 145c-95 51 -131 106 -131 169c0 111 94 185 204 185c56 0 105 -20 125 -36z" />
    <glyph glyph-name="Scedilla" unicode="&#xf6c1;" horiz-adv-x="438" 
d="M436 648l-20 -36c-20 13 -59 33 -111 33c-93 0 -153 -68 -153 -135c0 -64 30 -99 108 -142c84 -46 126 -98 126 -182c0 -82 -53 -168 -164 -190l-38 -50c30 -7 50 -31 50 -63c0 -46 -42 -81 -99 -81c-24 0 -47 7 -58 15l15 35c14 -9 32 -13 51 -13c26 0 48 15 48 41
c0 23 -26 36 -62 40l52 71c-7 0 -13 -1 -19 -1c-51 0 -117 20 -143 45l19 37c34 -25 81 -43 133 -43c88 0 170 57 170 156c0 57 -27 102 -103 145c-95 51 -131 106 -131 169c0 111 94 185 204 185c56 0 105 -20 125 -36z" />
    <glyph glyph-name="Scircumflex" unicode="&#x15c;" horiz-adv-x="438" 
d="M19 35l19 37c34 -25 81 -43 133 -43c89 0 170 57 170 156c0 57 -27 102 -103 145c-95 51 -131 106 -131 169c0 111 94 185 204 185c56 0 105 -20 125 -36l-20 -36c-20 13 -59 33 -111 33c-93 0 -153 -68 -153 -135c0 -64 30 -99 109 -142c83 -46 125 -98 125 -182
c0 -96 -71 -196 -224 -196c-51 0 -117 20 -143 45zM313 823h37l80 -113h-47l-55 79h-2l-81 -79h-51z" />
    <glyph glyph-name="Scommaaccent" unicode="&#x218;" horiz-adv-x="438" 
d="M19 35l19 37c34 -25 81 -43 133 -43c89 0 170 57 170 156c0 57 -27 102 -103 145c-95 51 -131 106 -131 169c0 111 94 185 204 185c56 0 105 -20 125 -36l-20 -36c-20 13 -59 33 -111 33c-93 0 -153 -68 -153 -135c0 -64 30 -99 109 -142c83 -46 125 -98 125 -182
c0 -96 -71 -196 -224 -196c-51 0 -117 20 -143 45zM78 -209l-8 27c45 7 94 30 94 79c0 22 -12 40 -26 50l41 11c14 -9 29 -32 29 -56c0 -69 -67 -103 -130 -111z" />
    <glyph glyph-name="Tbar" unicode="&#x166;" horiz-adv-x="441" 
d="M399 340h-137l-65 -340h-45l65 340h-131l8 38h129l50 257h-209l8 39h462l-8 -39h-208l-50 -257h138z" />
    <glyph glyph-name="Tcaron" unicode="&#x164;" horiz-adv-x="441" 
d="M152 0l121 635h-209l8 39h462l-8 -39h-208l-121 -635h-45zM328 710h-37l-80 112h50l51 -77h4l80 77h51z" />
    <glyph glyph-name="Tcommaaccent" unicode="&#x162;" horiz-adv-x="441" 
d="M152 0l121 635h-209l8 39h462l-8 -39h-208l-121 -635h-45zM77 -209l-8 27c45 7 94 30 94 79c0 22 -12 40 -26 50l41 11c14 -9 29 -32 29 -56c0 -69 -67 -103 -130 -111z" />
    <glyph glyph-name="Tcommaaccent" unicode="&#x21a;" horiz-adv-x="441" 
d="M152 0l121 635h-209l8 39h462l-8 -39h-208l-121 -635h-45zM77 -209l-8 27c45 7 94 30 94 79c0 22 -12 40 -26 50l41 11c14 -9 29 -32 29 -56c0 -69 -67 -103 -130 -111z" />
    <glyph glyph-name="Ubreve" unicode="&#x16c;" horiz-adv-x="600" 
d="M168 674h45l-77 -407c-6 -30 -9 -61 -9 -87c0 -106 60 -151 142 -151c102 0 180 70 212 237l78 408h46l-80 -415c-39 -200 -145 -270 -264 -270c-94 0 -180 53 -180 189c0 29 3 61 9 92zM302 825h35c-1 -29 15 -56 66 -56c48 0 72 24 81 56h38c-9 -49 -49 -95 -120 -95
c-79 0 -107 46 -100 95z" />
    <glyph glyph-name="Uhungarumlaut" unicode="&#x170;" horiz-adv-x="600" 
d="M168 674h45l-77 -407c-6 -30 -9 -61 -9 -87c0 -106 60 -151 142 -151c102 0 180 70 212 237l78 408h46l-80 -415c-39 -200 -145 -270 -264 -270c-94 0 -180 53 -180 189c0 29 3 61 9 92zM397 822h68l-131 -109h-39zM523 822h68l-131 -109h-39z" />
    <glyph glyph-name="Umacron" unicode="&#x16a;" horiz-adv-x="600" 
d="M168 674h45l-77 -407c-6 -30 -9 -61 -9 -87c0 -106 60 -151 142 -151c102 0 180 70 212 237l78 408h46l-80 -415c-39 -200 -145 -270 -264 -270c-94 0 -180 53 -180 189c0 29 3 61 9 92zM295 772h217l-7 -39h-217z" />
    <glyph glyph-name="Uogonek" unicode="&#x172;" horiz-adv-x="600" 
d="M355 -132l5 -31c-18 -10 -36 -14 -58 -14c-45 0 -72 24 -72 64c0 38 29 74 61 104c-10 -1 -20 -2 -30 -2c-94 0 -180 53 -180 189c0 29 3 61 9 92l78 404h45l-77 -407c-6 -30 -9 -61 -9 -87c0 -106 60 -151 142 -151c102 0 180 70 212 237l78 408h46l-80 -415
c-24 -128 -76 -202 -142 -240c-23 -13 -52 -32 -67 -46c-23 -22 -40 -49 -40 -76c0 -25 17 -37 37 -37c15 0 28 2 42 8z" />
    <glyph glyph-name="Uring" unicode="&#x16e;" horiz-adv-x="600" 
d="M168 674h45l-77 -407c-6 -30 -9 -61 -9 -87c0 -106 60 -151 142 -151c102 0 180 70 212 237l78 408h46l-80 -415c-39 -200 -145 -270 -264 -270c-94 0 -180 53 -180 189c0 29 3 61 9 92zM398 863h1c52 0 86 -36 86 -84c0 -50 -42 -85 -90 -85c-51 0 -87 36 -87 81
c0 49 38 88 90 88zM397 835h-1c-28 0 -48 -25 -48 -59c0 -29 19 -53 47 -53c29 0 50 24 50 57c0 31 -18 55 -48 55z" />
    <glyph glyph-name="Utilde" unicode="&#x168;" horiz-adv-x="600" 
d="M168 674h45l-77 -407c-6 -30 -9 -61 -9 -87c0 -106 60 -151 142 -151c102 0 180 70 212 237l78 408h46l-80 -415c-39 -200 -145 -270 -264 -270c-94 0 -180 53 -180 189c0 29 3 61 9 92zM315 716h-32c8 44 34 85 71 85c27 0 40 -8 59 -21c15 -10 29 -17 46 -17
c16 0 27 13 34 38h32c-9 -47 -31 -80 -72 -80c-24 0 -36 7 -58 20c-17 10 -27 19 -44 18c-18 -1 -29 -18 -36 -43z" />
    <glyph glyph-name="Wacute" unicode="&#x1e82;" horiz-adv-x="807" 
d="M183 0h-45l-38 674h45l23 -468c5 -91 3 -118 3 -149h2c11 30 23 59 63 143l228 474h46l24 -441c5 -92 6 -145 6 -176h2c18 51 35 93 61 148l222 469h47l-323 -674h-45l-25 450c-5 77 -5 97 -1 175h-3c-21 -60 -35 -98 -59 -146zM559 823h77l-140 -113h-44z" />
    <glyph glyph-name="Wcircumflex" unicode="&#x174;" horiz-adv-x="807" 
d="M183 0h-45l-38 674h45l23 -468c5 -91 3 -118 3 -149h2c11 30 23 59 63 143l228 474h46l24 -441c5 -92 6 -145 6 -176h2c18 51 35 93 61 148l222 469h47l-323 -674h-45l-25 450c-5 77 -5 97 -1 175h-3c-21 -60 -35 -98 -59 -146zM495 823h37l80 -113h-47l-55 79h-2
l-81 -79h-51z" />
    <glyph glyph-name="Wdieresis" unicode="&#x1e84;" horiz-adv-x="807" 
d="M183 0h-45l-38 674h45l23 -468c5 -91 3 -118 3 -149h2c11 30 23 59 63 143l228 474h46l24 -441c5 -92 6 -145 6 -176h2c18 51 35 93 61 148l222 469h47l-323 -674h-45l-25 450c-5 77 -5 97 -1 175h-3c-21 -60 -35 -98 -59 -146zM417 726h-1c-20 0 -35 19 -35 39
c0 19 17 40 39 40s36 -21 36 -39c0 -19 -16 -40 -39 -40zM587 726h-1c-20 0 -35 19 -35 39c0 19 17 40 39 40s36 -21 36 -39c0 -19 -16 -40 -39 -40z" />
    <glyph glyph-name="Wgrave" unicode="&#x1e80;" horiz-adv-x="807" 
d="M183 0h-45l-38 674h45l23 -468c5 -91 3 -118 3 -149h2c11 30 23 59 63 143l228 474h46l24 -441c5 -92 6 -145 6 -176h2c18 51 35 93 61 148l222 469h47l-323 -674h-45l-25 450c-5 77 -5 97 -1 175h-3c-21 -60 -35 -98 -59 -146zM377 823h70l73 -113h-37z" />
    <glyph glyph-name="Ycircumflex" unicode="&#x176;" horiz-adv-x="484" 
d="M212 0h-45l54 283l-129 391h48l79 -247c20 -62 26 -86 30 -107h2c14 22 39 61 74 111l173 243h51l-284 -392zM321 823h37l80 -113h-47l-55 79h-2l-81 -79h-51z" />
    <glyph glyph-name="Ygrave" unicode="&#x1ef2;" horiz-adv-x="484" 
d="M212 0h-45l54 283l-129 391h48l79 -247c20 -62 26 -86 30 -107h2c14 22 39 61 74 111l173 243h51l-284 -392zM213 823h70l73 -113h-37z" />
    <glyph glyph-name="Zacute" unicode="&#x179;" horiz-adv-x="504" 
d="M-16 0l6 31l498 601l-1 3h-349l8 39h410l-7 -32l-497 -600l2 -3h386l-8 -39h-448zM425 823h77l-140 -113h-44z" />
    <glyph glyph-name="Zdotaccent" unicode="&#x17b;" horiz-adv-x="504" 
d="M-16 0l6 31l498 601l-1 3h-349l8 39h410l-7 -32l-497 -600l2 -3h386l-8 -39h-448zM354 726h-1c-20 0 -35 19 -35 39c0 19 17 40 39 40s36 -21 36 -39c0 -19 -16 -40 -39 -40z" />
    <glyph glyph-name="Idotaccent" unicode="&#x130;" horiz-adv-x="208" 
d="M168 674h45l-129 -674h-45zM206 726h-1c-20 0 -35 19 -35 39c0 19 17 40 39 40s36 -21 36 -39c0 -19 -16 -40 -39 -40z" />
    <glyph glyph-name="abreve" unicode="&#x103;" horiz-adv-x="503" 
d="M403 0h-44c-1 30 5 83 14 143h-2c-57 -113 -127 -154 -202 -154c-85 0 -134 68 -134 153c0 171 133 349 325 349c40 0 83 -6 112 -14l-48 -250c-19 -97 -24 -178 -21 -227zM389 277l32 167c-12 4 -33 8 -69 8c-146 0 -269 -140 -270 -302c-1 -57 18 -122 97 -122
c86 0 185 115 210 249zM228 678h36c-4 -41 19 -75 60 -75c53 0 79 40 89 75h38c-12 -70 -66 -114 -125 -114c-87 0 -106 62 -98 114z" />
    <glyph glyph-name="amacron" unicode="&#x101;" horiz-adv-x="503" 
d="M403 0h-44c-1 30 5 83 14 143h-2c-57 -113 -127 -154 -202 -154c-85 0 -134 68 -134 153c0 171 133 349 325 349c40 0 83 -6 112 -14l-48 -250c-19 -97 -24 -178 -21 -227zM389 277l32 167c-12 4 -33 8 -69 8c-146 0 -269 -140 -270 -302c-1 -57 18 -122 97 -122
c86 0 185 115 210 249zM232 635h202l-7 -38h-202z" />
    <glyph glyph-name="aogonek" unicode="&#x105;" horiz-adv-x="503" 
d="M472 477l-48 -250c-19 -97 -24 -178 -21 -227h-7c-36 -39 -65 -84 -65 -121c0 -24 16 -40 38 -40c13 0 27 3 42 11l9 -28c-18 -16 -44 -20 -66 -20c-44 0 -69 29 -69 70c0 54 57 114 74 134c0 30 6 81 14 137h-2c-57 -113 -127 -154 -202 -154c-85 0 -134 68 -134 154
c0 170 133 348 325 348c40 0 83 -6 112 -14zM389 277l32 167c-12 4 -33 8 -69 8c-146 0 -269 -140 -270 -302c-1 -57 18 -122 97 -122c86 0 185 115 210 249z" />
    <glyph glyph-name="aeacute" unicode="&#x1fd;" horiz-adv-x="691" 
d="M602 62l14 -34c-23 -15 -70 -39 -145 -39c-81 0 -139 43 -156 120h-2c-37 -77 -108 -120 -184 -120c-82 0 -121 55 -122 117c0 118 116 192 316 183l4 23c10 59 -9 139 -100 139c-45 0 -80 -11 -120 -37l-14 34c56 36 107 43 139 43c81 0 129 -43 135 -117h2
c43 81 120 117 189 117c81 0 121 -50 121 -105c0 -130 -153 -140 -321 -135c-10 -49 -14 -99 2 -144c19 -53 63 -79 117 -79c67 0 101 20 125 34zM304 191l11 60c-102 6 -261 -17 -261 -142c0 -50 32 -81 82 -81c72 0 148 54 168 163zM633 384v1c0 35 -29 67 -80 67
c-99 0 -166 -95 -186 -163c140 -3 266 1 266 95zM475 678h74l-135 -138h-40z" />
    <glyph glyph-name="cacute" unicode="&#x107;" horiz-adv-x="416" 
d="M341 60l13 -38c-21 -11 -72 -32 -142 -32c-127 0 -174 90 -174 178c0 160 117 323 283 323c47 0 91 -17 101 -26l-16 -38c-21 11 -51 22 -92 22c-140 0 -229 -146 -229 -274c0 -85 40 -146 135 -146c54 0 97 18 121 31zM351 678h74l-135 -138h-40z" />
    <glyph glyph-name="ccaron" unicode="&#x10d;" horiz-adv-x="416" 
d="M341 60l13 -38c-21 -11 -72 -32 -142 -32c-127 0 -174 90 -174 178c0 160 117 323 283 323c47 0 91 -17 101 -26l-16 -38c-21 11 -51 22 -92 22c-140 0 -229 -146 -229 -274c0 -85 40 -146 135 -146c54 0 97 18 121 31zM317 540h-36l-66 138h43l45 -100h3l79 100h46z" />
    <glyph glyph-name="ccircumflex" unicode="&#x109;" horiz-adv-x="416" 
d="M341 60l13 -38c-21 -11 -72 -32 -142 -32c-127 0 -174 90 -174 178c0 160 117 323 283 323c47 0 91 -17 101 -26l-16 -38c-21 11 -51 22 -92 22c-140 0 -229 -146 -229 -274c0 -85 40 -146 135 -146c54 0 97 18 121 31zM296 678h35l65 -138h-43l-44 99h-2l-78 -99h-46z
" />
    <glyph glyph-name="cdotaccent" unicode="&#x10b;" horiz-adv-x="416" 
d="M341 60l13 -38c-21 -11 -72 -32 -142 -32c-127 0 -174 90 -174 178c0 160 117 323 283 323c47 0 91 -17 101 -26l-16 -38c-21 11 -51 22 -92 22c-140 0 -229 -146 -229 -274c0 -85 40 -146 135 -146c54 0 97 18 121 31zM320 580h-1c-21 0 -34 18 -34 38c0 21 17 40 38 40
c22 0 35 -18 35 -38c0 -21 -13 -40 -38 -40z" />
    <glyph glyph-name="dcaron" unicode="&#x10f;" horiz-adv-x="513" 
d="M471 710h45l-111 -579c-7 -43 -15 -91 -18 -131h-42l17 106h-2c-45 -71 -107 -117 -183 -117c-100 0 -141 84 -141 171c0 173 131 331 294 331c37 0 76 -8 97 -19zM382 237l36 192c-20 13 -51 23 -93 23c-134 0 -242 -138 -242 -288c0 -58 16 -136 106 -136
c77 0 171 91 193 209zM530 546l-8 26c28 10 59 32 59 76c0 22 -12 43 -26 54l41 11c14 -9 29 -34 29 -60c0 -66 -52 -100 -95 -107z" />
    <glyph glyph-name="dcroat" unicode="&#x111;" horiz-adv-x="503" 
d="M382 237l36 192c-19 13 -51 23 -92 23c-135 0 -243 -138 -243 -288c0 -58 16 -136 106 -136c77 0 170 91 193 209zM250 595h200l21 115h45l-22 -115h82l-7 -37h-82l-81 -427c-8 -43 -16 -91 -19 -131h-42l17 106h-2c-45 -71 -106 -117 -183 -117c-100 0 -141 84 -141 171
c0 173 131 331 294 331c37 0 76 -8 97 -19l16 86h-200z" />
    <glyph glyph-name="ebreve" unicode="&#x115;" horiz-adv-x="423" 
d="M336 64l14 -36c-25 -16 -75 -38 -146 -38c-122 0 -168 93 -168 187c0 143 109 314 252 314c87 0 124 -54 124 -110c0 -128 -156 -154 -325 -152c-7 -25 -5 -85 6 -118c20 -55 62 -82 117 -82c60 0 102 20 126 35zM366 378v1c0 48 -36 73 -86 73c-87 0 -160 -90 -186 -185
c142 -2 272 17 272 111zM188 678h36c-4 -41 19 -75 60 -75c53 0 79 40 89 75h38c-12 -70 -66 -114 -125 -114c-87 0 -106 62 -98 114z" />
    <glyph glyph-name="ecaron" unicode="&#x11b;" horiz-adv-x="423" 
d="M336 64l14 -36c-25 -16 -75 -38 -146 -38c-122 0 -168 93 -168 187c0 143 109 314 252 314c87 0 124 -54 124 -110c0 -128 -156 -154 -325 -152c-7 -25 -5 -85 6 -118c20 -55 62 -82 117 -82c60 0 102 20 126 35zM366 378v1c0 48 -36 73 -86 73c-87 0 -160 -90 -186 -185
c142 -2 272 17 272 111zM292 540h-36l-66 138h43l45 -100h3l79 100h46z" />
    <glyph glyph-name="edotaccent" unicode="&#x117;" horiz-adv-x="423" 
d="M336 64l14 -36c-25 -16 -75 -38 -146 -38c-122 0 -168 93 -168 187c0 143 109 314 252 314c87 0 124 -54 124 -110c0 -128 -156 -154 -325 -152c-7 -25 -5 -85 6 -118c20 -55 62 -82 117 -82c60 0 102 20 126 35zM366 378v1c0 48 -36 73 -86 73c-87 0 -160 -90 -186 -185
c142 -2 272 17 272 111zM300 580h-1c-21 0 -34 18 -34 38c0 21 17 40 38 40c22 0 35 -18 35 -38c0 -21 -13 -40 -38 -40z" />
    <glyph glyph-name="emacron" unicode="&#x113;" horiz-adv-x="423" 
d="M336 64l14 -36c-25 -16 -75 -38 -146 -38c-122 0 -168 93 -168 187c0 143 109 314 252 314c87 0 124 -54 124 -110c0 -128 -156 -154 -325 -152c-7 -25 -5 -85 6 -118c20 -55 62 -82 117 -82c60 0 102 20 126 35zM366 378v1c0 48 -36 73 -86 73c-87 0 -160 -90 -186 -185
c142 -2 272 17 272 111zM192 635h202l-7 -38h-202z" />
    <glyph glyph-name="eng" unicode="&#x14b;" horiz-adv-x="516" 
d="M199 -168l-5 39c78 14 142 44 170 192l42 222c3 20 7 44 7 66c0 57 -23 100 -92 100c-68 0 -170 -78 -193 -205l-45 -246h-45l66 351c9 48 16 91 21 129h42l-15 -103h2c42 70 110 114 185 114c43 0 120 -23 120 -134c0 -22 -4 -49 -9 -76l-44 -230
c-28 -149 -103 -204 -207 -219z" />
    <glyph glyph-name="eogonek" unicode="&#x119;" horiz-adv-x="423" 
d="M366 378v1c0 48 -36 73 -86 73c-87 0 -160 -90 -186 -185c142 -2 272 17 272 111zM292 -139l5 -31c-21 -10 -44 -14 -64 -14c-42 0 -66 28 -66 66c0 45 36 85 70 109v1c-11 -1 -21 -2 -33 -2c-122 0 -168 93 -168 187c0 143 109 314 252 314c87 0 124 -54 124 -110
c0 -128 -156 -154 -325 -152c-7 -25 -5 -85 6 -118c20 -55 62 -82 117 -82c60 0 102 20 126 35l14 -36c-6 -4 -15 -8 -23 -12c-43 -22 -114 -69 -114 -124c0 -25 13 -40 35 -40c15 0 27 2 44 9z" />
    <glyph glyph-name="gbreve" unicode="&#x11f;" horiz-adv-x="503" 
d="M8 -173l17 38c30 -21 72 -35 128 -35c88 0 158 47 192 198l20 92h-3c-45 -82 -113 -122 -185 -122c-97 0 -142 84 -142 164c0 166 124 329 295 329c48 0 109 -17 139 -33l-74 -398c-21 -110 -49 -175 -95 -216c-45 -42 -107 -53 -156 -53c-55 0 -108 15 -136 36zM384 251
l35 180c-18 9 -54 21 -98 21c-142 0 -238 -145 -239 -281c-1 -56 17 -134 109 -134c86 0 174 113 193 214zM228 678h36c-4 -41 19 -75 60 -75c53 0 79 40 89 75h38c-12 -70 -66 -114 -125 -114c-87 0 -106 62 -98 114z" />
    <glyph glyph-name="gcircumflex" unicode="&#x11d;" horiz-adv-x="503" 
d="M8 -173l17 38c30 -21 72 -35 128 -35c88 0 158 47 192 198l20 92h-3c-45 -82 -113 -122 -185 -122c-97 0 -142 84 -142 164c0 166 124 329 295 329c48 0 109 -17 139 -33l-74 -398c-21 -110 -49 -175 -95 -216c-45 -42 -107 -53 -156 -53c-55 0 -108 15 -136 36zM384 251
l35 180c-18 9 -54 21 -98 21c-142 0 -238 -145 -239 -281c-1 -56 17 -134 109 -134c86 0 174 113 193 214zM319 678h35l65 -138h-43l-44 99h-2l-78 -99h-46z" />
    <glyph glyph-name="gcommaaccent" unicode="&#x123;" horiz-adv-x="503" 
d="M8 -173l17 38c30 -21 72 -35 128 -35c88 0 158 47 192 198l20 92h-3c-45 -82 -112 -122 -185 -122c-97 0 -142 84 -142 164c0 166 124 329 295 329c48 0 109 -17 139 -33l-74 -398c-21 -110 -49 -175 -94 -216c-46 -42 -108 -53 -157 -53c-55 0 -108 15 -136 36zM384 251
l35 180c-18 9 -54 21 -98 21c-142 0 -238 -145 -239 -281c-1 -56 17 -134 109 -134c87 0 174 113 193 214zM405 698l8 -27c-45 -7 -94 -30 -94 -79c0 -22 12 -39 26 -50l-40 -11c-14 9 -29 32 -29 56c0 69 67 103 129 111z" />
    <glyph glyph-name="gdotaccent" unicode="&#x121;" horiz-adv-x="503" 
d="M8 -173l17 38c30 -21 72 -35 128 -35c88 0 158 47 192 198l20 92h-3c-45 -82 -113 -122 -185 -122c-97 0 -142 84 -142 164c0 166 124 329 295 329c48 0 109 -17 139 -33l-74 -398c-21 -110 -49 -175 -95 -216c-45 -42 -107 -53 -156 -53c-55 0 -108 15 -136 36zM384 251
l35 180c-18 9 -54 21 -98 21c-142 0 -238 -145 -239 -281c-1 -56 17 -134 109 -134c86 0 174 113 193 214zM325 580h-1c-21 0 -34 18 -34 38c0 21 17 40 38 40c22 0 35 -18 35 -38c0 -21 -13 -40 -38 -40z" />
    <glyph glyph-name="hbar" unicode="&#x127;" horiz-adv-x="516" 
d="M67 596h85l21 114h46l-23 -114h198l-7 -36h-197l-36 -179h2c43 68 105 110 184 110c42 0 118 -24 118 -128c0 -27 -3 -55 -7 -78l-54 -285h-45l54 287c4 16 7 40 7 70c0 52 -26 94 -91 94c-73 0 -171 -83 -192 -197l-47 -254h-45l107 560h-85z" />
    <glyph glyph-name="hcircumflex" unicode="&#x125;" horiz-adv-x="516" 
d="M83 0h-45l135 710h46l-65 -329h2c43 68 105 110 184 110c42 0 118 -24 118 -128c0 -27 -3 -55 -7 -78l-54 -285h-45l54 287c4 16 7 40 7 70c0 52 -26 94 -91 94c-73 0 -171 -83 -192 -197zM193 846h37l80 -113h-47l-55 79h-2l-81 -79h-51z" />
    <glyph glyph-name="ibreve" unicode="&#x12d;" horiz-adv-x="206" 
d="M83 0h-45l92 480h45zM80 678h36c-4 -41 19 -75 60 -75c53 0 79 40 89 75h38c-12 -70 -66 -114 -125 -114c-87 0 -106 62 -98 114z" />
    <glyph glyph-name="ij" unicode="&#x133;" horiz-adv-x="403" 
d="M83 0h-45l92 480h45zM176 577h-1c-21 0 -33 19 -33 40c1 22 16 41 38 41s35 -18 35 -41c-2 -21 -15 -40 -39 -40zM335 480h45l-93 -487c-15 -79 -31 -128 -58 -158c-26 -29 -61 -44 -97 -44c-20 0 -34 1 -46 5l6 38c8 -2 23 -4 42 -4c47 0 83 31 103 139zM377 577h-1
c-21 0 -33 19 -33 40c1 22 16 41 38 41s35 -18 35 -41c-2 -21 -15 -40 -39 -40z" />
    <glyph glyph-name="imacron" unicode="&#x12b;" horiz-adv-x="206" 
d="M83 0h-45l92 480h45zM84 635h202l-7 -38h-202z" />
    <glyph glyph-name="iogonek" unicode="&#x12f;" horiz-adv-x="206" 
d="M176 583h-1c-21 0 -35 19 -34 41s17 41 38 41c22 0 36 -19 36 -41c-2 -22 -16 -41 -39 -41zM175 480l-92 -480h-8c-36 -39 -64 -84 -64 -121c0 -25 16 -40 38 -40c13 0 27 3 41 11l10 -28c-19 -16 -44 -20 -66 -20c-44 0 -69 29 -69 70c0 54 57 114 74 134l91 474h45z
" />
    <glyph glyph-name="itilde" unicode="&#x129;" horiz-adv-x="206" 
d="M83 0h-45l92 480h45zM97 574h-34c4 44 26 84 65 84c25 0 37 -10 61 -23c14 -9 27 -16 41 -16c16 0 24 9 28 41h33c-5 -46 -21 -80 -63 -80c-22 0 -41 10 -57 21c-13 8 -27 18 -44 18c-20 0 -26 -18 -30 -45z" />
    <glyph glyph-name="jcircumflex" unicode="&#x135;" horiz-adv-x="197" 
d="M128 480h45l-93 -487c-15 -79 -31 -128 -57 -158c-26 -29 -62 -44 -98 -44c-20 0 -34 1 -46 5l6 38c8 -2 23 -4 42 -4c48 0 83 31 104 139zM165 678h35l65 -138h-43l-44 99h-2l-77 -99h-46z" />
    <glyph glyph-name="kcommaaccent" unicode="&#x137;" horiz-adv-x="411" 
d="M83 0h-45l135 710h45l-87 -458h2c14 16 34 34 46 45l198 183h56l-213 -197l150 -283h-49l-135 256l-66 -56zM64 -209l-8 27c45 7 94 30 94 79c0 22 -12 40 -26 50l41 11c14 -9 29 -32 29 -56c0 -69 -67 -103 -130 -111z" />
    <glyph glyph-name="lacute" unicode="&#x13a;" horiz-adv-x="206" 
d="M83 0h-45l136 710h45zM270 853h77l-140 -113h-44z" />
    <glyph glyph-name="lcaron" unicode="&#x13e;" horiz-adv-x="214" 
d="M83 0h-45l135 710h46zM231 546l-8 26c28 10 59 32 59 76c0 22 -12 43 -26 54l41 11c14 -9 29 -34 29 -60c0 -66 -52 -100 -95 -107z" />
    <glyph glyph-name="lcommaaccent" unicode="&#x13c;" horiz-adv-x="206" 
d="M83 0h-45l136 710h45zM-38 -209l-8 27c45 7 94 30 94 79c0 22 -12 40 -26 50l41 11c14 -9 29 -32 29 -56c0 -69 -67 -103 -130 -111z" />
    <glyph glyph-name="ldot" unicode="&#x140;" horiz-adv-x="209" 
d="M83 0h-45l136 710h45zM233 330h-1c-21 0 -34 18 -34 38c0 21 17 40 38 40c22 0 35 -18 35 -38c0 -21 -13 -40 -38 -40z" />
    <glyph glyph-name="nacute" unicode="&#x144;" horiz-adv-x="516" 
d="M83 0h-45l66 351c10 48 16 91 21 129h42l-15 -103h2c42 70 110 114 185 114c43 0 120 -23 120 -134c0 -22 -4 -49 -9 -76l-53 -281h-45l54 285c3 20 7 44 7 66c0 57 -23 100 -92 100c-68 0 -170 -78 -193 -205zM388 678h74l-135 -138h-40z" />
    <glyph glyph-name="ncaron" unicode="&#x148;" horiz-adv-x="516" 
d="M83 0h-45l66 351c10 48 16 91 21 129h42l-15 -103h2c42 70 110 114 185 114c43 0 120 -23 120 -134c0 -22 -4 -49 -9 -76l-53 -281h-45l54 285c3 20 7 44 7 66c0 57 -23 100 -92 100c-68 0 -170 -78 -193 -205zM321 540h-36l-66 138h43l45 -100h3l79 100h46z" />
    <glyph glyph-name="ncommaaccent" unicode="&#x146;" horiz-adv-x="516" 
d="M83 0h-45l66 351c10 48 16 91 21 129h42l-15 -103h2c42 70 110 114 185 114c43 0 120 -23 120 -134c0 -22 -4 -49 -9 -76l-53 -281h-45l54 285c3 20 7 44 7 66c0 57 -23 100 -92 100c-68 0 -170 -78 -193 -205zM117 -209l-8 27c45 7 94 30 94 79c0 22 -12 40 -26 50
l41 11c14 -9 29 -32 29 -56c0 -69 -67 -103 -130 -111z" />
    <glyph glyph-name="obreve" unicode="&#x14f;" horiz-adv-x="500" 
d="M217 -11h-1c-119 0 -178 96 -178 196c0 154 107 306 254 306c129 0 178 -104 178 -201c0 -131 -96 -301 -253 -301zM221 28h1c109 0 201 133 201 263c0 63 -30 161 -135 161c-117 0 -203 -131 -203 -263c0 -92 53 -161 136 -161zM221 678h36c-4 -41 19 -75 60 -75
c53 0 79 40 89 75h38c-12 -70 -66 -114 -125 -114c-87 0 -106 62 -98 114z" />
    <glyph glyph-name="ohungarumlaut" unicode="&#x151;" horiz-adv-x="500" 
d="M217 -11h-1c-119 0 -178 96 -178 196c0 154 107 306 254 306c129 0 178 -104 178 -201c0 -131 -96 -301 -253 -301zM221 28h1c109 0 201 133 201 263c0 63 -30 161 -135 161c-117 0 -203 -131 -203 -263c0 -92 53 -161 136 -161zM303 678h67l-129 -138h-37zM430 678h66
l-129 -138h-37z" />
    <glyph glyph-name="omacron" unicode="&#x14d;" horiz-adv-x="500" 
d="M217 -11h-1c-119 0 -178 96 -178 196c0 154 107 306 254 306c129 0 178 -104 178 -201c0 -131 -96 -301 -253 -301zM221 28h1c109 0 201 133 201 263c0 63 -30 161 -135 161c-117 0 -203 -131 -203 -263c0 -92 53 -161 136 -161zM231 635h202l-7 -38h-202z" />
    <glyph glyph-name="oslashacute" unicode="&#x1ff;" horiz-adv-x="501" 
d="M49 -27l-25 23l54 62c-31 39 -40 87 -40 135c0 148 108 298 252 298c54 0 93 -17 118 -40l50 55l26 -21l-52 -61c30 -42 39 -91 39 -130c0 -158 -116 -305 -248 -305c-57 0 -95 17 -123 44zM112 95l267 322c-19 21 -51 35 -93 35c-120 0 -201 -137 -201 -257
c0 -43 6 -71 25 -101zM400 386l-271 -320c22 -24 55 -38 97 -38c97 0 198 124 198 260c0 37 -8 69 -22 98h-2zM369 678h74l-135 -138h-40z" />
    <glyph glyph-name="racute" unicode="&#x155;" horiz-adv-x="287" 
d="M83 0h-45l62 324c10 56 18 109 24 156h41c-5 -34 -9 -68 -16 -108h3c30 67 80 119 143 119c7 0 17 -1 22 -2l-9 -46c-5 1 -12 2 -22 2c-60 0 -137 -90 -159 -212zM288 678h74l-135 -138h-40z" />
    <glyph glyph-name="rcaron" unicode="&#x159;" horiz-adv-x="287" 
d="M83 0h-45l62 324c10 56 18 109 24 156h41c-5 -34 -9 -68 -16 -108h3c30 67 80 119 143 119c7 0 17 -1 22 -2l-9 -46c-5 1 -12 2 -22 2c-60 0 -137 -90 -159 -212zM236 540h-36l-66 138h43l45 -100h3l79 100h46z" />
    <glyph glyph-name="rcommaaccent" unicode="&#x157;" horiz-adv-x="287" 
d="M83 0h-45l62 324c10 56 18 109 24 156h41c-5 -34 -9 -68 -16 -108h3c30 67 80 119 143 119c7 0 17 -1 22 -2l-9 -46c-5 1 -12 2 -22 2c-60 0 -137 -90 -159 -212zM2 -209l-8 27c45 7 94 30 94 79c0 22 -12 40 -26 50l41 11c14 -9 29 -32 29 -56c0 -69 -67 -103 -130 -111
z" />
    <glyph glyph-name="sacute" unicode="&#x15b;" horiz-adv-x="346" 
d="M17 20l16 37c20 -14 55 -28 90 -28c65 0 110 46 110 100c0 46 -18 74 -71 106c-55 33 -77 76 -77 119c0 74 64 137 150 137c36 0 71 -12 86 -23l-17 -38c-14 9 -42 22 -74 22c-58 0 -100 -41 -100 -91c0 -45 25 -69 70 -97c54 -33 79 -77 79 -123
c0 -95 -75 -151 -160 -151c-46 0 -85 16 -102 30zM294 678h74l-135 -138h-40z" />
    <glyph glyph-name="scedilla" unicode="&#x15f;" horiz-adv-x="346" 
d="M321 468l-17 -38c-14 9 -42 22 -74 22c-58 0 -100 -41 -100 -91c0 -45 25 -69 70 -97c54 -33 79 -77 79 -123c0 -77 -50 -128 -114 -145l-38 -50c30 -7 50 -31 50 -63c0 -46 -42 -81 -99 -81c-24 0 -47 7 -58 15l15 35c14 -9 32 -13 51 -13c26 0 48 15 48 41
c0 23 -26 36 -63 40l53 70h-6c-46 0 -84 16 -101 30l16 37c20 -14 55 -28 90 -28c65 0 110 46 110 100c0 46 -18 74 -71 106c-55 33 -77 76 -77 119c0 74 64 137 150 137c36 0 71 -12 86 -23z" />
    <glyph glyph-name="scedilla" unicode="&#xf6c2;" horiz-adv-x="346" 
d="M321 468l-17 -38c-14 9 -42 22 -74 22c-58 0 -100 -41 -100 -91c0 -45 25 -69 70 -97c54 -33 79 -77 79 -123c0 -77 -50 -128 -114 -145l-38 -50c30 -7 50 -31 50 -63c0 -46 -42 -81 -99 -81c-24 0 -47 7 -58 15l15 35c14 -9 32 -13 51 -13c26 0 48 15 48 41
c0 23 -26 36 -63 40l53 70h-6c-46 0 -84 16 -101 30l16 37c20 -14 55 -28 90 -28c65 0 110 46 110 100c0 46 -18 74 -71 106c-55 33 -77 76 -77 119c0 74 64 137 150 137c36 0 71 -12 86 -23z" />
    <glyph glyph-name="scircumflex" unicode="&#x15d;" horiz-adv-x="346" 
d="M17 20l16 37c20 -14 55 -28 90 -28c65 0 110 46 110 100c0 46 -18 74 -71 106c-55 33 -77 76 -77 119c0 74 64 137 150 137c36 0 71 -12 86 -23l-17 -38c-14 9 -42 22 -74 22c-58 0 -100 -41 -100 -91c0 -45 25 -69 70 -97c54 -33 79 -77 79 -123
c0 -95 -75 -151 -160 -151c-46 0 -85 16 -102 30zM237 678h35l65 -138h-43l-44 99h-2l-78 -99h-46z" />
    <glyph glyph-name="scommaaccent" unicode="&#x219;" horiz-adv-x="346" 
d="M17 20l16 37c20 -14 55 -28 90 -28c65 0 110 46 110 100c0 46 -18 74 -71 106c-55 33 -77 76 -77 119c0 74 64 137 150 137c36 0 71 -12 86 -23l-17 -38c-14 9 -42 22 -74 22c-58 0 -100 -41 -100 -91c0 -45 25 -69 70 -97c54 -33 79 -77 79 -123
c0 -95 -75 -151 -160 -151c-46 0 -85 16 -102 30zM32 -209l-8 27c45 7 94 30 94 79c0 22 -12 40 -26 50l41 11c14 -9 29 -32 29 -56c0 -69 -67 -103 -130 -111z" />
    <glyph glyph-name="tbar" unicode="&#x167;" horiz-adv-x="292" 
d="M47 299h65l28 144h-73l7 37h74l16 88l49 18l-20 -106h122l-7 -37h-123l-27 -144h93l-7 -37h-93l-18 -97c-6 -31 -10 -56 -10 -86c0 -32 16 -50 48 -50c16 0 29 1 39 5l4 -36c-13 -5 -32 -8 -52 -8c-65 0 -86 45 -86 87c0 29 4 57 11 90l18 95h-65z" />
    <glyph glyph-name="tcaron" unicode="&#x165;" horiz-adv-x="292" 
d="M164 568l49 18l-20 -106h122l-8 -37h-122l-52 -277c-6 -32 -10 -57 -10 -87c0 -32 16 -50 48 -50c16 0 29 1 39 5l3 -36c-12 -5 -31 -8 -51 -8c-65 0 -86 45 -86 87c0 29 4 57 11 91l53 275h-73l7 37h74zM282 546l-8 26c28 10 59 32 59 76c0 22 -12 43 -26 54l41 11
c14 -9 29 -34 29 -60c0 -66 -52 -100 -95 -107z" />
    <glyph glyph-name="tcommaaccent" unicode="&#x163;" horiz-adv-x="292" 
d="M164 568l49 18l-20 -106h122l-7 -37h-123l-52 -277c-6 -32 -10 -57 -10 -87c0 -32 16 -50 48 -50c16 0 29 1 39 5l4 -36c-13 -5 -32 -8 -52 -8c-65 0 -86 45 -86 87c0 29 4 57 11 91l53 275h-73l7 37h74zM14 -209l-8 27c45 7 94 30 94 79c0 22 -12 40 -26 50l41 11
c14 -9 29 -32 29 -56c0 -69 -67 -103 -130 -111z" />
    <glyph glyph-name="tcommaaccent" unicode="&#x21b;" horiz-adv-x="292" 
d="M164 568l49 18l-20 -106h122l-7 -37h-123l-52 -277c-6 -32 -10 -57 -10 -87c0 -32 16 -50 48 -50c16 0 29 1 39 5l4 -36c-13 -5 -32 -8 -52 -8c-65 0 -86 45 -86 87c0 29 4 57 11 91l53 275h-73l7 37h74zM14 -209l-8 27c45 7 94 30 94 79c0 22 -12 40 -26 50l41 11
c14 -9 29 -32 29 -56c0 -69 -67 -103 -130 -111z" />
    <glyph glyph-name="ubreve" unicode="&#x16d;" horiz-adv-x="506" 
d="M428 480h45l-67 -351c-9 -48 -15 -91 -19 -129h-42l15 99h-2c-39 -63 -105 -110 -172 -110c-53 0 -129 21 -129 142c0 21 3 45 9 76l52 273h45l-52 -274c-6 -30 -9 -52 -9 -75c0 -61 25 -101 94 -101c68 0 161 78 182 189zM209 678h36c-4 -41 19 -75 60 -75
c53 0 79 40 89 75h38c-12 -70 -66 -114 -125 -114c-87 0 -106 62 -98 114z" />
    <glyph glyph-name="uhungarumlaut" unicode="&#x171;" horiz-adv-x="506" 
d="M428 480h45l-67 -351c-9 -48 -15 -91 -19 -129h-42l15 99h-2c-39 -63 -105 -110 -172 -110c-53 0 -129 21 -129 142c0 21 3 45 9 76l52 273h45l-52 -274c-6 -30 -9 -52 -9 -75c0 -61 25 -101 94 -101c68 0 161 78 182 189zM308 678h67l-129 -138h-37zM435 678h66
l-129 -138h-37z" />
    <glyph glyph-name="umacron" unicode="&#x16b;" horiz-adv-x="506" 
d="M428 480h45l-67 -351c-9 -48 -15 -91 -19 -129h-42l15 99h-2c-39 -63 -105 -110 -172 -110c-53 0 -129 21 -129 142c0 21 3 45 9 76l52 273h45l-52 -274c-6 -30 -9 -52 -9 -75c0 -61 25 -101 94 -101c68 0 161 78 182 189zM223 635h202l-7 -38h-202z" />
    <glyph glyph-name="uogonek" unicode="&#x173;" horiz-adv-x="506" 
d="M474 480l-67 -351c-9 -48 -15 -91 -19 -129l-4 5c-36 -39 -64 -83 -64 -120c0 -25 16 -40 38 -40c13 0 27 3 41 11l10 -28c-19 -16 -44 -20 -66 -20c-44 0 -69 29 -69 69c0 54 57 114 74 134l12 88h-2c-38 -63 -105 -110 -172 -110c-52 0 -129 21 -129 142
c0 21 3 45 9 76l52 273h45l-52 -274c-6 -30 -9 -52 -9 -75c0 -61 25 -101 95 -101c68 0 161 78 182 189l50 261h45z" />
    <glyph glyph-name="uring" unicode="&#x16f;" horiz-adv-x="506" 
d="M428 480h45l-67 -351c-9 -48 -15 -91 -19 -129h-42l15 99h-2c-39 -63 -105 -110 -172 -110c-53 0 -129 21 -129 142c0 21 3 45 9 76l52 273h45l-52 -274c-6 -30 -9 -52 -9 -75c0 -61 25 -101 94 -101c68 0 161 78 182 189zM331 710h1c51 0 88 -37 88 -89
c0 -53 -46 -89 -91 -89c-52 0 -90 38 -90 86c0 52 40 92 92 92zM330 680h-1c-30 0 -52 -26 -52 -61c0 -30 21 -57 51 -57c31 0 54 26 54 63c0 30 -21 55 -52 55z" />
    <glyph glyph-name="utilde" unicode="&#x169;" horiz-adv-x="506" 
d="M428 480h45l-67 -351c-9 -48 -15 -91 -19 -129h-42l15 99h-2c-39 -63 -105 -110 -172 -110c-53 0 -129 21 -129 142c0 21 3 45 9 76l52 273h45l-52 -274c-6 -30 -9 -52 -9 -75c0 -61 25 -101 94 -101c68 0 161 78 182 189zM247 574h-34c4 44 26 84 65 84
c25 0 37 -10 61 -23c14 -9 27 -16 41 -16c16 0 24 9 28 41h33c-5 -46 -21 -80 -63 -80c-22 0 -41 10 -57 21c-13 8 -27 18 -44 18c-20 0 -26 -18 -30 -45z" />
    <glyph glyph-name="wacute" unicode="&#x1e83;" horiz-adv-x="691" 
d="M67 480h43l27 -312c6 -62 6 -84 6 -114h3c8 19 23 56 49 103l173 323h45l42 -319c6 -50 10 -88 11 -107h2c11 29 22 60 41 100l160 326h47l-240 -480h-41l-43 319c-6 41 -10 79 -9 112h-2c-17 -33 -32 -70 -55 -112l-173 -319h-42zM467 678h74l-135 -138h-40z" />
    <glyph glyph-name="wcircumflex" unicode="&#x175;" horiz-adv-x="691" 
d="M67 480h43l27 -312c6 -62 6 -84 6 -114h3c8 19 23 56 49 103l173 323h45l42 -319c6 -50 10 -88 11 -107h2c11 29 22 60 41 100l160 326h47l-240 -480h-41l-43 319c-6 41 -10 79 -9 112h-2c-17 -33 -32 -70 -55 -112l-173 -319h-42zM408 678h35l65 -138h-43l-44 99h-2
l-78 -99h-46z" />
    <glyph glyph-name="wdieresis" unicode="&#x1e85;" horiz-adv-x="691" 
d="M67 480h43l27 -312c6 -62 6 -84 6 -114h3c8 19 23 56 49 103l173 323h45l42 -319c6 -50 10 -88 11 -107h2c11 29 22 60 41 100l160 326h47l-240 -480h-41l-43 319c-6 41 -10 79 -9 112h-2c-17 -33 -32 -70 -55 -112l-173 -319h-42zM331 580h-1c-22 0 -35 18 -35 38
c0 21 17 40 38 40c22 0 36 -18 36 -38s-14 -40 -38 -40zM500 580h-1c-21 0 -34 18 -34 38c0 21 16 40 38 40s35 -18 35 -38s-13 -40 -38 -40z" />
    <glyph glyph-name="wgrave" unicode="&#x1e81;" horiz-adv-x="691" 
d="M67 480h43l27 -312c6 -62 6 -84 6 -114h3c8 19 23 56 49 103l173 323h45l42 -319c6 -50 10 -88 11 -107h2c11 29 22 60 41 100l160 326h47l-240 -480h-41l-43 319c-6 41 -10 79 -9 112h-2c-17 -33 -32 -70 -55 -112l-173 -319h-42zM303 678h66l61 -138h-33z" />
    <glyph glyph-name="ycircumflex" unicode="&#x177;" horiz-adv-x="406" 
d="M50 480h47l59 -289c12 -59 19 -95 25 -134h3c14 31 30 67 56 121l146 302h48l-186 -378c-44 -89 -87 -172 -153 -239c-52 -54 -106 -77 -131 -83l-13 39c20 7 57 22 92 51c33 27 72 72 103 128c4 9 3 14 2 21zM260 678h35l65 -138h-43l-44 99h-2l-78 -99h-46z" />
    <glyph glyph-name="ygrave" unicode="&#x1ef3;" horiz-adv-x="406" 
d="M50 480h47l59 -289c12 -59 19 -95 25 -134h3c14 31 30 67 56 121l146 302h48l-186 -378c-44 -89 -87 -172 -153 -239c-52 -54 -106 -77 -131 -83l-13 39c20 7 57 22 92 51c33 27 72 72 103 128c4 9 3 14 2 21zM141 678h66l61 -138h-33z" />
    <glyph glyph-name="zacute" unicode="&#x17a;" horiz-adv-x="393" 
d="M-19 0l5 29l282 318c41 46 65 68 89 92v4h-272l8 37h326l-7 -32l-279 -315c-43 -48 -65 -70 -88 -93v-3h292l-8 -37h-348zM326 678h74l-135 -138h-40z" />
    <glyph glyph-name="zdotaccent" unicode="&#x17c;" horiz-adv-x="393" 
d="M-19 0l5 29l282 318c41 46 65 68 89 92v4h-272l8 37h326l-7 -32l-279 -315c-43 -48 -65 -70 -88 -93v-3h292l-8 -37h-348zM270 580h-1c-21 0 -34 18 -34 38c0 21 17 40 38 40c22 0 35 -18 35 -38c0 -21 -13 -40 -38 -40z" />
    <glyph glyph-name="kgreenlandic" unicode="&#x138;" horiz-adv-x="411" 
d="M83 0h-45l91 480h45l-43 -228h2c14 16 34 34 46 45l198 183h56l-213 -197l150 -283h-49l-135 256l-66 -56z" />
    <glyph glyph-name="napostrophe" unicode="&#x149;" horiz-adv-x="516" 
d="M84 0h-45l66 351c10 48 16 91 20 129h42l-14 -103h2c42 70 110 114 184 114c43 0 120 -23 120 -134c0 -22 -4 -49 -9 -76l-53 -281h-45l54 285c3 20 7 44 7 66c0 57 -23 100 -92 100c-67 0 -169 -78 -192 -205zM79 546l-8 26c28 10 59 32 59 76c0 22 -12 43 -26 54l41 11
c14 -9 29 -34 29 -60c0 -66 -52 -100 -95 -107z" />
    <glyph glyph-name="tonos" unicode="&#x384;" 
d="M317 678h74l-135 -138h-40z" />
    <glyph glyph-name="dieresistonos" unicode="&#x385;" horiz-adv-x="290" 
d="M221 694h59l-95 -147h-30zM107 575h-1c-20 0 -33 17 -33 37c0 19 16 38 37 38s34 -18 34 -37s-13 -38 -37 -38zM313 575h-1c-20 0 -33 17 -33 37c0 19 16 38 37 38s34 -18 34 -37s-13 -38 -37 -38z" />
    <glyph glyph-name="Alpha" unicode="&#x391;" horiz-adv-x="537" 
d="M401 237h-256l-125 -237h-46l360 674h45l102 -674h-44zM167 276h228l-34 225c-5 34 -11 81 -14 119h-2c-19 -39 -34 -75 -56 -117z" />
    <glyph glyph-name="Beta" unicode="&#x392;" horiz-adv-x="479" 
d="M39 3l126 663c37 8 77 13 124 13c69 0 119 -17 149 -52c23 -27 30 -59 30 -94c0 -86 -73 -155 -151 -174v-3c58 -16 114 -65 113 -151c0 -67 -35 -123 -74 -154c-51 -41 -118 -56 -196 -56c-46 0 -90 3 -121 8zM204 635l-49 -258h70c108 0 195 60 195 158
c0 75 -55 107 -139 107c-34 0 -63 -2 -77 -7zM148 340l-57 -301c24 -4 52 -5 76 -5c111 -1 216 47 216 175c0 87 -73 131 -154 131h-81z" />
    <glyph glyph-name="Gamma" unicode="&#x393;" horiz-adv-x="411" 
d="M168 674h314l-8 -39h-269l-121 -635h-45z" />
    <glyph glyph-name="Delta" unicode="&#x394;" horiz-adv-x="571" 
d="M-20 0l6 32l358 642h47l124 -642l-6 -32h-529zM39 39h432l-83 418c-9 50 -21 119 -28 164h-3c-17 -36 -47 -89 -76 -141z" />
    <glyph glyph-name="Delta" unicode="&#xe000;" horiz-adv-x="571" 
d="M-20 0l6 32l358 642h47l124 -642l-6 -32h-529zM39 39h432l-83 418c-9 50 -21 119 -28 164h-3c-17 -36 -47 -89 -76 -141z" />
    <glyph glyph-name="Epsilon" unicode="&#x395;" horiz-adv-x="441" 
d="M404 375l-8 -39h-248l-56 -297h280l-8 -39h-325l129 674h309l-8 -39h-264l-49 -260h248z" />
    <glyph glyph-name="Zeta" unicode="&#x396;" horiz-adv-x="504" 
d="M-16 0l6 31l498 601l-1 3h-349l8 39h410l-7 -32l-497 -600l2 -3h386l-8 -39h-448z" />
    <glyph glyph-name="Eta" unicode="&#x397;" horiz-adv-x="603" 
d="M167 674h46l-58 -297h351l57 297h45l-129 -674h-45l64 338h-350l-64 -338h-45z" />
    <glyph glyph-name="Theta" unicode="&#x398;" horiz-adv-x="645" 
d="M294 -11h-1c-174 0 -245 135 -245 270c0 114 45 243 122 328c56 60 141 98 223 98c184 0 245 -139 245 -273c0 -109 -41 -238 -115 -320c-59 -65 -138 -103 -229 -103zM299 28h1c161 0 291 196 291 381c0 102 -32 237 -205 237c-171 0 -291 -208 -291 -379
c0 -119 52 -239 204 -239zM192 370h309l-6 -39h-309z" />
    <glyph glyph-name="Iota" unicode="&#x399;" horiz-adv-x="208" 
d="M168 674h45l-129 -674h-45z" />
    <glyph glyph-name="Kappa" unicode="&#x39a;" horiz-adv-x="469" 
d="M39 0l129 674h45l-66 -344l5 1c25 28 49 52 71 74l268 269h57l-290 -289l183 -385h-49l-169 354l-86 -79l-53 -275h-45z" />
    <glyph glyph-name="Lambda" unicode="&#x39b;" horiz-adv-x="538" 
d="M483 0h-44l-77 501c-7 46 -11 80 -14 119h-2c-17 -40 -34 -75 -57 -117l-267 -503h-47l360 674h45z" />
    <glyph glyph-name="Mu" unicode="&#x39c;" horiz-adv-x="754" 
d="M649 0h-44l52 417c8 59 23 161 32 206h-4c-27 -56 -62 -128 -99 -194l-239 -429h-33l-66 418c-13 80 -20 149 -26 205h-2c-11 -45 -33 -147 -48 -207l-107 -416h-45l178 674h52l73 -467c9 -54 17 -106 19 -141h3c16 35 41 84 71 137l260 471h55z" />
    <glyph glyph-name="Nu" unicode="&#x39d;" horiz-adv-x="611" 
d="M83 0h-44l128 674h43l195 -458c31 -71 44 -114 57 -162l2 1c4 56 10 101 27 192l81 427h44l-128 -674h-41l-190 450c-35 79 -48 118 -61 170l-3 -1c-7 -62 -15 -112 -30 -195z" />
    <glyph glyph-name="Xi" unicode="&#x39e;" horiz-adv-x="518" 
d="M134 674h419l-7 -39h-418zM114 371h348l-7 -39h-348zM10 39h435l-7 -39h-435z" />
    <glyph glyph-name="Omicron" unicode="&#x39f;" horiz-adv-x="645" 
d="M294 -11h-1c-174 0 -245 135 -245 270c0 114 45 243 122 327c56 61 141 99 223 99c184 0 245 -139 245 -273c0 -110 -41 -238 -115 -320c-59 -65 -138 -103 -229 -103zM299 28h1c161 0 291 195 291 381c0 102 -32 237 -205 237c-171 0 -291 -208 -291 -379
c0 -119 52 -239 204 -239z" />
    <glyph glyph-name="Pi" unicode="&#x3a0;" horiz-adv-x="601" 
d="M605 674l-127 -674h-46l120 635h-348l-120 -635h-45l128 674h438z" />
    <glyph glyph-name="Rho" unicode="&#x3a1;" horiz-adv-x="476" 
d="M39 0l127 666c35 8 80 13 128 13c68 0 126 -19 157 -56c23 -29 34 -63 34 -109c0 -70 -36 -133 -74 -167c-51 -45 -126 -66 -198 -66c-26 0 -49 1 -74 6l-55 -287h-45zM204 632l-58 -305c29 -6 50 -7 74 -7c131 0 219 80 219 192c0 91 -64 129 -154 129
c-36 0 -64 -3 -81 -9z" />
    <glyph glyph-name="Sigma" unicode="&#x3a3;" horiz-adv-x="519" 
d="M57 42v-3h412l-7 -39h-476l5 32l311 308l-183 300l5 34h426l-7 -39h-368v-3l179 -296z" />
    <glyph glyph-name="Tau" unicode="&#x3a4;" horiz-adv-x="441" 
d="M152 0l121 635h-209l8 39h462l-8 -39h-208l-121 -635h-45z" />
    <glyph glyph-name="Upsilon" unicode="&#x3a5;" horiz-adv-x="537" 
d="M81 643l9 37c36 -5 91 -44 122 -92c41 -59 73 -150 67 -266h2c43 121 118 216 179 269c51 46 110 79 146 89l6 -37c-59 -28 -198 -114 -291 -316c-16 -35 -33 -74 -44 -138l-35 -189h-45l36 191c8 49 12 101 9 138c-11 209 -105 293 -161 314z" />
    <glyph glyph-name="Phi" unicode="&#x3a6;" horiz-adv-x="645" 
d="M251 -24l11 51c-116 9 -214 98 -214 249c0 237 183 376 331 374l11 48h44l-10 -48c119 -8 213 -99 213 -253c0 -224 -168 -369 -331 -370l-10 -51h-45zM270 65l102 547c-121 1 -277 -125 -277 -332c0 -123 73 -205 175 -215zM416 612l-102 -547c169 7 276 168 276 332
c0 129 -76 207 -174 215z" />
    <glyph glyph-name="Chi" unicode="&#x3a7;" horiz-adv-x="492" 
d="M434 0h-47l-76 187c-20 46 -37 88 -48 119h-2c-20 -28 -48 -66 -85 -114l-146 -192h-54l269 342l-131 332h48l78 -200c16 -40 28 -70 36 -97h2c19 26 46 63 72 96l160 201h54l-269 -330z" />
    <glyph glyph-name="Psi" unicode="&#x3a8;" horiz-adv-x="620" 
d="M654 674l-37 -204c-29 -155 -122 -246 -286 -250l-41 -220h-45l41 220c-85 4 -198 46 -198 193c0 32 4 55 10 88l32 173h45l-33 -182c-6 -32 -8 -60 -8 -75c0 -96 47 -150 159 -158l77 415h45l-77 -415c116 4 205 60 234 214l37 201h45z" />
    <glyph glyph-name="Omega" unicode="&#x3a9;" horiz-adv-x="655" 
d="M152 39v4c-51 50 -95 140 -95 240c0 223 143 402 338 402c152 0 248 -117 248 -267c0 -175 -102 -309 -199 -375v-4h145l-7 -39h-218l6 34c102 57 226 202 226 377c0 113 -64 235 -206 235c-187 0 -286 -202 -286 -349c0 -131 53 -219 111 -263l-7 -34h-217l7 39h154z
" />
    <glyph glyph-name="Omega" unicode="&#x2126;" horiz-adv-x="655" 
d="M152 39v4c-51 50 -95 140 -95 240c0 223 143 402 338 402c152 0 248 -117 248 -267c0 -175 -102 -309 -199 -375v-4h145l-7 -39h-218l6 34c102 57 226 202 226 377c0 113 -64 235 -206 235c-187 0 -286 -202 -286 -349c0 -131 53 -219 111 -263l-7 -34h-217l7 39h154z
" />
    <glyph glyph-name="Alphatonos" unicode="&#x386;" horiz-adv-x="537" 
d="M401 237h-256l-125 -237h-46l360 674h45l102 -674h-44zM167 276h228l-34 225c-5 34 -11 81 -14 119h-2c-19 -39 -34 -75 -56 -117zM117 674h54l-40 -143h-29z" />
    <glyph glyph-name="Epsilontonos" unicode="&#x388;" horiz-adv-x="441" 
d="M404 375l-8 -39h-248l-56 -297h280l-8 -39h-325l129 674h309l-8 -39h-264l-49 -260h248zM39 674h54l-40 -143h-30z" />
    <glyph glyph-name="Etatonos" unicode="&#x389;" horiz-adv-x="603" 
d="M167 674h45l-57 -297h351l57 297h45l-129 -674h-45l64 338h-351l-63 -338h-45zM37 674h54l-40 -143h-30z" />
    <glyph glyph-name="Iotatonos" unicode="&#x38a;" horiz-adv-x="208" 
d="M168 674h45l-129 -674h-45zM41 674h54l-40 -143h-30z" />
    <glyph glyph-name="Iotadieresis" unicode="&#x3aa;" horiz-adv-x="208" 
d="M110 710h-1c-22 0 -35 18 -35 39s17 40 39 40s36 -18 36 -39c0 -20 -14 -40 -39 -40zM279 710h-1c-22 0 -35 18 -35 39s17 40 39 40s36 -18 36 -39c0 -20 -14 -40 -39 -40zM167 674h45l-128 -674h-45z" />
    <glyph glyph-name="Omicrontonos" unicode="&#x38c;" horiz-adv-x="645" 
d="M294 -11h-1c-174 0 -245 135 -245 270c0 114 45 243 122 327c56 61 141 99 223 99c184 0 245 -139 245 -273c0 -110 -41 -238 -115 -320c-59 -65 -138 -103 -229 -103zM299 28h1c161 0 291 195 291 381c0 102 -32 237 -205 237c-171 0 -291 -208 -291 -379
c0 -119 52 -239 204 -239zM34 674h54l-41 -143h-29z" />
    <glyph glyph-name="Upsilontonos" unicode="&#x38e;" horiz-adv-x="557" 
d="M101 643l9 37c36 -5 91 -44 122 -92c41 -59 73 -150 67 -266h2c43 121 118 216 179 269c51 46 110 79 146 89l6 -37c-59 -28 -198 -114 -291 -316c-16 -35 -33 -74 -44 -138l-35 -189h-45l36 191c8 49 12 101 9 138c-11 210 -105 294 -161 314zM14 674h54l-40 -143h-30z
" />
    <glyph glyph-name="Upsilondieresis" unicode="&#x3ab;" horiz-adv-x="537" 
d="M265 706h-1c-22 0 -35 18 -35 39s17 40 39 40s36 -18 36 -39c0 -20 -14 -40 -39 -40zM434 706h-1c-22 0 -35 18 -35 39s17 40 39 40s36 -18 36 -39c0 -20 -14 -40 -39 -40zM81 643l9 37c36 -5 91 -44 122 -92c41 -59 73 -150 67 -266h2c43 121 118 216 179 269
c51 46 110 79 146 89l6 -37c-59 -28 -198 -114 -291 -316c-16 -35 -33 -74 -44 -138l-35 -189h-45l36 191c8 49 12 101 9 138c-11 209 -105 293 -161 314z" />
    <glyph glyph-name="Omegatonos" unicode="&#x38f;" horiz-adv-x="658" 
d="M154 39v4c-51 50 -95 140 -95 240c0 223 144 402 338 402c153 0 249 -117 249 -267c0 -175 -101 -310 -198 -375v-4h144l-7 -39h-218l5 34c103 57 227 202 227 377c0 113 -64 235 -207 235c-187 0 -286 -202 -286 -349c0 -131 53 -219 112 -263l-7 -34h-218l7 39h154z
M40 674h54l-40 -143h-30z" />
    <glyph glyph-name="alpha" unicode="&#x3b1;" horiz-adv-x="519" 
d="M373 98h-3c-34 -59 -96 -109 -179 -109c-96 0 -155 71 -155 172c0 179 117 330 254 330c85 0 125 -54 135 -109h4c11 46 18 72 27 98h37c-6 -18 -18 -68 -28 -117c-16 -73 -34 -159 -47 -225c-14 -74 -11 -110 29 -110l-12 -38c-5 -1 -10 -1 -14 -1c-33 0 -60 29 -48 109
zM83 171v-1c0 -81 40 -142 122 -142c74 0 142 76 172 151c10 24 15 44 21 77c3 21 6 41 6 63c0 65 -41 133 -120 133c-98 0 -201 -125 -201 -281z" />
    <glyph glyph-name="beta" unicode="&#x3b2;" horiz-adv-x="515" 
d="M59 -198h-44c-5 34 4 98 18 170l88 479c24 128 63 190 102 224c36 31 72 46 122 46c73 0 132 -54 132 -139c0 -92 -57 -166 -117 -192l-1 -4c64 -12 121 -75 121 -167c0 -163 -129 -230 -222 -230c-74 0 -125 28 -161 77l-2 -1l-14 -78c-10 -54 -26 -143 -22 -185z
M248 363l6 38c7 0 14 0 20 1c100 5 156 85 156 173c0 67 -36 108 -92 108c-91 0 -145 -87 -172 -234l-59 -324c16 -41 68 -98 153 -98c81 0 173 68 173 186c0 90 -64 149 -156 150h-29z" />
    <glyph glyph-name="gamma" unicode="&#x3b3;" horiz-adv-x="412" 
d="M141 -198h-46c16 77 40 183 35 269c-7 139 -64 331 -99 409h50c34 -72 87 -246 90 -404h3c73 94 168 243 192 375c2 8 4 20 4 29h45c1 -8 -1 -21 -3 -33c-22 -123 -106 -271 -224 -412c-8 -11 -9 -15 -11 -26c-11 -69 -23 -138 -36 -207z" />
    <glyph glyph-name="delta" unicode="&#x3b4;" horiz-adv-x="504" 
d="M472 645l-24 -29c-28 35 -78 66 -133 66c-49 0 -74 -27 -74 -55c0 -32 26 -54 63 -88l73 -71c62 -59 94 -120 94 -204c0 -131 -95 -275 -243 -275c-105 0 -191 76 -191 204c0 156 115 264 236 311v4l-20 21c-25 25 -56 54 -56 97c0 45 43 95 118 95c82 0 133 -44 157 -76
zM348 436l-47 44c-99 -41 -217 -135 -217 -282c0 -111 72 -170 150 -170c104 0 191 113 191 235c0 63 -16 116 -77 173z" />
    <glyph glyph-name="epsilon" unicode="&#x3b5;" horiz-adv-x="388" 
d="M305 240h-73c-86 0 -164 -40 -164 -120c0 -58 52 -92 128 -92c59 0 122 22 145 37l9 -37c-23 -18 -93 -39 -159 -39c-91 0 -169 37 -169 127c0 76 65 136 142 146v4c-56 12 -85 48 -85 92c0 65 69 133 188 133c49 0 100 -14 118 -32l-14 -32c-13 8 -51 27 -112 27
c-82 0 -134 -42 -134 -96c0 -55 57 -81 129 -81h58z" />
    <glyph glyph-name="zeta" unicode="&#x3b6;" horiz-adv-x="371" 
d="M436 710l2 -38c-165 -95 -347 -293 -347 -468c0 -87 39 -131 126 -160c29 -9 67 -16 112 -21c5 0 7 -3 7 -7c0 -31 -45 -119 -77 -153l-35 10c19 22 52 86 59 117c-28 4 -63 9 -101 23c-82 31 -138 85 -138 188c0 170 165 369 327 469v2h-85c-44 0 -83 0 -115 8l10 34
c30 -6 70 -5 108 -4h147z" />
    <glyph glyph-name="eta" unicode="&#x3b7;" horiz-adv-x="516" 
d="M152 377h2c42 70 110 114 185 114c43 0 120 -23 120 -134c0 -22 -4 -49 -9 -76l-55 -294c-10 -54 -26 -143 -23 -185h-42c-7 22 7 117 18 179l58 304c3 20 7 44 7 66c0 57 -23 100 -93 100c-67 0 -168 -78 -191 -205l-45 -246h-46l66 351c9 48 17 96 12 129h41
c5 -23 4 -46 -5 -103z" />
    <glyph glyph-name="theta" unicode="&#x3b8;" horiz-adv-x="492" 
d="M212 -11h-1c-94 0 -162 80 -162 235c0 40 5 102 20 175c35 172 120 322 258 322c99 0 159 -90 158 -223c0 -47 -5 -100 -14 -147c-41 -212 -118 -362 -259 -362zM114 388h317c7 43 8 76 8 112c0 102 -38 182 -119 182c-108 0 -177 -141 -206 -294zM424 350h-317
c-8 -50 -12 -90 -12 -128c0 -124 50 -194 121 -194c106 0 172 133 208 322z" />
    <glyph glyph-name="iota" unicode="&#x3b9;" horiz-adv-x="206" 
d="M174 480l-73 -384c-10 -50 -5 -69 33 -67l-11 -37c-4 -2 -12 -3 -21 -3c-27 0 -50 14 -51 65c1 27 10 67 22 129l56 297h45z" />
    <glyph glyph-name="kappa" unicode="&#x3ba;" horiz-adv-x="424" 
d="M188 257l-1 -2c63 -16 97 -75 137 -141l66 -114h-51l-61 106c-42 71 -78 119 -139 119h-15l-41 -225h-44l72 388c6 33 10 74 7 92h41c4 -11 5 -42 -2 -81l-26 -140h5c113 96 197 167 265 221h55v-3c-75 -62 -154 -126 -268 -220z" />
    <glyph glyph-name="lambda" unicode="&#x3bb;" horiz-adv-x="414" 
d="M324 0l-59 311c-6 30 -13 69 -16 99l-5 1c-12 -24 -31 -65 -48 -96l-170 -315h-49l245 448c7 13 10 23 10 28s0 12 -2 22c-19 104 -41 184 -108 184c-5 0 -8 -1 -12 -1l8 38c8 1 13 2 22 2c78 -2 103 -76 133 -220l98 -501h-47z" />
    <glyph glyph-name="uni03BC" unicode="&#x3bc;" horiz-adv-x="505" 
d="M165 480l-55 -293c-16 -87 8 -157 98 -157c60 0 117 61 148 118c12 23 22 48 26 73l49 259h45l-67 -353c-13 -73 -6 -96 27 -98l-12 -39c-9 -1 -6 -1 -14 -1c-32 0 -58 22 -48 106h-3c-30 -54 -90 -105 -160 -105c-50 0 -96 25 -114 75l-14 -77
c-10 -54 -24 -144 -20 -186h-41c-5 31 1 99 16 180l95 498h44z" />
    <glyph glyph-name="nu" unicode="&#x3bd;" horiz-adv-x="414" 
d="M41 480h46c17 -97 35 -194 52 -291c9 -54 15 -91 22 -139h4c64 89 176 254 204 375c5 22 8 41 8 55h44c0 -9 0 -26 -3 -41c-23 -129 -130 -292 -247 -439h-43c-28 160 -58 320 -87 480z" />
    <glyph glyph-name="xi" unicode="&#x3be;" horiz-adv-x="397" 
d="M361 396h-25c-156 -1 -251 -88 -251 -198c0 -80 50 -125 145 -152c46 -12 93 -21 128 -23c5 0 7 -4 7 -8c0 -33 -50 -123 -77 -152l-35 11c18 22 54 88 61 117c-34 4 -87 13 -128 27c-80 28 -148 79 -148 175c0 122 101 202 191 224v4c-54 17 -97 65 -97 127
c0 86 79 173 206 173c52 0 95 -13 114 -29l-16 -33c-15 11 -53 25 -102 25c-98 0 -156 -61 -156 -136s65 -114 146 -115h42z" />
    <glyph glyph-name="omicron" unicode="&#x3bf;" horiz-adv-x="500" 
d="M217 -11h-1c-119 0 -178 96 -178 196c0 154 107 306 254 306c129 0 178 -104 178 -201c0 -131 -96 -301 -253 -301zM221 28h1c109 0 201 133 201 263c0 63 -30 161 -135 161c-117 0 -203 -131 -203 -263c0 -92 53 -161 136 -161z" />
    <glyph glyph-name="pi" unicode="&#x3c0;" horiz-adv-x="500" 
d="M509 442h-72l-55 -301c-16 -90 -15 -119 -11 -141h-42c-5 14 -9 44 7 135l57 307h-182c-8 -33 -16 -70 -27 -108c-34 -127 -84 -272 -128 -334h-45c45 69 94 201 128 331c11 38 20 76 28 111c-51 0 -83 -4 -107 -11l-2 29c18 13 50 20 112 20h349z" />
    <glyph glyph-name="rho" unicode="&#x3c1;" horiz-adv-x="520" 
d="M52 -198h-41c-3 30 6 99 20 179l41 221c21 115 51 173 88 215c40 46 92 74 164 74c105 0 166 -85 166 -188c0 -171 -111 -314 -249 -314c-60 0 -121 31 -145 89h-3l-16 -91c-10 -54 -26 -144 -25 -185zM121 220l-5 -27c-3 -10 -4 -24 -4 -37c0 -56 46 -128 132 -128
c105 0 199 116 199 272c0 79 -42 152 -129 152c-81 0 -163 -63 -193 -232z" />
    <glyph glyph-name="sigma" unicode="&#x3c3;" horiz-adv-x="509" 
d="M389 458v-4c64 -36 81 -118 81 -163c0 -132 -96 -302 -253 -302c-120 0 -179 96 -179 196c0 154 107 306 254 306h103h40h91l-6 -39c-20 0 -74 1 -131 6zM220 28h1c110 0 202 134 202 263c0 63 -30 161 -135 161c-117 0 -203 -131 -203 -263c0 -91 54 -161 135 -161z" />
    <glyph glyph-name="tau" unicode="&#x3c4;" horiz-adv-x="363" 
d="M234 30l-6 -36c-8 -3 -20 -5 -30 -5c-39 0 -75 23 -75 87c0 15 3 33 7 55l58 311h-53c-55 0 -83 -5 -105 -9v27c15 9 49 20 108 20h260l-10 -38h-155l-58 -316c-4 -20 -5 -34 -5 -45c0 -42 20 -52 44 -52c8 0 13 1 20 1z" />
    <glyph glyph-name="upsilon" unicode="&#x3c5;" horiz-adv-x="479" 
d="M389 480h45c6 -15 11 -47 11 -85c0 -177 -69 -406 -250 -406c-73 0 -139 51 -139 147c0 13 2 28 5 45l25 136c18 92 24 139 21 163h40c6 -9 7 -42 -2 -87l-38 -212c-3 -15 -4 -29 -4 -41c0 -80 56 -112 101 -112c117 0 195 163 195 368c0 41 -5 71 -10 84z" />
    <glyph glyph-name="phi" unicode="&#x3c6;" horiz-adv-x="569" 
d="M225 26l62 338c15 85 50 127 112 127c69 0 140 -70 140 -186c0 -190 -129 -312 -276 -316l-35 -187h-45l35 187c-95 13 -179 79 -179 205c0 180 134 276 193 297l17 -28c-55 -25 -163 -110 -163 -260c0 -84 40 -159 139 -177zM332 369l-62 -342c120 6 222 117 222 272
c0 79 -39 153 -98 153c-32 0 -52 -27 -62 -83z" />
    <glyph glyph-name="chi" unicode="&#x3c7;" horiz-adv-x="393" 
d="M53 480h49l55 -169c12 -38 24 -78 35 -117h4c24 38 46 72 77 120c36 55 72 110 109 166h51c-75 -110 -149 -220 -224 -330l119 -341l-44 -15l-57 171c-17 50 -33 98 -48 149h-4c-19 -28 -41 -64 -65 -102c-46 -72 -93 -145 -139 -218l-40 18c77 117 153 232 230 348z" />
    <glyph glyph-name="psi" unicode="&#x3c8;" horiz-adv-x="583" 
d="M492 480h45c7 -16 13 -46 13 -86c0 -232 -110 -400 -278 -405l-34 -187h-45l34 187c-94 6 -163 59 -164 174c0 22 2 46 7 73l28 144c6 37 12 80 9 100h42c4 -10 4 -40 -4 -83l-29 -161c-5 -27 -7 -50 -7 -71c2 -95 59 -134 126 -138l107 580h45l-108 -580
c99 0 225 118 225 363c0 47 -7 79 -12 90z" />
    <glyph glyph-name="omega" unicode="&#x3c9;" horiz-adv-x="651" 
d="M518 489h44c28 -29 54 -97 54 -168c0 -191 -99 -332 -205 -332c-65 0 -100 35 -111 93h-3c-26 -56 -64 -93 -130 -93s-131 57 -131 176c0 155 85 283 138 324h48v-2c-56 -45 -139 -167 -139 -319c0 -99 49 -140 93 -140c55 0 101 60 115 140l33 188h45l-32 -174
c-5 -23 -6 -38 -6 -53c0 -43 21 -101 84 -101c69 0 155 122 155 283c0 78 -22 145 -52 176v2z" />
    <glyph glyph-name="alphatonos" unicode="&#x3ac;" horiz-adv-x="519" 
d="M355 678h74l-135 -138h-41zM373 98h-3c-34 -59 -96 -109 -179 -109c-96 0 -155 71 -155 172c0 179 117 330 254 330c85 0 125 -54 135 -109h4c11 46 18 72 27 98h37c-6 -18 -18 -68 -28 -117c-16 -73 -34 -159 -47 -225c-14 -74 -11 -110 29 -110l-12 -38
c-5 -1 -10 -1 -14 -1c-33 0 -60 29 -48 109zM83 171v-1c0 -81 40 -142 122 -142c74 0 142 76 172 151c10 24 15 44 21 77c3 21 6 41 6 63c0 65 -41 133 -120 133c-98 0 -201 -125 -201 -281z" />
    <glyph glyph-name="epsilontonos" unicode="&#x3ad;" horiz-adv-x="388" 
d="M300 678h74l-134 -138h-41zM306 240h-74c-86 0 -164 -40 -164 -120c0 -58 52 -92 128 -92c59 0 122 22 145 37l9 -35c-23 -18 -96 -41 -159 -41c-91 0 -169 37 -169 127c0 76 65 136 142 146v4c-56 12 -85 48 -85 92c0 65 69 133 188 133c49 0 101 -14 119 -31l-15 -33
c-13 8 -51 27 -112 27c-82 0 -134 -42 -134 -96c0 -55 57 -81 130 -81h57z" />
    <glyph glyph-name="etatonos" unicode="&#x3ae;" horiz-adv-x="516" 
d="M377 678h73l-135 -138h-40zM152 377h2c42 70 110 114 185 114c43 0 120 -23 120 -134c0 -22 -4 -49 -9 -76l-55 -294c-10 -54 -26 -143 -23 -185h-42c-7 22 7 117 18 179l58 304c3 20 7 44 7 66c0 57 -23 100 -93 100c-67 0 -168 -78 -191 -205l-45 -246h-46l66 351
c9 48 17 96 12 129h41c5 -23 4 -46 -5 -103z" />
    <glyph glyph-name="iotatonos" unicode="&#x3af;" horiz-adv-x="206" 
d="M234 678h73l-134 -138h-41zM174 480l-73 -384c-10 -50 -5 -69 33 -67l-11 -37c-4 -2 -12 -3 -21 -3c-27 0 -51 16 -51 65c0 24 10 68 20 121l58 305h45z" />
    <glyph glyph-name="iotadieresis" unicode="&#x3ca;" horiz-adv-x="206" 
d="M79 564h-1c-22 0 -35 18 -35 39s17 40 39 40s36 -18 36 -39c0 -20 -14 -40 -39 -40zM248 564h-1c-22 0 -35 18 -35 39s17 40 39 40s36 -18 36 -39c0 -20 -14 -40 -39 -40zM174 480l-73 -384c-10 -50 -5 -69 33 -67l-11 -37c-4 -2 -12 -3 -21 -3c-27 0 -51 16 -51 65
c0 23 10 68 20 121l58 305h45z" />
    <glyph glyph-name="omicrontonos" unicode="&#x3cc;" horiz-adv-x="500" 
d="M355 678h73l-135 -138h-40zM217 -11h-1c-119 0 -178 96 -178 196c0 154 107 306 254 306c129 0 178 -104 178 -201c0 -131 -96 -301 -253 -301zM221 28h1c109 0 201 133 201 263c0 63 -30 161 -135 161c-117 0 -203 -131 -203 -263c0 -92 53 -161 136 -161z" />
    <glyph glyph-name="upsilontonos" unicode="&#x3cd;" horiz-adv-x="479" 
d="M331 678h74l-135 -138h-40zM389 480h45c6 -15 11 -47 11 -85c0 -177 -71 -406 -253 -406c-72 0 -136 51 -136 147c0 13 2 28 5 45l25 136c18 92 24 139 21 163h40c6 -9 7 -42 -2 -87l-38 -212c-3 -15 -4 -29 -4 -41c0 -80 55 -112 100 -112c117 0 196 163 196 368
c0 41 -5 71 -10 84z" />
    <glyph glyph-name="upsilondieresis" unicode="&#x3cb;" horiz-adv-x="479" 
d="M200 564h-1c-22 0 -35 18 -35 39s17 40 39 40s36 -18 36 -39c0 -20 -14 -40 -39 -40zM369 564h-1c-22 0 -35 18 -35 39s17 40 39 40s36 -18 36 -39c0 -20 -14 -40 -39 -40zM389 480h45c6 -15 11 -47 11 -85c0 -177 -71 -406 -252 -406c-73 0 -137 51 -137 147
c0 13 2 28 5 45l25 136c18 92 24 139 21 163h40c7 -9 7 -42 -2 -87l-38 -212c-3 -15 -4 -29 -4 -41c0 -80 55 -112 100 -112c117 0 196 163 196 368c0 41 -5 71 -10 84z" />
    <glyph glyph-name="omegatonos" unicode="&#x3ce;" horiz-adv-x="651" 
d="M441 678h74l-135 -138h-40zM518 489h44c28 -29 54 -97 54 -168c0 -191 -99 -332 -205 -332c-65 0 -100 35 -111 93h-3c-26 -56 -64 -93 -130 -93s-131 57 -131 176c0 155 85 283 138 324h48v-2c-56 -45 -139 -167 -139 -319c0 -99 49 -140 93 -140c55 0 101 60 115 140
l33 188h45l-32 -174c-5 -23 -6 -38 -6 -53c0 -43 20 -101 83 -101c69 0 156 122 156 283c0 78 -22 145 -52 176v2z" />
    <glyph glyph-name="iotadieresistonos" unicode="&#x390;" horiz-adv-x="206" 
d="M174 480l-73 -384c-10 -50 -5 -69 33 -67l-11 -37c-4 -2 -12 -3 -21 -3c-27 0 -51 16 -51 66c0 24 10 68 20 121l58 304h45zM189 682h60l-96 -146h-30zM76 564h-1c-20 0 -33 17 -33 37c0 19 16 38 37 38s34 -18 34 -37s-13 -38 -37 -38zM282 564h-1c-20 0 -33 17 -33 37
c0 19 16 38 37 38s34 -18 34 -37s-13 -38 -37 -38z" />
    <glyph glyph-name="upsilondieresistonos" unicode="&#x3b0;" horiz-adv-x="479" 
d="M389 480h45c6 -15 11 -47 11 -85c0 -177 -71 -406 -253 -406c-72 0 -136 51 -136 147c0 13 2 28 5 45l25 136c18 92 24 139 21 163h40c6 -9 7 -42 -2 -87l-38 -212c-3 -15 -4 -29 -4 -41c0 -80 55 -112 100 -112c117 0 196 163 196 368c0 41 -5 71 -10 84zM298 682h59
l-95 -146h-30zM184 564h-1c-20 0 -33 17 -33 37c0 19 16 38 37 38s34 -18 34 -37s-13 -38 -37 -38zM390 564h-1c-20 0 -33 17 -33 37c0 19 16 38 37 38s34 -18 34 -37s-13 -38 -37 -38z" />
    <glyph glyph-name="uni03C2" unicode="&#x3c2;" horiz-adv-x="390" 
d="M266 -137l-34 11c18 24 50 87 57 116c-25 3 -71 12 -103 24c-72 26 -146 83 -146 191c0 148 115 286 268 286c42 0 77 -9 97 -24l-15 -34c-24 12 -47 19 -85 19c-118 0 -218 -101 -218 -245c0 -88 52 -136 133 -161c41 -13 71 -18 113 -24c5 -1 7 -4 7 -10
c0 -38 -52 -124 -74 -149z" />
    <glyph glyph-name="uni037E" unicode="&#x37e;" horiz-adv-x="181" 
d="M13 -121l-39 -5c21 42 64 150 81 212l63 2c-28 -67 -87 -181 -105 -209zM132 346h-1c-23 0 -40 21 -40 46c0 28 19 49 44 49c26 0 41 -21 41 -47c0 -25 -17 -48 -44 -48z" />
    <glyph glyph-name="anoteleia" unicode="&#x387;" horiz-adv-x="181" 
d="M109 277h-1c-23 0 -39 21 -39 44c0 27 18 47 42 47c26 0 40 -20 40 -45c0 -23 -17 -46 -42 -46z" />
    <glyph glyph-name="afii10017" unicode="&#x410;" horiz-adv-x="537" 
d="M401 237h-256l-125 -237h-46l360 674h45l102 -674h-44zM167 276h228l-34 225c-5 34 -11 81 -14 119h-2c-19 -39 -34 -75 -56 -117z" />
    <glyph glyph-name="afii10018" unicode="&#x411;" horiz-adv-x="486" 
d="M167 674h296l-6 -39h-251l-43 -225c19 4 58 6 78 6c118 0 204 -59 204 -184c0 -74 -28 -130 -73 -168c-56 -48 -139 -69 -222 -69c-49 0 -87 4 -111 5zM155 371l-63 -332c18 -3 43 -5 77 -5c113 0 230 66 230 190c0 106 -66 153 -167 153c-21 0 -55 -3 -77 -6z" />
    <glyph glyph-name="afii10019" unicode="&#x412;" horiz-adv-x="479" 
d="M39 3l126 663c37 8 77 13 124 13c69 0 119 -17 149 -52c23 -27 30 -59 30 -94c0 -86 -73 -155 -151 -174v-3c58 -16 114 -65 113 -151c0 -67 -35 -123 -74 -154c-51 -41 -118 -56 -196 -56c-46 0 -90 3 -121 8zM204 635l-49 -258h70c108 0 195 60 195 158
c0 75 -55 107 -139 107c-34 0 -63 -2 -77 -7zM148 340l-57 -301c24 -4 52 -5 76 -5c111 -1 216 47 216 175c0 87 -73 131 -154 131h-81z" />
    <glyph glyph-name="afii10020" unicode="&#x413;" horiz-adv-x="354" 
d="M168 674h280l-8 -40h-235l-121 -634h-45z" />
    <glyph glyph-name="afii10050" unicode="&#x490;" horiz-adv-x="371" 
d="M165 674h256l37 123h40l-41 -163h-253l-118 -634h-47z" />
    <glyph glyph-name="afii10021" unicode="&#x414;" horiz-adv-x="565" 
d="M226 674h320l-120 -635h52l-45 -196h-39l28 157h-424l-36 -157h-38l32 196h43c50 66 87 130 117 197c34 81 57 166 76 263zM262 635l-30 -159c-16 -80 -39 -167 -72 -248c-30 -69 -67 -135 -111 -189h331l112 596h-230z" />
    <glyph glyph-name="afii10022" unicode="&#x415;" horiz-adv-x="441" 
d="M404 375l-8 -39h-248l-56 -297h280l-8 -39h-325l129 674h309l-8 -39h-264l-49 -260h248z" />
    <glyph glyph-name="afii10024" unicode="&#x416;" horiz-adv-x="726" 
d="M119 674h48l175 -316h22l59 316h44l-60 -316h26l287 316h55l-301 -321c98 -8 137 -76 157 -172c12 -60 15 -122 32 -181h-45c-13 52 -18 112 -30 172c-20 103 -56 150 -161 150h-27l-60 -322h-44l60 322h-23c-107 0 -163 -48 -222 -169c-24 -50 -49 -100 -78 -153h-50
c32 50 63 117 95 178c60 112 111 167 224 176z" />
    <glyph glyph-name="afii10025" unicode="&#x417;" horiz-adv-x="414" 
d="M120 338l7 40h22c90 0 201 51 201 160c0 67 -45 110 -109 110c-48 0 -91 -17 -127 -40l-13 32c40 28 90 45 147 45c81 0 149 -50 149 -144c0 -96 -74 -159 -156 -180v-2c74 -16 127 -73 127 -160c0 -127 -96 -210 -230 -210c-62 0 -116 20 -152 44l18 36
c25 -16 82 -41 137 -41c100 0 180 63 180 173c0 94 -89 140 -174 138z" />
    <glyph glyph-name="afii10026" unicode="&#x418;" horiz-adv-x="611" 
d="M167 674h44l-68 -362c-18 -93 -32 -168 -53 -247l1 -1c43 65 90 128 157 211l324 399h44l-128 -674h-43l70 376c18 92 32 160 50 233l-2 2c-46 -70 -106 -147 -168 -224l-311 -387h-45z" />
    <glyph glyph-name="afii10027" unicode="&#x419;" horiz-adv-x="611" 
d="M167 674h44l-68 -362c-18 -93 -32 -168 -53 -247l1 -1c43 65 90 128 157 211l324 399h44l-128 -674h-43l70 376c18 92 32 160 50 233l-2 2c-46 -70 -106 -147 -168 -224l-311 -387h-45zM303 824h41c0 -30 18 -60 65 -60c48 0 72 24 81 60h43c-9 -49 -53 -95 -125 -95
c-77 0 -106 46 -105 95z" />
    <glyph glyph-name="afii10028" unicode="&#x41a;" horiz-adv-x="485" 
d="M167 674h44l-59 -316h24l308 316h56l-319 -321c109 -10 154 -75 174 -184c8 -48 13 -113 30 -169h-47c-14 44 -21 112 -28 156c-22 119 -65 167 -185 167h-20l-61 -323h-45z" />
    <glyph glyph-name="afii10029" unicode="&#x41b;" horiz-adv-x="560" 
d="M221 674h343l-129 -674h-45l122 635h-254l-43 -234c-35 -189 -84 -303 -146 -359c-17 -19 -55 -47 -106 -50l-5 38c29 4 60 22 81 43c59 54 99 158 130 324z" />
    <glyph glyph-name="afii10030" unicode="&#x41c;" horiz-adv-x="754" 
d="M649 0h-44l52 417c8 59 23 161 32 206h-4c-27 -56 -62 -128 -99 -194l-239 -429h-33l-66 418c-13 80 -20 149 -26 205h-2c-11 -45 -33 -147 -48 -207l-107 -416h-45l178 674h52l73 -467c9 -54 17 -106 19 -141h3c16 35 41 84 71 137l260 471h55z" />
    <glyph glyph-name="afii10031" unicode="&#x41d;" horiz-adv-x="603" 
d="M167 674h46l-58 -297h351l57 297h45l-129 -674h-45l64 338h-350l-64 -338h-45z" />
    <glyph glyph-name="afii10032" unicode="&#x41e;" horiz-adv-x="645" 
d="M294 -11h-1c-174 0 -245 135 -245 270c0 114 45 243 122 327c56 61 141 99 223 99c184 0 245 -139 245 -273c0 -110 -41 -238 -115 -320c-59 -65 -138 -103 -229 -103zM299 28h1c161 0 291 195 291 381c0 102 -32 237 -205 237c-171 0 -291 -208 -291 -379
c0 -119 52 -239 204 -239z" />
    <glyph glyph-name="afii10033" unicode="&#x41f;" horiz-adv-x="586" 
d="M168 674h423l-129 -674h-45l123 635h-334l-122 -635h-45z" />
    <glyph glyph-name="afii10034" unicode="&#x420;" horiz-adv-x="476" 
d="M39 0l127 666c35 8 80 13 128 13c68 0 126 -19 157 -56c23 -29 34 -63 34 -109c0 -70 -36 -133 -74 -167c-51 -45 -126 -66 -198 -66c-26 0 -49 1 -74 6l-55 -287h-45zM204 632l-58 -305c29 -6 50 -7 74 -7c131 0 219 80 219 192c0 91 -64 129 -154 129
c-36 0 -64 -3 -81 -9z" />
    <glyph glyph-name="afii10035" unicode="&#x421;" horiz-adv-x="538" 
d="M470 62l10 -38c-39 -18 -101 -34 -173 -34c-164 0 -259 107 -259 276c0 111 42 234 128 316c70 66 158 102 258 102c76 0 130 -20 145 -35l-19 -35c-28 18 -77 31 -138 31c-78 0 -159 -33 -217 -90c-68 -67 -110 -174 -110 -281c0 -128 52 -245 221 -245
c53 0 114 11 154 33z" />
    <glyph glyph-name="afii10036" unicode="&#x422;" horiz-adv-x="441" 
d="M152 0l121 635h-209l8 39h462l-8 -39h-208l-121 -635h-45z" />
    <glyph glyph-name="afii10037" unicode="&#x423;" horiz-adv-x="457" 
d="M94 674h48l98 -338c9 -34 20 -74 30 -111h1c28 56 49 102 68 141l150 308h48l-152 -308c-50 -102 -125 -254 -185 -318c-43 -45 -84 -59 -123 -59c-21 0 -39 5 -51 11l12 38c10 -4 24 -7 42 -7c70 0 119 72 151 135c5 9 7 17 2 35z" />
    <glyph glyph-name="afii10038" unicode="&#x424;" horiz-adv-x="658" 
d="M260 -25l11 55c-116 13 -214 103 -214 260c0 251 183 362 331 360l11 49h44l-10 -52c119 -13 213 -101 213 -268c0 -217 -142 -351 -331 -353l-10 -51h-45zM279 67l102 546c-121 -1 -277 -102 -277 -316c0 -131 73 -213 175 -230zM425 611l-102 -548
c189 6 276 155 276 321c0 136 -76 215 -174 227z" />
    <glyph glyph-name="afii10039" unicode="&#x425;" horiz-adv-x="492" 
d="M435 0h-48l-75 187c-21 46 -37 88 -48 119h-2c-20 -28 -48 -66 -85 -114l-146 -192h-54l269 342l-131 332h48l78 -200c16 -40 28 -70 36 -97h2c19 26 46 63 71 96l160 201h55l-269 -330z" />
    <glyph glyph-name="afii10040" unicode="&#x426;" horiz-adv-x="590" 
d="M167 674h46l-121 -635h332l122 635h44l-121 -635h53l-46 -196h-39l28 157h-426z" />
    <glyph glyph-name="afii10041" unicode="&#x427;" horiz-adv-x="525" 
d="M140 674h45l-37 -195c-4 -21 -12 -60 -12 -90c0 -74 48 -111 125 -111c69 0 133 32 160 52l64 344h45l-128 -680h-45l55 290h-2c-29 -18 -91 -45 -161 -45c-100 0 -159 55 -159 144c0 34 7 69 14 102z" />
    <glyph glyph-name="afii10042" unicode="&#x428;" horiz-adv-x="770" 
d="M168 674h46l-122 -635h235l121 635h46l-122 -635h236l121 635h46l-130 -674h-606z" />
    <glyph glyph-name="afii10043" unicode="&#x429;" horiz-adv-x="774" 
d="M167 674h46l-121 -635h235l120 635h46l-121 -635h236l120 635h46l-121 -635h52l-46 -196h-39l29 157h-610z" />
    <glyph glyph-name="afii10044" unicode="&#x42a;" horiz-adv-x="577" 
d="M72 674h240l-50 -264c20 4 49 6 78 6c117 0 204 -58 204 -183c0 -71 -26 -127 -70 -167c-55 -49 -135 -71 -225 -71c-49 0 -87 4 -111 5l121 635h-194zM253 369l-62 -330c18 -3 43 -5 77 -5c113 0 230 62 230 194c0 104 -66 149 -166 149c-29 0 -58 -4 -79 -8z" />
    <glyph glyph-name="afii10045" unicode="&#x42b;" horiz-adv-x="662" 
d="M167 674h46l-50 -264c20 4 53 6 78 6c117 0 204 -58 204 -183c-1 -71 -26 -125 -67 -164c-58 -52 -138 -74 -228 -74c-49 0 -87 4 -111 5zM154 370l-62 -330c18 -4 43 -6 77 -6c113 0 230 67 230 191c0 107 -66 152 -168 152c-25 0 -55 -4 -77 -7zM619 674h47l-129 -675
h-46z" />
    <glyph glyph-name="afii10046" unicode="&#x42c;" horiz-adv-x="484" 
d="M167 674h46l-50 -264c18 4 50 6 78 6c117 0 204 -58 204 -183c0 -73 -26 -127 -67 -165c-58 -51 -138 -73 -228 -73c-49 0 -87 4 -111 5zM154 369l-62 -329c18 -4 43 -6 77 -6c117 0 230 67 230 191c0 107 -66 152 -168 152c-29 0 -60 -4 -77 -8z" />
    <glyph glyph-name="afii10047" unicode="&#x42d;" horiz-adv-x="520" 
d="M135 326l7 39h321c2 12 2 25 2 45c0 129 -74 235 -215 235c-47 0 -107 -12 -145 -32l-11 35c29 16 93 36 162 36c162 0 257 -107 257 -284c0 -105 -35 -229 -121 -316c-64 -64 -142 -94 -240 -94c-69 0 -129 18 -165 41l17 37c37 -22 95 -39 146 -39
c177 0 284 133 309 297h-324z" />
    <glyph glyph-name="afii10048" unicode="&#x42e;" horiz-adv-x="814" 
d="M167 674h45l-57 -298h111c18 78 52 154 101 210c52 61 133 99 210 99c172 0 230 -140 230 -274c0 -109 -39 -237 -108 -319c-55 -65 -129 -103 -215 -103c-164 0 -231 135 -231 270c0 25 2 52 6 79h-112l-63 -338h-45zM488 28h1c151 0 272 195 272 380
c0 103 -28 238 -190 238c-161 0 -273 -208 -273 -379c0 -119 48 -239 190 -239z" />
    <glyph glyph-name="afii10049" unicode="&#x42f;" horiz-adv-x="486" 
d="M491 665l-127 -665h-45l60 311h-69c-126 0 -166 -77 -214 -177c-20 -42 -43 -96 -65 -134h-50c26 41 54 108 76 154c36 73 76 151 157 174v2c-65 20 -112 64 -112 143c0 82 46 137 93 168c52 27 112 38 168 38c40 0 92 -7 128 -14zM386 348l53 284c-15 4 -43 8 -81 8
c-108 0 -209 -49 -209 -165c0 -85 73 -127 160 -127h77z" />
    <glyph glyph-name="afii10023" unicode="&#x401;" horiz-adv-x="441" 
d="M404 375l-8 -39h-248l-56 -297h280l-8 -39h-325l129 674h309l-8 -39h-264l-49 -260h248zM252 726h-1c-20 0 -35 19 -35 39c0 19 17 40 39 40s36 -21 36 -39c0 -19 -16 -40 -39 -40zM422 726h-1c-20 0 -35 19 -35 39c0 19 17 40 39 40s36 -21 36 -39
c0 -19 -16 -40 -39 -40z" />
    <glyph glyph-name="afii10051" unicode="&#x402;" horiz-adv-x="600" 
d="M72 674h471l-8 -39h-238l-44 -231h2c33 24 89 45 139 45c100 0 165 -80 165 -203c0 -107 -39 -219 -108 -289c-56 -57 -114 -79 -160 -88l-9 36c45 12 96 36 136 81c59 66 93 163 93 266c0 87 -43 157 -130 157c-49 0 -93 -18 -136 -47l-69 -362h-45l122 635h-189z" />
    <glyph glyph-name="afii10052" unicode="&#x403;" horiz-adv-x="354" 
d="M168 674h280l-8 -40h-235l-121 -634h-45zM373 823h77l-140 -113h-44z" />
    <glyph glyph-name="afii10053" unicode="&#x404;" horiz-adv-x="537" 
d="M578 651l-18 -37c-20 12 -66 31 -133 31c-164 0 -293 -120 -321 -279h349l-7 -39h-348c-3 -11 -5 -33 -5 -50c0 -142 75 -248 227 -248c54 0 109 17 147 37l13 -36c-36 -19 -90 -40 -181 -40c-166 0 -253 121 -253 287c0 111 43 221 112 294c67 68 159 113 274 113
c80 0 126 -23 144 -33z" />
    <glyph glyph-name="afii10054" unicode="&#x405;" horiz-adv-x="438" 
d="M19 35l19 37c34 -25 81 -43 133 -43c89 0 170 57 170 156c0 57 -27 102 -103 145c-95 51 -131 106 -131 169c0 111 94 185 204 185c56 0 105 -20 125 -36l-20 -36c-20 13 -59 33 -111 33c-93 0 -153 -68 -153 -135c0 -64 30 -99 109 -142c83 -46 125 -98 125 -182
c0 -96 -71 -196 -224 -196c-51 0 -117 20 -143 45z" />
    <glyph glyph-name="afii10055" unicode="&#x406;" horiz-adv-x="208" 
d="M168 674h45l-129 -674h-45z" />
    <glyph glyph-name="afii10056" unicode="&#x407;" horiz-adv-x="208" 
d="M168 674h45l-129 -674h-45zM121 726h-1c-20 0 -35 19 -35 39c0 19 17 40 39 40s36 -21 36 -39c0 -19 -16 -40 -39 -40zM291 726h-1c-20 0 -35 19 -35 39c0 19 17 40 39 40s36 -21 36 -39c0 -19 -16 -40 -39 -40z" />
    <glyph glyph-name="afii10057" unicode="&#x408;" horiz-adv-x="342" 
d="M220 203l89 471h45l-90 -475c-28 -150 -89 -210 -199 -210c-39 0 -79 10 -93 18l12 39c22 -11 50 -16 87 -16c76 0 124 41 149 173z" />
    <glyph glyph-name="afii10058" unicode="&#x409;" horiz-adv-x="831" 
d="M221 674h337l-50 -264c20 4 54 6 79 6c117 0 205 -58 205 -183c0 -69 -27 -125 -70 -164c-58 -51 -144 -74 -226 -74c-49 0 -87 4 -112 5l120 635h-245l-44 -234c-35 -188 -84 -303 -146 -359c-26 -25 -67 -48 -106 -49l-4 38c26 2 62 22 80 42c59 55 99 158 130 324z
M500 371l-62 -331c17 -4 40 -6 74 -6c115 0 234 65 234 195c0 109 -69 148 -168 148c-30 0 -57 -2 -78 -6z" />
    <glyph glyph-name="afii10059" unicode="&#x40a;" horiz-adv-x="836" 
d="M168 674h45l-55 -283h306l54 283h46l-51 -273c20 4 48 6 75 6c113 0 209 -57 209 -184c0 -63 -24 -117 -69 -158c-56 -50 -142 -70 -224 -70c-49 0 -89 4 -114 6l67 353h-307l-66 -354h-45zM504 362l-61 -323c18 -4 46 -5 78 -5c126 0 230 67 230 189
c0 98 -79 145 -173 145c-27 0 -52 -2 -74 -6z" />
    <glyph glyph-name="afii10060" unicode="&#x40b;" horiz-adv-x="622" 
d="M73 674h468l-7 -39h-239l-44 -230h2c24 18 88 48 160 48c98 0 146 -69 146 -147c0 -26 -5 -64 -11 -98l-40 -208h-44l40 207c7 36 11 71 11 92c0 60 -29 113 -122 113c-60 0 -120 -28 -151 -52l-68 -360h-44l121 635h-186z" />
    <glyph glyph-name="afii10061" unicode="&#x40c;" horiz-adv-x="485" 
d="M167 674h44l-59 -316h24l308 316h56l-319 -321c109 -10 154 -75 174 -184c8 -48 13 -113 30 -169h-47c-14 44 -21 112 -28 156c-22 119 -65 167 -185 167h-20l-61 -323h-45zM404 823h77l-140 -113h-44z" />
    <glyph glyph-name="afii10062" unicode="&#x40e;" horiz-adv-x="457" 
d="M94 674h48l98 -338c9 -34 20 -74 30 -111h1c28 56 49 102 68 141l150 308h48l-152 -308c-50 -102 -125 -254 -185 -318c-43 -45 -84 -59 -123 -59c-21 0 -39 5 -51 11l12 38c10 -4 24 -7 42 -7c70 0 119 72 151 135c5 9 7 17 2 35zM223 824h41c0 -30 18 -60 65 -60
c48 0 72 24 81 60h43c-9 -49 -53 -95 -125 -95c-77 0 -106 46 -105 95z" />
    <glyph glyph-name="afii10145" unicode="&#x40f;" horiz-adv-x="585" 
d="M167 674h46l-121 -635h332l123 635h43l-128 -674h-183l-38 -165h-39l26 165h-189z" />
    <glyph glyph-name="afii10065" unicode="&#x430;" horiz-adv-x="503" 
d="M403 0h-44c-1 30 5 83 14 143h-2c-57 -113 -127 -154 -202 -154c-85 0 -134 68 -134 153c0 171 133 349 325 349c40 0 83 -6 112 -14l-48 -250c-19 -97 -24 -178 -21 -227zM389 277l32 167c-12 4 -33 8 -69 8c-146 0 -269 -140 -270 -302c-1 -57 18 -122 97 -122
c86 0 185 115 210 249z" />
    <glyph glyph-name="afii10066" unicode="&#x431;" horiz-adv-x="487" 
d="M517 721l-7 -45c-19 -8 -38 -13 -58 -17c-109 -18 -197 -36 -267 -131c-28 -39 -53 -95 -69 -156h3c39 63 104 108 184 108c100 0 155 -78 155 -181c0 -138 -84 -310 -248 -310c-115 0 -163 92 -163 218c0 128 43 257 107 342c78 106 174 131 291 151c25 5 49 12 72 21z
M217 27h1c125 0 192 152 192 266c0 81 -34 148 -116 148c-60 0 -119 -41 -157 -97c-25 -38 -42 -94 -42 -157c0 -81 37 -160 122 -160z" />
    <glyph glyph-name="afii10067" unicode="&#x432;" horiz-adv-x="441" 
d="M289 491h1c57 0 112 -33 112 -106c0 -67 -64 -107 -115 -125v-2c47 -7 100 -41 100 -112c0 -106 -100 -156 -194 -156c-79 0 -144 34 -144 134c0 87 41 261 125 327c31 24 67 40 115 40zM278 453h-1c-100 0 -141 -111 -163 -194c64 8 143 18 189 46c29 18 54 44 54 78
c0 48 -35 70 -79 70zM221 236h-1c-48 0 -89 -9 -113 -15c-5 -25 -11 -60 -11 -91c0 -67 34 -102 102 -102c71 0 142 40 142 115c0 66 -52 93 -119 93z" />
    <glyph glyph-name="afii10068" unicode="&#x433;" horiz-adv-x="335" 
d="M118 425l-14 33c25 16 63 33 110 32c74 -2 112 -47 112 -107c0 -80 -67 -116 -139 -152c-65 -31 -122 -63 -122 -124c0 -42 26 -77 85 -78c40 -1 82 17 104 29l13 -33c-28 -18 -80 -36 -129 -35c-74 2 -119 46 -119 118c0 81 65 120 136 156c53 27 126 56 126 118
c0 37 -23 68 -74 69c-33 1 -64 -12 -89 -26z" />
    <glyph glyph-name="afii10098" unicode="&#x491;" horiz-adv-x="352" 
d="M129 480h217l36 107h38l-41 -146h-214l-83 -441h-44z" />
    <glyph glyph-name="afii10069" unicode="&#x434;" horiz-adv-x="470" 
d="M142 678l-3 43c29 -5 56 -8 77 -10c81 -9 131 -26 173 -75c45 -50 66 -139 66 -212c0 -150 -62 -435 -259 -435c-107 0 -160 76 -160 185c0 133 79 306 231 306c78 0 126 -45 143 -113h2c1 15 1 33 1 54c0 60 -16 144 -58 189c-34 38 -71 53 -140 59c-19 2 -44 4 -73 9z
M203 27h1c110 0 184 166 184 263c0 76 -41 151 -122 151c-125 0 -182 -155 -182 -264c0 -78 34 -150 119 -150z" />
    <glyph glyph-name="afii10070" unicode="&#x435;" horiz-adv-x="423" 
d="M336 64l14 -36c-25 -16 -75 -38 -146 -38c-122 0 -168 93 -168 187c0 143 109 314 252 314c87 0 124 -54 124 -110c0 -128 -156 -154 -325 -152c-7 -25 -5 -85 6 -118c20 -55 62 -82 117 -82c60 0 102 20 126 35zM366 378v1c0 48 -36 73 -86 73c-87 0 -160 -90 -186 -185
c142 -2 272 17 272 111z" />
    <glyph glyph-name="afii10072" unicode="&#x436;" horiz-adv-x="581" 
d="M72 480h51l136 -221h20l43 221h41l-43 -221h22l215 221h53l-226 -224c61 -5 93 -51 109 -122c11 -43 19 -102 32 -134h-42c-14 37 -21 84 -29 121c-18 85 -52 105 -127 105h-15l-44 -226h-42l46 227h-12c-83 0 -134 -29 -178 -108c-28 -50 -45 -87 -64 -119h-47
c19 31 38 68 65 119c44 85 95 134 183 138z" />
    <glyph glyph-name="afii10073" unicode="&#x437;" horiz-adv-x="363" 
d="M92 235l7 37h19c62 0 161 32 161 107c0 49 -38 73 -85 73c-36 0 -75 -12 -112 -35l-14 30c33 26 83 44 127 44c70 0 132 -34 132 -110c0 -69 -64 -112 -130 -125v-1c53 -6 113 -49 113 -113c0 -111 -99 -152 -194 -152c-57 0 -103 16 -134 36l17 37
c31 -20 74 -34 120 -34c62 0 143 30 143 107c0 76 -81 99 -145 99h-25z" />
    <glyph glyph-name="afii10074" unicode="&#x438;" horiz-adv-x="506" 
d="M118 480h45l-52 -274c-6 -30 -9 -52 -9 -75c0 -61 25 -101 94 -101c68 0 161 78 182 189l50 261h45l-67 -351c-9 -48 -15 -91 -19 -129h-42l15 99h-2c-39 -63 -105 -110 -172 -110c-53 0 -129 21 -129 142c0 21 3 45 9 76z" />
    <glyph glyph-name="afii10075" unicode="&#x439;" horiz-adv-x="506" 
d="M118 480h45l-52 -274c-6 -30 -9 -52 -9 -75c0 -61 25 -101 94 -101c68 0 161 78 182 189l50 261h45l-67 -351c-9 -48 -15 -91 -19 -129h-42l15 99h-2c-39 -63 -105 -110 -172 -110c-53 0 -129 21 -129 142c0 21 3 45 9 76zM215 678h42c-4 -42 19 -78 60 -78
c49 0 72 42 83 78h44c-16 -69 -63 -114 -129 -114c-87 0 -107 62 -100 114z" />
    <glyph glyph-name="afii10076" unicode="&#x43a;" horiz-adv-x="424" 
d="M130 480h44l-42 -221h22l238 221h57l-250 -224c57 -10 91 -49 122 -130c22 -53 32 -98 48 -126h-43c-15 28 -27 73 -48 120c-36 86 -70 106 -137 106h-16l-43 -226h-44z" />
    <glyph glyph-name="afii10077" unicode="&#x43b;" horiz-adv-x="488" 
d="M168 480h291l-91 -480h-45l83 441h-201l-27 -142c-26 -135 -65 -242 -142 -284c-24 -13 -40 -17 -67 -18l-5 38c17 1 39 6 51 13c62 36 94 129 117 248z" />
    <glyph glyph-name="afii10078" unicode="&#x43c;" horiz-adv-x="639" 
d="M156 480h53l51 -279c7 -43 19 -110 24 -142h1c18 38 63 116 101 181l142 240h56l-60 -480h-44l33 252c8 59 16 118 24 171h-5c-10 -26 -54 -100 -83 -151l-161 -272h-35l-47 268c-7 42 -21 114 -25 157h-3c-12 -54 -26 -114 -42 -174l-67 -251h-44z" />
    <glyph glyph-name="afii10079" unicode="&#x43d;" horiz-adv-x="511" 
d="M129 480h45l-38 -204h262l39 204h45l-91 -480h-45l45 238h-263l-45 -238h-45z" />
    <glyph glyph-name="afii10080" unicode="&#x43e;" horiz-adv-x="498" 
d="M217 -11h-1c-119 0 -178 96 -178 196c0 154 107 306 254 306c129 0 178 -104 178 -201c0 -131 -96 -301 -253 -301zM221 28h1c109 0 201 133 201 263c0 63 -30 161 -135 161c-117 0 -203 -131 -203 -263c0 -92 53 -161 136 -161z" />
    <glyph glyph-name="afii10081" unicode="&#x43f;" horiz-adv-x="516" 
d="M83 0h-45l66 351c9 48 16 91 21 129h42l-15 -103h2c42 70 110 114 185 114c43 0 120 -23 120 -134c0 -22 -4 -49 -9 -76l-53 -281h-45l54 285c3 20 7 44 7 66c0 57 -23 100 -92 100c-68 0 -170 -78 -193 -205z" />
    <glyph glyph-name="afii10082" unicode="&#x440;" horiz-adv-x="503" 
d="M36 -198h-45l99 518c11 58 19 112 26 160h43l-16 -103h2c46 71 113 114 184 114c104 0 144 -86 144 -168c0 -170 -128 -334 -283 -334c-59 0 -93 12 -113 23h-2zM113 209l-28 -152c24 -19 62 -29 108 -29c126 0 233 147 233 292c0 58 -26 132 -111 132
c-72 0 -172 -83 -202 -243z" />
    <glyph glyph-name="afii10083" unicode="&#x441;" horiz-adv-x="416" 
d="M341 60l13 -38c-21 -11 -72 -32 -142 -32c-127 0 -174 90 -174 178c0 160 117 323 283 323c47 0 91 -17 101 -26l-16 -38c-21 11 -51 22 -92 22c-140 0 -229 -146 -229 -274c0 -85 40 -146 135 -146c54 0 97 18 121 31z" />
    <glyph glyph-name="afii10084" unicode="&#x442;" horiz-adv-x="794" 
d="M83 0h-45l67 351c9 48 15 91 20 129h42l-15 -97h3c45 70 107 108 172 108c71 0 108 -45 111 -117c43 74 104 116 183 117c44 1 116 -28 116 -124c0 -23 -3 -52 -8 -81l-54 -286h-45l54 286c3 18 7 44 7 65c0 62 -22 100 -88 100c-68 0 -154 -73 -175 -187l-49 -264h-45
l57 293c4 23 6 41 6 61c0 45 -12 97 -89 97c-67 0 -157 -87 -177 -194z" />
    <glyph glyph-name="afii10085" unicode="&#x443;" horiz-adv-x="403" 
d="M50 480h46l59 -289c13 -59 22 -97 28 -137h3c15 33 33 69 58 124l138 302h48c-54 -120 -130 -283 -177 -377c-44 -88 -92 -173 -158 -240c-53 -54 -106 -77 -131 -83l-13 39c19 7 56 22 92 51c32 27 72 72 103 128c4 9 3 14 2 21z" />
    <glyph glyph-name="afii10086" unicode="&#x444;" horiz-adv-x="643" 
d="M216 -198l55 262h-1c-28 -37 -62 -75 -130 -75c-75 0 -110 72 -110 151c0 124 72 351 223 351c44 0 74 -33 84 -72h1l54 291h44l-60 -295h2c24 34 66 76 125 76c85 0 114 -78 114 -165c0 -122 -67 -337 -213 -337c-49 0 -83 36 -94 74h-1l-49 -261h-44zM251 453h-1
c-123 0 -175 -215 -175 -310c0 -69 26 -116 77 -116c76 0 124 85 138 154l24 121c4 21 5 39 5 63c0 47 -34 88 -68 88zM502 453h-1c-41 0 -80 -23 -113 -73c-19 -29 -27 -59 -34 -96l-21 -108c-3 -16 -5 -34 -5 -50c0 -41 29 -99 80 -99c112 0 164 198 164 297
c0 67 -13 129 -70 129z" />
    <glyph glyph-name="afii10087" unicode="&#x445;" horiz-adv-x="405" 
d="M72 480h48l58 -125c13 -27 22 -50 33 -75h3c19 27 28 41 53 70l111 130h53l-203 -234l115 -246h-49l-59 128c-18 37 -24 52 -37 85h-3c-14 -24 -29 -45 -50 -69l-122 -144h-53l213 246z" />
    <glyph glyph-name="afii10088" unicode="&#x446;" horiz-adv-x="514" 
d="M118 480h45l-52 -274c-6 -30 -9 -53 -9 -75c0 -62 25 -102 95 -102c67 0 161 78 182 190l49 261h45l-63 -334c-4 -22 -7 -41 -7 -56c0 -34 16 -61 64 -62l-50 -158h-35l33 130c-19 3 -37 16 -47 33c-10 19 -11 45 -8 65h-2c-39 -63 -105 -109 -172 -109
c-53 0 -129 21 -129 142c0 21 3 45 9 76z" />
    <glyph glyph-name="afii10089" unicode="&#x447;" horiz-adv-x="474" 
d="M106 480h45l-20 -104c-6 -29 -13 -63 -13 -91c0 -47 18 -83 96 -83c45 0 112 28 144 58l41 220h44l-92 -482h-44l41 215h-1c-41 -29 -94 -49 -144 -49c-95 0 -131 47 -131 112c0 30 6 63 13 95z" />
    <glyph glyph-name="afii10090" unicode="&#x448;" horiz-adv-x="766" 
d="M119 480h45l-54 -286c-3 -18 -7 -44 -7 -65c0 -62 22 -100 82 -100c68 0 149 73 170 187l49 264h45l-57 -293c-4 -23 -6 -41 -6 -61c0 -45 12 -97 83 -97c62 0 152 87 172 194l48 257h45l-65 -346c-8 -44 -9 -91 -11 -134h-43c1 40 3 75 5 97h-3
c-41 -70 -98 -108 -163 -108s-106 45 -109 117c-43 -74 -104 -117 -183 -117c-37 0 -105 28 -105 124c0 23 3 52 8 81z" />
    <glyph glyph-name="afii10091" unicode="&#x449;" horiz-adv-x="775" 
d="M119 480h45l-54 -286c-3 -18 -7 -44 -7 -65c0 -62 22 -100 82 -100c63 0 149 73 170 187l49 264h45l-57 -293c-4 -23 -6 -41 -6 -61c0 -45 12 -97 83 -97c62 0 152 87 172 194l47 257h45l-63 -333c-4 -21 -7 -41 -7 -57c0 -34 16 -60 64 -62l-50 -158h-35l33 130
c-43 9 -60 54 -55 97h-3c-45 -70 -96 -108 -167 -108c-65 0 -102 45 -105 117c-43 -74 -106 -117 -178 -117c-38 0 -110 28 -110 124c0 23 3 52 8 81z" />
    <glyph glyph-name="afii10092" unicode="&#x44a;" horiz-adv-x="474" 
d="M53 480h237c-47 -79 -98 -154 -132 -247h1c35 46 92 79 153 79c74 0 119 -46 119 -119c0 -113 -99 -199 -212 -199c-78 0 -125 39 -125 120c0 99 70 243 131 327h-180zM220 30h1c84 0 164 67 164 153c0 49 -26 92 -88 92c-65 0 -128 -56 -149 -112
c-7 -18 -10 -32 -10 -51c0 -45 27 -82 82 -82z" />
    <glyph glyph-name="afii10093" unicode="&#x44b;" horiz-adv-x="591" 
d="M127 480h45l-58 -243h1c33 43 90 75 142 75c74 0 128 -46 128 -126c0 -113 -101 -192 -217 -192c-70 0 -119 27 -119 97c0 29 6 61 11 82zM173 30h1c83 0 165 61 165 151c0 51 -27 94 -92 94c-61 0 -129 -59 -145 -124c-5 -19 -9 -38 -9 -58c0 -41 29 -63 80 -63z
M515 480h46l-92 -480h-46z" />
    <glyph glyph-name="afii10094" unicode="&#x44c;" horiz-adv-x="430" 
d="M127 480h45l-58 -244h1c33 43 90 76 147 76c74 0 124 -46 124 -123c0 -116 -101 -195 -215 -195c-73 0 -122 28 -122 100c0 23 7 61 12 83zM172 30h1c86 0 167 61 167 151c0 51 -23 94 -90 94c-64 0 -127 -62 -145 -116c-6 -16 -12 -38 -12 -61c0 -45 32 -68 79 -68z" />
    <glyph glyph-name="afii10095" unicode="&#x44d;" horiz-adv-x="421" 
d="M99 227l6 37h235c1 8 1 15 1 24c0 88 -54 163 -154 163c-47 0 -88 -14 -114 -25l-11 34c24 13 73 32 128 32c127 0 196 -87 196 -222c0 -152 -97 -281 -260 -281c-45 0 -101 11 -136 35l17 37c22 -14 71 -33 118 -32c116 -1 194 76 211 198h-237z" />
    <glyph glyph-name="afii10096" unicode="&#x44e;" horiz-adv-x="658" 
d="M129 480h45l-38 -204h86c29 121 118 215 232 215c125 0 175 -105 175 -201c0 -132 -93 -301 -246 -301c-116 0 -173 95 -173 197c0 16 2 34 4 52h-86l-45 -238h-45zM387 27h1c107 0 193 133 193 264c0 63 -29 161 -130 161c-116 0 -196 -137 -196 -263
c0 -86 51 -162 132 -162z" />
    <glyph glyph-name="afii10097" unicode="&#x44f;" horiz-adv-x="439" 
d="M409 475l-91 -475h-43l41 217h-61c-85 0 -127 -38 -161 -109c-18 -37 -34 -74 -54 -108h-46c26 42 40 82 63 128c27 52 66 94 127 106v2c-57 14 -102 50 -102 109c0 109 112 140 209 140c42 0 87 -5 118 -10zM324 254l36 188c-21 3 -42 6 -75 6c-70 0 -155 -16 -155 -105
c0 -63 82 -89 135 -89h59z" />
    <glyph glyph-name="afii10071" unicode="&#x451;" horiz-adv-x="423" 
d="M336 64l14 -36c-25 -16 -75 -38 -146 -38c-122 0 -168 93 -168 187c0 143 109 314 252 314c87 0 124 -54 124 -110c0 -128 -156 -154 -325 -152c-7 -25 -5 -85 6 -118c20 -55 62 -82 117 -82c60 0 102 20 126 35zM366 378v1c0 48 -36 73 -86 73c-87 0 -160 -90 -186 -185
c142 -2 272 17 272 111zM221 580h-1c-22 0 -35 18 -35 38c0 21 17 40 38 40c22 0 36 -18 36 -38s-14 -40 -38 -40zM390 580h-1c-21 0 -34 18 -34 38c0 21 16 40 38 40s35 -18 35 -38s-13 -40 -38 -40z" />
    <glyph glyph-name="afii10099" unicode="&#x452;" horiz-adv-x="512" 
d="M173 710h45l-19 -97h269l-11 -37h-265l-33 -175h2c36 46 89 90 167 90c102 0 147 -83 147 -204c0 -140 -50 -315 -175 -400c-28 -21 -66 -40 -108 -49l-11 38c38 9 71 26 100 50c94 67 147 219 147 357c0 94 -25 169 -112 169s-165 -98 -178 -168l-54 -284h-45l109 576
h-66l9 37h65z" />
    <glyph glyph-name="afii10100" unicode="&#x453;" horiz-adv-x="335" 
d="M118 425l-14 33c25 16 63 33 110 32c74 -2 112 -47 112 -107c0 -80 -67 -116 -139 -152c-65 -31 -122 -63 -122 -124c0 -42 26 -77 85 -78c40 -1 82 17 104 29l13 -33c-28 -18 -80 -36 -129 -35c-74 2 -119 46 -119 118c0 81 65 120 136 156c53 27 126 56 126 118
c0 37 -23 68 -74 69c-33 1 -64 -12 -89 -26zM304 678h74l-135 -138h-40z" />
    <glyph glyph-name="afii10101" unicode="&#x454;" horiz-adv-x="409" 
d="M422 460l-18 -36c-20 13 -56 28 -103 28c-114 0 -187 -88 -209 -188h252l-7 -37h-251c-2 -12 -2 -21 -2 -32c1 -91 54 -166 159 -166c37 0 75 9 103 23l13 -33c-26 -15 -69 -29 -132 -29c-122 0 -189 89 -189 205c0 78 29 156 77 212c47 51 113 84 190 84
c56 0 96 -18 117 -31z" />
    <glyph glyph-name="afii10102" unicode="&#x455;" horiz-adv-x="346" 
d="M17 20l16 37c20 -14 55 -28 90 -28c65 0 110 46 110 100c0 46 -18 74 -71 106c-55 33 -77 76 -77 119c0 74 64 137 150 137c36 0 71 -12 86 -23l-17 -38c-14 9 -42 22 -74 22c-58 0 -100 -41 -100 -91c0 -45 25 -69 70 -97c54 -33 79 -77 79 -123
c0 -95 -75 -151 -160 -151c-46 0 -85 16 -102 30z" />
    <glyph glyph-name="afii10103" unicode="&#x456;" horiz-adv-x="206" 
d="M83 0h-45l92 480h45zM177 586h-1c-21 0 -35 19 -34 41s17 41 38 41c22 0 36 -19 36 -41c-2 -22 -16 -41 -39 -41z" />
    <glyph glyph-name="afii10104" unicode="&#x457;" horiz-adv-x="206" 
d="M83 0h-45l92 480h45zM85 580h-1c-22 0 -35 18 -35 38c0 21 17 40 38 40c22 0 36 -18 36 -38s-14 -40 -38 -40zM254 580h-1c-21 0 -34 18 -34 38c0 21 16 40 38 40s35 -18 35 -38s-13 -40 -38 -40z" />
    <glyph glyph-name="afii10105" unicode="&#x458;" horiz-adv-x="197" 
d="M129 480h45l-93 -487c-15 -79 -31 -128 -58 -158c-26 -29 -61 -44 -97 -44c-20 0 -34 1 -46 5l6 38c8 -2 23 -4 42 -4c47 0 83 31 103 139zM172 586h-1c-21 0 -34 18 -34 39c0 22 15 43 38 43c21 0 35 -18 36 -39c-1 -22 -15 -43 -39 -43z" />
    <glyph glyph-name="afii10106" unicode="&#x459;" horiz-adv-x="705" 
d="M162 480h277l-48 -239h2c38 43 94 71 149 71c72 0 120 -44 120 -121c0 -119 -102 -197 -213 -197c-76 0 -124 29 -124 100c0 18 3 49 9 77l53 270h-187l-27 -144c-28 -149 -63 -241 -139 -281c-20 -12 -37 -19 -67 -19l-4 38c14 0 37 5 49 12c56 33 90 112 115 246z
M451 30h1c84 0 164 60 164 150c0 54 -25 95 -84 95c-63 0 -126 -57 -150 -112c-7 -15 -13 -39 -13 -62c0 -48 33 -71 82 -71z" />
    <glyph glyph-name="afii10107" unicode="&#x45a;" horiz-adv-x="719" 
d="M129 480h45l-35 -189h233l35 189h45l-48 -239h2c34 43 91 71 142 71c74 0 127 -46 127 -125c0 -120 -102 -193 -214 -193c-77 0 -125 25 -125 97c0 21 7 56 12 81l17 82h-234l-48 -254h-45zM465 30h1c85 0 163 61 163 150c0 52 -27 95 -92 95c-61 0 -126 -58 -146 -122
c-4 -14 -10 -34 -10 -56c0 -44 34 -67 84 -67z" />
    <glyph glyph-name="afii10108" unicode="&#x45b;" horiz-adv-x="516" 
d="M174 710h45l-19 -97h265l-8 -37h-264l-38 -195h2c40 63 103 110 183 110c41 0 119 -23 119 -128c0 -27 -3 -55 -7 -78l-54 -285h-45l54 286c3 16 7 40 7 68c0 52 -25 97 -91 97c-73 0 -171 -83 -192 -198l-47 -253h-45l109 576h-65l8 37h65z" />
    <glyph glyph-name="afii10109" unicode="&#x45c;" horiz-adv-x="424" 
d="M130 480h44l-42 -221h22l238 221h57l-250 -224c57 -10 91 -49 122 -130c22 -53 32 -98 48 -126h-43c-15 28 -27 73 -48 120c-36 86 -70 106 -137 106h-16l-43 -226h-44zM350 678h74l-135 -138h-40z" />
    <glyph glyph-name="afii10110" unicode="&#x45e;" horiz-adv-x="403" 
d="M50 480h46l59 -289c13 -59 22 -97 28 -137h3c15 33 33 69 58 124l138 302h48c-54 -120 -130 -283 -177 -377c-44 -88 -92 -173 -158 -240c-53 -54 -106 -77 -131 -83l-13 39c19 7 56 22 92 51c32 27 72 72 103 128c4 9 3 14 2 21zM158 678h42c-4 -42 19 -78 60 -78
c49 0 72 42 83 78h44c-16 -69 -63 -114 -129 -114c-87 0 -107 62 -100 114z" />
    <glyph glyph-name="afii10193" unicode="&#x45f;" horiz-adv-x="506" 
d="M118 480h45l-52 -274c-6 -30 -9 -52 -9 -75c0 -61 25 -101 94 -101c68 0 161 78 182 189l50 261h45l-67 -351c-9 -48 -15 -91 -19 -129h-42l15 99h-2c-39 -63 -105 -110 -172 -110c-53 0 -129 21 -129 142c0 21 3 45 9 76zM190 -191l-40 -5l28 154l48 5z" />
    <glyph glyph-name="afii10846" unicode="&#x4d9;" horiz-adv-x="411" 
d="M85 417l-14 36c25 16 75 38 146 38c122 0 168 -93 168 -187c0 -143 -109 -314 -252 -314c-87 0 -124 54 -124 110c0 128 156 154 325 152c7 25 5 85 -6 118c-20 55 -62 82 -117 82c-60 0 -102 -20 -126 -35zM141 29h1c86 0 159 90 185 185c-142 2 -272 -17 -272 -111
c0 -49 36 -74 86 -74z" />
    <glyph glyph-name="afii10063" unicode="&#xf6c4;" horiz-adv-x="206" 
d="M83 0h-45l92 480h45zM64 625h202l-7 -38h-202z" />
    <glyph glyph-name="afii10192" unicode="&#xf6c6;" horiz-adv-x="503" 
d="M8 -173l17 38c30 -21 72 -35 128 -35c88 0 158 47 192 198l20 92h-3c-45 -82 -113 -122 -185 -122c-97 0 -142 84 -142 164c0 166 124 329 295 329c48 0 109 -17 139 -33l-74 -398c-21 -110 -49 -175 -95 -216c-45 -42 -107 -53 -156 -53c-55 0 -108 15 -136 36zM384 251
l35 180c-18 9 -54 21 -98 21c-142 0 -238 -145 -239 -281c-1 -56 17 -134 109 -134c86 0 174 113 193 214z" />
    <glyph glyph-name="afii10831" unicode="&#xf6c7;" horiz-adv-x="506" 
d="M428 480h45l-67 -351c-9 -48 -15 -91 -19 -129h-42l15 99h-2c-39 -63 -105 -110 -172 -110c-53 0 -129 21 -129 142c0 21 3 45 9 76l52 273h45l-52 -274c-6 -30 -9 -52 -9 -75c0 -61 25 -101 94 -101c68 0 161 78 182 189zM157 625h319l-9 -38h-318z" />
    <glyph glyph-name="afii10832" unicode="&#xf6c8;" horiz-adv-x="766" 
d="M118 480h45l-54 -286c-3 -18 -7 -44 -7 -65c0 -62 22 -100 88 -100c69 0 155 73 176 187l49 264h45l-57 -293c-4 -23 -6 -41 -6 -61c0 -45 12 -97 89 -97c67 0 157 87 177 194l48 257h45l-65 -346c-8 -44 -9 -91 -11 -134h-43c1 40 3 75 5 97h-3
c-45 -70 -107 -108 -172 -108c-71 0 -108 45 -111 117c-43 -74 -106 -117 -184 -117c-44 0 -116 28 -116 124c0 23 3 52 8 81zM162 625h597l-6 -38h-599z" />
    <glyph glyph-name="Euro" unicode="&#x20ac;" horiz-adv-x="462" 
d="M397 57l12 -32c-25 -17 -75 -36 -130 -36c-153 0 -223 133 -214 272h-61l8 37h57c3 23 8 46 14 68h-59l9 37h62c45 136 160 258 305 258c51 0 89 -15 113 -30l-17 -35c-26 14 -59 26 -102 26c-126 0 -217 -111 -253 -219h284l-7 -37h-289c-6 -19 -11 -42 -13 -68h287
l-8 -37h-284c-6 -115 45 -233 175 -233c46 0 89 17 111 29z" />
    <glyph glyph-name="afii61289" unicode="&#x2113;" horiz-adv-x="445" 
d="M192 526l-51 -265c91 80 215 214 215 341c0 52 -21 75 -57 75c-43 0 -87 -48 -107 -151zM360 127l27 -24c-42 -72 -102 -112 -176 -112c-105 0 -139 80 -132 171l2 12c-22 -15 -42 -29 -61 -41l-16 29c29 19 59 38 86 60l56 290c28 148 95 204 163 204
c55 0 93 -43 93 -109c0 -153 -156 -306 -271 -400l-2 -16c-16 -121 28 -158 88 -158c71 0 114 54 143 94z" />
    <glyph glyph-name="afii61352" unicode="&#x2116;" horiz-adv-x="851" 
d="M691 297h-1c-65 0 -114 43 -114 125c0 102 63 220 177 220c73 0 113 -49 113 -128c0 -103 -64 -217 -175 -217zM795 252l-7 -38h-231l7 38h231zM557 656l-125 -656h-47l-126 376c-26 75 -49 145 -65 218l-2 -1c-14 -85 -26 -155 -48 -272l-62 -321h-43l126 656h50
l128 -377c28 -83 50 -150 64 -216l2 1c11 96 24 168 45 273l61 319h42zM697 331h1c83 0 125 100 125 178c0 52 -19 99 -76 99c-82 0 -128 -105 -128 -176c0 -63 30 -101 78 -101z" />
    <glyph glyph-name="estimated" unicode="&#x212e;" horiz-adv-x="817" 
d="M782 316h-605c-3 0 -5 -1 -5 -4v-183c0 -8 4 -15 9 -21c57 -61 139 -99 229 -99c96 0 182 43 240 111h55c-68 -79 -176 -131 -296 -131c-206 0 -374 150 -374 336s168 336 374 336s373 -150 373 -336v-9zM646 340v184c0 9 -4 16 -10 22c-58 58 -138 95 -226 95
c-90 0 -170 -38 -228 -98c-6 -6 -10 -14 -10 -23v-180c0 -3 2 -5 5 -5h464c3 0 5 2 5 5z" />
    <glyph glyph-name="partialdiff" unicode="&#x2202;" horiz-adv-x="488" 
d="M124 641l-16 32c38 26 91 50 160 50c112 0 216 -97 216 -290c0 -225 -116 -444 -292 -444c-107 0 -157 85 -157 177c0 142 104 267 245 267c72 0 134 -52 151 -97h1c6 32 9 66 9 98c0 173 -93 248 -177 248c-64 0 -110 -20 -140 -41zM199 30h1c112 0 192 118 221 252
c-18 59 -79 110 -149 110c-107 0 -189 -97 -189 -224c0 -83 43 -138 116 -138z" />
    <glyph glyph-name="uni2206" unicode="&#x2206;" horiz-adv-x="476" 
d="M506 0h-501l6 32l340 626h46l115 -626zM64 39h401l-73 404c-9 50 -21 120 -27 165h-2c-17 -37 -45 -92 -71 -144z" />
    <glyph glyph-name="product" unicode="&#x220f;" horiz-adv-x="595" 
d="M631 610h-77l-143 -700h-45l144 700h-288l-143 -700h-45l143 700h-79l8 40h534z" />
    <glyph glyph-name="summation" unicode="&#x2211;" horiz-adv-x="520" 
d="M436 -90h-470l5 31l318 341l-186 335l6 33h423l-7 -40h-368l-1 -3l182 -328l-301 -326v-3h406z" />
    <glyph glyph-name="radical" unicode="&#x221a;" horiz-adv-x="523" 
d="M608 819l-376 -923h-38l-75 438l-74 -30l-9 32l117 48l61 -376c3 -16 5 -37 6 -52h1c5 15 13 36 19 52l327 811h41z" />
    <glyph glyph-name="infinity" unicode="&#x221e;" horiz-adv-x="713" 
d="M533 129h-1c-74 0 -127 61 -175 108c-51 -51 -105 -108 -184 -108c-77 0 -133 54 -133 135c0 74 62 136 141 136c75 0 128 -61 176 -109c51 52 105 109 184 109c77 0 133 -55 133 -136c0 -74 -62 -135 -141 -135zM535 168h1c55 0 96 45 96 96c0 55 -39 97 -94 97
c-64 0 -115 -55 -154 -97c43 -40 86 -96 151 -96zM176 168h1c63 0 114 55 153 96c-43 40 -86 97 -151 97c-56 0 -97 -45 -97 -97c0 -55 39 -96 94 -96z" />
    <glyph glyph-name="integral" unicode="&#x222b;" horiz-adv-x="263" 
d="M346 780l-15 -35c-7 2 -17 4 -27 4c-80 0 -100 -125 -110 -187c-22 -136 -46 -342 -70 -481c-15 -93 -48 -222 -154 -222c-19 0 -32 5 -41 9l11 34c7 -2 19 -5 33 -5c80 0 100 131 110 186c23 139 47 349 69 482c15 91 49 222 159 222c15 0 27 -3 35 -7z" />
    <glyph glyph-name="approxequal" unicode="&#x2248;" horiz-adv-x="596" 
d="M541 405l25 -29c-30 -32 -88 -66 -146 -66c-61 0 -98 23 -131 36c-30 12 -65 34 -117 34c-44 0 -93 -28 -121 -56l-25 30c30 31 88 65 146 65c61 0 98 -23 131 -35c30 -13 65 -35 117 -35c44 0 93 29 121 56zM547 215l25 -29c-30 -32 -88 -66 -146 -66
c-61 0 -98 23 -131 36c-30 12 -65 34 -117 34c-44 0 -93 -28 -121 -56l-25 30c30 31 88 65 146 65c61 0 98 -23 131 -35c30 -13 65 -35 117 -35c44 0 93 29 121 56z" />
    <glyph glyph-name="notequal" unicode="&#x2260;" horiz-adv-x="596" 
d="M556 156h-310l-85 -134h-44l86 134h-163v39h188l97 151h-285v39h310l85 134h44l-86 -134h163v-39h-188l-97 -151h285v-39z" />
    <glyph glyph-name="lessequal" unicode="&#x2264;" horiz-adv-x="596" 
d="M525 87l-454 203v38l454 203v-45l-401 -176v-2l401 -175v-46zM525 0h-451v39h451v-39z" />
    <glyph glyph-name="greaterequal" unicode="&#x2265;" horiz-adv-x="596" 
d="M525 290l-454 -203v46l401 175v2l-401 176v45l454 -203v-38zM522 0h-451v39h451v-39z" />
    <glyph glyph-name="lozenge" unicode="&#x25ca;" horiz-adv-x="475" 
d="M449 325l-239 -352h-42l-114 352l239 352h42zM402 324l-91 292c-2 6 -3 12 -4 19h-2c-3 -7 -8 -13 -12 -19l-192 -290l91 -292c2 -6 3 -12 4 -19h2c3 7 8 13 12 19z" />
    <glyph glyph-name="uniEFED" unicode="&#xefed;" 
d="M289 726h-1c-20 0 -35 19 -35 39c0 19 17 40 39 40s36 -21 36 -39c0 -19 -16 -40 -39 -40z" />
    <glyph glyph-name="uniEFEE" unicode="&#xefee;" 
d="M192 828h35c-1 -29 15 -56 66 -56c48 0 72 24 81 56h38c-9 -49 -49 -95 -120 -95c-79 0 -107 46 -100 95z" />
    <glyph glyph-name="uniEFF1" unicode="&#xeff1;" 
d="M145 1h48c-42 -29 -91 -83 -91 -127c0 -22 14 -35 35 -35c15 0 29 3 43 10l9 -29c-22 -13 -42 -18 -66 -18c-41 0 -67 26 -67 63c0 62 61 115 89 136z" />
    <glyph glyph-name="uniEFF2" unicode="&#xeff2;" 
d="M139 2h38l-43 -56c33 -8 50 -33 50 -62c0 -50 -45 -82 -97 -82c-25 0 -48 7 -60 16l15 34c14 -8 30 -13 48 -13c26 0 49 14 49 39c0 24 -24 38 -61 42z" />
    <glyph glyph-name="uniEFF3" unicode="&#xeff3;" 
d="M294 863h1c52 0 86 -36 86 -84c0 -50 -42 -85 -90 -85c-51 0 -87 36 -87 81c0 49 38 88 90 88zM293 835h-1c-28 0 -48 -25 -48 -59c0 -29 19 -53 47 -53c29 0 50 24 50 57c0 31 -18 55 -48 55z" />
    <glyph glyph-name="uniEFF5" unicode="&#xeff5;" 
d="M202 716h-32c8 44 34 85 71 85c27 0 40 -8 59 -21c15 -10 29 -17 46 -17c16 0 27 13 34 38h32c-9 -47 -31 -80 -72 -80c-24 0 -36 7 -58 20c-17 10 -27 19 -44 18c-18 -1 -29 -18 -36 -43z" />
    <glyph glyph-name="uniEFF7" unicode="&#xeff7;" 
d="M281 823h37l80 -113h-47l-55 79h-2l-81 -79h-51z" />
    <glyph glyph-name="Acute" unicode="&#xf6c9;" 
d="M354 823h77l-140 -113h-44z" />
    <glyph glyph-name="Caron" unicode="&#xf6ca;" 
d="M300 710h-37l-80 112h50l51 -77h4l80 77h51z" />
    <glyph glyph-name="Dieresis" unicode="&#xf6cb;" 
d="M204 726h-1c-20 0 -35 19 -35 39c0 19 17 40 39 40s36 -21 36 -39c0 -19 -16 -40 -39 -40zM374 726h-1c-20 0 -35 19 -35 39c0 19 17 40 39 40s36 -21 36 -39c0 -19 -16 -40 -39 -40z" />
    <glyph glyph-name="DieresisAcute" unicode="&#xf6cc;" 
d="M212 731h-1c-15 0 -31 10 -31 33c0 20 17 38 38 38c25 0 32 -17 32 -32c0 -24 -20 -39 -38 -39zM336 815h65l-126 -105h-41zM421 731h-1c-15 0 -31 10 -31 33c0 20 17 38 38 38c25 0 32 -17 32 -32c0 -24 -20 -39 -38 -39z" />
    <glyph glyph-name="DieresisGrave" unicode="&#xf6cd;" 
d="M193 731h-1c-15 0 -31 10 -31 33c0 20 17 38 38 38c25 0 32 -17 32 -32c0 -24 -20 -39 -38 -39zM220 815h65l102 -105h-41zM402 731h-1c-15 0 -31 10 -31 33c0 20 17 38 38 38c25 0 32 -17 32 -32c0 -24 -20 -39 -38 -39z" />
    <glyph glyph-name="Grave" unicode="&#xf6ce;" 
d="M166 823h70l73 -113h-37z" />
    <glyph glyph-name="Hungarumlaut" unicode="&#xf6cf;" 
d="M292 822h68l-131 -109h-39zM418 822h68l-131 -109h-39z" />
    <glyph glyph-name="Macron" unicode="&#xf6d0;" 
d="M184 772h217l-7 -39h-217z" />
    <glyph glyph-name="cyrBreve" unicode="&#xf6d1;" 
d="M187 828h41c0 -30 18 -60 65 -60c48 0 72 24 81 60h43c-9 -49 -53 -95 -125 -95c-77 0 -106 46 -105 95z" />
    <glyph glyph-name="cyrFlex" unicode="&#xf6d2;" 
d="M408 741h-41c0 30 -18 60 -65 60c-48 0 -72 -24 -81 -60h-43c9 49 53 95 125 95c77 0 106 -46 105 -95z" />
    <glyph glyph-name="dblGrave" unicode="&#xf6d3;" horiz-adv-x="381" 
d="M127 815h65l102 -105h-41zM250 815h65l102 -105h-41z" />
    <glyph glyph-name="cyrbreve" unicode="&#xf6d4;" horiz-adv-x="376" 
d="M161 678h42c-4 -42 19 -78 60 -78c49 0 72 42 83 78h44c-16 -69 -63 -114 -129 -114c-87 0 -107 62 -100 114z" />
    <glyph glyph-name="cyrflex" unicode="&#xf6d5;" 
d="M372 562h-42c4 42 -19 78 -60 78c-49 0 -72 -42 -83 -78h-44c16 69 63 114 129 114c87 0 107 -62 100 -114z" />
    <glyph glyph-name="dblgrave" unicode="&#xf6d6;" 
d="M72 661h69l91 -127h-38zM202 661h69l91 -127h-38z" />
    <glyph glyph-name="dieresisacute" unicode="&#xf6d7;" 
d="M168 584h-1c-16 0 -32 9 -32 33c0 20 17 38 38 38c25 0 32 -17 32 -32c0 -24 -20 -39 -37 -39zM279 678h57l-108 -132h-32zM366 584h-1c-16 0 -32 9 -32 33c0 20 17 38 38 38c25 0 32 -17 32 -32c0 -24 -20 -39 -37 -39z" />
    <glyph glyph-name="dieresisgrave" unicode="&#xf6d8;" 
d="M153 584h-1c-16 0 -32 9 -32 33c0 20 17 38 38 38c25 0 32 -17 32 -32c0 -24 -20 -39 -37 -39zM185 678h57l82 -132h-32zM351 584h-1c-16 0 -32 9 -32 33c0 20 17 38 38 38c25 0 32 -17 32 -32c0 -24 -20 -39 -37 -39z" />
    <glyph glyph-name="uniF634" unicode="&#xf634;" 
d="M46 -209l-8 27c45 7 94 30 94 79c0 22 -12 40 -26 50l41 11c14 -9 29 -32 29 -56c0 -69 -67 -103 -130 -111z" />
    <glyph glyph-name="uniF638" unicode="&#xf638;" horiz-adv-x="462" 
d="M100 126l298 439c-14 32 -40 57 -85 57c-124 0 -221 -223 -221 -421c0 -24 2 -50 8 -75zM410 520l-297 -438c16 -32 42 -54 86 -54c137 0 216 275 216 433c0 16 -1 38 -5 59zM506 653l-60 -81c12 -32 16 -69 16 -104c0 -217 -102 -479 -269 -479c-50 0 -84 20 -108 52
l-46 -65l-29 25l55 76c-14 35 -20 80 -20 128c0 223 118 456 272 456c53 0 87 -22 110 -53l47 69z" />
    <glyph glyph-name="uniF639" unicode="&#xf639;" horiz-adv-x="462" 
d="M193 -11h-1c-109 0 -147 96 -147 216c0 223 118 456 272 456c114 0 145 -102 145 -193c0 -217 -102 -479 -269 -479zM199 28h1c136 0 215 275 215 433c0 56 -8 161 -102 161c-124 0 -221 -223 -221 -421c0 -79 17 -173 107 -173z" />
    <glyph glyph-name="uniF6DC" unicode="&#xf6dc;" horiz-adv-x="314" 
d="M116 0l114 598h-2l-101 -55l-12 36l128 71h41l-124 -650h-44z" />
    <glyph glyph-name="uniF63A" unicode="&#xf63a;" horiz-adv-x="411" 
d="M334 0h-361l7 32l70 63c201 173 314 290 314 415c0 48 -22 111 -108 111c-58 0 -104 -31 -131 -53l-17 34c41 35 103 59 155 59c117 0 149 -84 149 -147c0 -142 -139 -279 -319 -432l-48 -41v-2h296z" />
    <glyph glyph-name="uniF63B" unicode="&#xf63b;" horiz-adv-x="392" 
d="M-12 29l18 35c24 -15 60 -35 115 -35c129 0 182 98 182 174c0 95 -72 132 -143 132h-37l7 37h39c58 0 172 48 172 152c0 61 -33 97 -100 97c-44 0 -87 -16 -116 -39l-17 35c37 24 86 44 139 44c108 0 142 -73 142 -132c0 -89 -72 -153 -143 -174v-2
c73 -18 106 -84 106 -149c0 -114 -94 -215 -235 -215c-62 0 -111 21 -129 40z" />
    <glyph glyph-name="uniF63C" unicode="&#xf63c;" horiz-adv-x="462" 
d="M301 0h-43l36 192h-282l7 31l369 427h37l-80 -419h96l-8 -39h-96zM77 231h225l50 263c6 31 13 61 20 90l-3 1c-26 -38 -40 -64 -65 -95l-227 -257v-2z" />
    <glyph glyph-name="uniF63D" unicode="&#xf63d;" horiz-adv-x="403" 
d="M434 650l-8 -41h-218l-64 -204c11 2 22 3 34 3c23 0 67 -7 101 -26c58 -29 81 -90 81 -142c0 -155 -120 -251 -246 -251c-54 0 -104 20 -122 34l18 36c21 -14 64 -30 114 -30c107 0 189 94 189 198c0 77 -35 141 -155 141c-23 0 -43 -2 -68 -4l88 286h256z" />
    <glyph glyph-name="uniF63E" unicode="&#xf63e;" horiz-adv-x="460" 
d="M444 661l-5 -43c-17 0 -39 -1 -64 -7c-116 -26 -226 -131 -276 -288h2c40 60 113 101 176 101c107 0 152 -80 152 -173c0 -121 -94 -262 -226 -262c-111 0 -166 84 -166 204c0 153 86 297 166 366c60 54 125 84 184 95c22 5 43 7 57 7zM208 28h1c96 0 173 112 173 223
c0 88 -42 133 -117 133c-58 0 -123 -40 -165 -107c-5 -9 -10 -19 -12 -30c-3 -16 -5 -37 -5 -62c0 -93 41 -157 125 -157z" />
    <glyph glyph-name="uniF63F" unicode="&#xf63f;" horiz-adv-x="370" 
d="M91 650h357l-6 -34c-129 -205 -258 -411 -390 -616h-50c131 203 260 406 388 608l-1 3h-306z" />
    <glyph glyph-name="uniF640" unicode="&#xf640;" horiz-adv-x="459" 
d="M301 661h1c88 0 147 -58 147 -140c0 -81 -56 -141 -134 -178v-3c73 -39 101 -99 101 -161c0 -119 -104 -190 -209 -190c-111 0 -180 68 -180 158c0 105 78 171 160 203v4c-55 39 -74 83 -74 130c0 96 81 177 188 177zM207 26h1c93 0 161 62 161 150
c0 73 -38 120 -133 153c-79 -20 -162 -77 -162 -178c0 -63 42 -125 133 -125zM293 624h-1c-77 0 -135 -63 -135 -135c0 -57 30 -100 107 -127c78 25 138 81 138 153c0 47 -21 109 -109 109z" />
    <glyph glyph-name="uniF641" unicode="&#xf641;" horiz-adv-x="460" 
d="M59 -11l5 42c18 0 41 1 62 6c47 9 98 34 145 79c48 43 95 110 129 205h-4c-46 -57 -108 -86 -165 -86c-109 0 -148 91 -148 165c0 127 100 261 226 261c112 0 154 -91 154 -191c0 -167 -99 -324 -170 -387c-50 -44 -108 -73 -163 -86c-22 -5 -49 -8 -71 -8zM304 622h-1
c-95 0 -173 -105 -173 -219c0 -72 34 -128 111 -128c62 0 119 37 156 94c5 9 10 17 13 28c4 19 7 46 7 76c0 86 -30 149 -113 149z" />
    <glyph glyph-name="uniF642" unicode="&#xf642;" horiz-adv-x="724" 
d="M209 600h1c77 0 104 -68 104 -127c0 -142 -66 -271 -169 -271c-71 0 -107 59 -107 140c0 118 64 258 171 258zM203 566h-1c-72 0 -122 -120 -122 -226c0 -52 14 -104 72 -104c72 0 120 124 120 229c0 42 -12 101 -69 101zM158 -13h-44l450 613h44zM584 393h1
c76 0 103 -68 103 -128c0 -142 -66 -270 -168 -270c-71 0 -107 58 -107 139c0 118 64 259 171 259zM577 359h-1c-72 0 -121 -121 -121 -227c0 -51 14 -103 72 -103c71 0 119 123 119 228c0 42 -12 102 -69 102z" />
    <glyph glyph-name="uniF643" unicode="&#xf643;" horiz-adv-x="487" 
d="M208 -11h-1c-88 0 -167 70 -167 195c0 140 95 309 248 309c83 0 168 -71 168 -197c0 -141 -95 -307 -248 -307zM215 28h1c122 0 193 151 193 266c0 95 -50 160 -129 160c-124 0 -193 -152 -193 -267c0 -94 49 -159 128 -159z" />
    <glyph glyph-name="uniF644" unicode="&#xf644;" horiz-adv-x="487" 
d="M362 484l-92 -484h-44l84 440h-2l-194 -76l-5 37l212 83h41z" />
    <glyph glyph-name="uniF645" unicode="&#xf645;" horiz-adv-x="487" 
d="M402 39l-7 -39h-370l5 26l112 78c159 112 217 177 217 253c0 69 -46 100 -100 100s-103 -31 -127 -48l-16 28c32 26 85 59 152 59c75 0 138 -48 138 -139c0 -86 -66 -157 -227 -271l-66 -47v-2c20 1 48 2 66 2h223z" />
    <glyph glyph-name="uniF646" unicode="&#xf646;" horiz-adv-x="487" 
d="M28 -82l12 35c26 -12 68 -21 106 -21c115 0 200 61 200 149c0 75 -64 112 -135 112c-27 0 -45 -1 -62 -2l5 37c5 1 11 1 16 1c87 7 192 57 192 146c0 52 -42 79 -98 79c-48 0 -87 -17 -111 -30l-14 29c27 19 80 40 137 40c64 0 133 -37 133 -119
c0 -76 -64 -130 -141 -152l-1 -3c72 -12 126 -58 126 -132c0 -128 -130 -194 -241 -194c-53 0 -102 12 -124 25z" />
    <glyph glyph-name="uniF647" unicode="&#xf647;" horiz-adv-x="487" 
d="M332 62l-33 -169h-42l32 169h-274l7 31l353 399h37l-73 -391h95l-8 -39h-94zM296 101l45 239c6 30 12 61 20 87l-3 1c-20 -31 -42 -60 -62 -84l-216 -240l1 -3h215z" />
    <glyph glyph-name="uniF648" unicode="&#xf648;" horiz-adv-x="487" 
d="M35 -87l12 37c24 -10 63 -18 98 -18c108 0 199 60 199 163c0 33 -12 62 -34 83c-45 44 -131 47 -200 41l84 263h247l-15 -39h-204l-60 -185c66 5 141 -9 186 -54c28 -27 43 -63 43 -105c0 -126 -114 -206 -246 -206c-46 0 -92 11 -110 20z" />
    <glyph glyph-name="uniF649" unicode="&#xf649;" horiz-adv-x="487" 
d="M227 28h1c85 0 167 85 167 192c0 81 -52 126 -117 126c-75 0 -125 -41 -152 -85c-19 -26 -24 -53 -24 -81c0 -90 48 -152 125 -152zM464 597l5 -36c-120 -13 -200 -57 -253 -110c-47 -47 -76 -93 -93 -145h2c33 40 90 79 167 79s150 -59 150 -158
c0 -131 -100 -238 -221 -238c-88 0 -165 62 -165 199c0 73 34 194 122 281c67 66 157 117 286 128z" />
    <glyph glyph-name="uniF64A" unicode="&#xf64a;" horiz-adv-x="487" 
d="M450 482l-6 -32c-71 -147 -242 -399 -371 -557l-46 14c103 115 306 406 365 533l1 3h-294l6 39h345z" />
    <glyph glyph-name="uniF64B" unicode="&#xf64b;" horiz-adv-x="487" 
d="M299 600h1c89 0 153 -59 153 -136c0 -70 -53 -113 -132 -152v-2c71 -38 111 -88 111 -149c0 -108 -105 -172 -207 -172c-107 0 -182 60 -182 154c0 86 82 138 161 175v2c-54 28 -87 71 -87 124c0 89 83 156 182 156zM291 563h-1c-67 0 -129 -41 -129 -110
c0 -59 46 -95 118 -124c73 31 128 70 128 134c0 51 -36 100 -116 100zM224 26h1c90 0 160 57 160 128c0 67 -51 107 -140 145c-71 -27 -155 -76 -155 -157c0 -70 56 -116 134 -116z" />
    <glyph glyph-name="uniF64C" unicode="&#xf64c;" horiz-adv-x="487" 
d="M220 133h1c61 0 124 41 159 92c11 17 20 47 20 80c0 101 -57 149 -128 149c-86 0 -164 -87 -164 -192c0 -84 50 -129 112 -129zM46 -109l-5 37c28 2 54 5 78 10c163 35 233 142 266 241l-3 1c-32 -42 -98 -84 -170 -84c-87 0 -151 61 -151 159c0 126 102 238 226 238
c89 0 160 -72 160 -197c0 -165 -97 -356 -338 -399c-19 -3 -41 -6 -63 -6z" />
    <glyph glyph-name="uniF64E" unicode="&#xf64e;" horiz-adv-x="487" 
d="M404 59l10 -35c-27 -18 -81 -35 -146 -35c-112 0 -191 81 -193 197h-51l7 36h46c2 19 6 37 11 57h-48l7 36h52c46 119 147 197 271 197c55 0 92 -15 116 -29l-17 -35c-24 13 -58 25 -100 25c-103 0 -185 -67 -225 -158h263l-7 -36h-267c-6 -19 -9 -37 -10 -57h267l-7 -36
h-262c6 -97 64 -158 162 -158c45 0 99 17 121 31z" />
    <glyph glyph-name="uniF64F" unicode="&#xf64f;" horiz-adv-x="487" 
d="M500 586l-16 -36c-15 6 -27 10 -47 10c-79 0 -117 -68 -142 -170l-14 -56h125l-5 -37h-129l-47 -192c-33 -137 -84 -217 -179 -217c-25 0 -52 7 -65 16l15 36c17 -10 35 -13 54 -13c52 0 99 44 128 167l49 203h-94l4 37h100l12 54c26 108 79 212 194 212
c22 0 44 -7 57 -14z" />
    <glyph glyph-name="uniF650" unicode="&#xf650;" horiz-adv-x="487" 
d="M185 219h92l51 167h-93zM117 0h-40l56 182h-83l7 37h88l50 167h-87l7 37h92l55 177h39l-54 -177h92l55 177h39l-54 -177h83l-7 -37h-87l-51 -167h88l-6 -37h-94l-56 -182h-40l56 182h-92z" />
    <glyph glyph-name="uniF651" unicode="&#xf651;" horiz-adv-x="487" 
d="M427 488l-16 -35c-13 8 -43 19 -80 19c-86 0 -140 -72 -136 -198v-14h152l-6 -37h-143c3 -74 -17 -139 -81 -184v-2h287l-6 -37h-372l5 29c88 37 128 94 121 194h-87l6 37h78v9c-4 139 64 243 191 243c41 0 71 -13 87 -24z" />
    <glyph glyph-name="uniF652" unicode="&#xf652;" horiz-adv-x="487" 
d="M220 0h-44l24 121h-147l7 36h146l12 64h-146l6 36h131l-99 244h48l65 -171c9 -26 17 -48 23 -67h3c14 20 34 46 53 70l135 168h53l-202 -244h128l-7 -36h-148l-12 -64h147l-7 -36h-147z" />
    <glyph glyph-name="uniF653" unicode="&#xf653;" horiz-adv-x="487" 
d="M206 -77h-35l14 77c-48 1 -97 20 -124 41l23 33c19 -16 61 -35 115 -35c74 0 137 39 137 98c0 32 -18 66 -99 99c-81 35 -108 69 -108 116c0 73 73 123 153 128l16 81h36l-16 -81c43 -5 82 -21 103 -37l-22 -34c-26 20 -63 34 -104 34c-71 0 -118 -37 -118 -86
c0 -38 19 -56 96 -89c71 -30 110 -71 110 -123c0 -85 -79 -138 -163 -144z" />
    <glyph glyph-name="uniF654" unicode="&#xf654;" horiz-adv-x="487" 
d="M342 116l10 -36c-21 -10 -62 -26 -108 -29l-14 -70h-34l14 71c-84 9 -142 68 -142 149c0 119 92 226 215 242l12 65h35l-12 -64c41 -2 78 -19 95 -32l-20 -33c-19 13 -51 27 -88 27c-112 0 -190 -97 -190 -197c0 -73 44 -119 125 -119c40 0 76 13 102 26z" />
    <glyph glyph-name="uniF655" unicode="&#xf655;" horiz-adv-x="297" 
d="M108 -7h-1c-71 0 -97 58 -97 135c0 138 73 269 171 269c73 0 96 -61 96 -121c0 -137 -66 -283 -169 -283zM113 26h1c77 0 122 155 122 244c0 33 -6 94 -60 94c-70 0 -125 -127 -125 -239c0 -43 10 -99 62 -99z" />
    <glyph glyph-name="uniF656" unicode="&#xf656;" horiz-adv-x="200" 
d="M91 0h-39l67 350h-2l-68 -33l-5 32l86 41h35z" />
    <glyph glyph-name="uniF657" unicode="&#xf657;" horiz-adv-x="273" 
d="M205 0h-238l5 28l72 59c99 82 165 141 165 211c0 29 -14 62 -66 62c-34 0 -66 -19 -83 -32l-14 28c28 22 67 39 106 39c71 0 100 -49 100 -97c0 -79 -84 -151 -179 -227l-42 -34v-2h181z" />
    <glyph glyph-name="uniF658" unicode="&#xf658;" horiz-adv-x="263" 
d="M60 333l-12 29c21 17 60 33 95 33c71 0 96 -42 96 -83c0 -46 -37 -82 -86 -99l-1 -2c43 -12 68 -51 67 -91c-1 -71 -57 -125 -150 -125c-41 0 -78 13 -93 26l15 30c15 -9 44 -23 82 -23c70 0 105 44 105 90c0 55 -50 76 -95 76h-22l6 31h23c48 0 107 34 107 82
c0 31 -16 54 -63 54c-27 0 -57 -14 -74 -28z" />
    <glyph glyph-name="uniF659" unicode="&#xf659;" horiz-adv-x="289" 
d="M181 0h-39l22 112h-176l6 26l222 253h40l-47 -246h57l-7 -33h-57zM170 145l28 144c4 21 9 40 13 55l-2 1c-16 -21 -26 -39 -41 -57l-126 -142v-1h128z" />
    <glyph glyph-name="uniF65A" unicode="&#xf65a;" horiz-adv-x="269" 
d="M263 390l-8 -35h-138l-34 -109c8 1 14 2 22 2c15 0 43 -4 65 -16c36 -18 51 -55 51 -88c0 -96 -77 -151 -158 -151c-37 0 -71 13 -83 22l13 32c15 -10 43 -20 76 -20c59 0 110 49 110 107c0 41 -19 80 -97 80c-16 0 -28 -2 -45 -3l54 179h172z" />
    <glyph glyph-name="uniF65B" unicode="&#xf65b;" horiz-adv-x="297" 
d="M270 397l-6 -36c-10 0 -25 -1 -41 -5c-77 -17 -134 -74 -161 -155l1 -1c24 34 67 57 105 57c65 0 97 -48 97 -107c0 -77 -62 -157 -145 -157c-73 0 -110 53 -110 127c0 94 53 177 102 218c30 24 64 42 104 51c17 5 35 7 54 8zM124 26h1c54 0 98 60 98 122
c0 50 -25 76 -69 76c-34 0 -71 -23 -94 -60c-4 -6 -6 -13 -7 -20c-2 -7 -2 -19 -2 -30c0 -52 24 -88 73 -88z" />
    <glyph glyph-name="uniF65C" unicode="&#xf65c;" horiz-adv-x="261" 
d="M45 390h232l-5 -30c-55 -86 -168 -258 -235 -360h-45c71 106 173 262 233 353v2h-186z" />
    <glyph glyph-name="uniF65D" unicode="&#xf65d;" horiz-adv-x="298" 
d="M178 397h1c56 0 98 -33 98 -88c0 -46 -32 -81 -79 -103v-1c44 -23 60 -59 60 -94c0 -77 -70 -118 -135 -118c-74 0 -119 42 -119 97c0 60 44 100 95 119v2c-33 22 -44 49 -44 77c0 62 55 109 123 109zM123 24h1c51 0 92 33 92 83c0 41 -23 68 -78 85
c-45 -10 -92 -41 -92 -97c0 -35 25 -71 77 -71zM172 366h-1c-43 0 -77 -36 -77 -75c0 -32 18 -56 64 -70c43 12 78 42 78 83c0 26 -13 62 -64 62z" />
    <glyph glyph-name="uniF65E" unicode="&#xf65e;" horiz-adv-x="290" 
d="M10 -7l5 35c11 0 25 1 39 3c29 5 60 19 89 44c28 25 55 61 75 112l-2 1c-28 -34 -66 -50 -99 -50c-67 0 -95 54 -95 102c0 80 64 157 144 157c74 0 104 -57 104 -122c0 -102 -61 -192 -105 -228c-33 -27 -72 -44 -110 -51c-16 -3 -32 -4 -45 -3zM162 364h-1
c-52 0 -98 -55 -98 -120c0 -38 20 -72 65 -72c36 0 68 21 89 52c4 5 6 10 8 16c2 10 4 26 4 40c0 48 -20 84 -67 84z" />
    <glyph glyph-name="uniF65F" unicode="&#xf65f;" horiz-adv-x="120" 
d="M-15 -71l-32 -4c17 31 45 96 58 137l50 6c-20 -49 -58 -116 -76 -139z" />
    <glyph glyph-name="uniF660" unicode="&#xf660;" horiz-adv-x="120" 
d="M24 -7h-1c-16 0 -28 14 -28 32c0 20 13 35 32 35s30 -13 30 -32c0 -20 -13 -35 -33 -35z" />
    <glyph glyph-name="uniF629" unicode="&#xf629;" horiz-adv-x="267" 
d="M131 -11h-32l13 63c-35 5 -57 19 -73 41c-15 21 -22 47 -22 73c0 94 71 169 153 178l11 62h31l-11 -61c21 0 49 -9 59 -17l-16 -31c-14 9 -33 16 -64 16c-57 0 -120 -59 -120 -144c0 -48 28 -85 82 -85c29 0 52 9 67 16l6 -32c-12 -7 -44 -16 -73 -16z" />
    <glyph glyph-name="uniF62A" unicode="&#xf62a;" horiz-adv-x="252" 
d="M88 -51h-32l12 61c-27 1 -60 13 -77 26l14 32c19 -14 45 -25 78 -25c46 0 86 29 86 74c0 26 -13 50 -53 69c-55 27 -78 57 -78 94c0 53 45 98 105 103l13 61h31l-12 -61c29 -1 54 -12 64 -20l-14 -31c-12 7 -31 19 -68 19c-47 0 -77 -30 -77 -66c0 -27 14 -43 61 -67
c49 -25 71 -55 71 -94c0 -64 -47 -106 -112 -114z" />
    <glyph glyph-name="uniF62B" unicode="&#xf62b;" horiz-adv-x="183" 
d="M15 197h141l-7 -33h-140z" />
    <glyph glyph-name="uniF62C" unicode="&#xf62c;" horiz-adv-x="168" 
d="M158 425h36c-61 -67 -130 -176 -130 -322c0 -50 10 -104 37 -164h-32c-26 50 -41 101 -41 167c0 149 74 260 130 319z" />
    <glyph glyph-name="uniF62D" unicode="&#xf62d;" horiz-adv-x="168" 
d="M-4 -61h-37c61 69 131 177 131 323c0 50 -11 104 -38 163h32c26 -49 42 -100 42 -166c0 -149 -75 -259 -130 -320z" />
    <glyph glyph-name="uniF661" unicode="&#xf661;" horiz-adv-x="297" 
d="M161 259h-1c-71 0 -97 58 -97 135c0 138 73 269 171 269c73 0 96 -61 96 -121c0 -137 -66 -283 -169 -283zM166 292h1c77 0 122 155 122 244c0 33 -6 94 -60 94c-70 0 -125 -127 -125 -239c0 -43 10 -99 62 -99z" />
    <glyph glyph-name="uniF662" unicode="&#xf662;" horiz-adv-x="200" 
d="M144 266h-39l67 350h-2l-68 -33l-5 32l86 41h35z" />
    <glyph glyph-name="uniF663" unicode="&#xf663;" horiz-adv-x="273" 
d="M258 266h-238l5 28l72 59c99 82 165 141 165 211c0 29 -14 62 -66 62c-34 0 -66 -19 -83 -32l-14 28c28 22 67 39 106 39c71 0 100 -49 100 -97c0 -79 -84 -151 -179 -227l-42 -34v-2h181z" />
    </font>
</defs>
</svg>
